<svg width="57" height="57" viewBox="0 0 57 57" fill="none" xmlns="http://www.w3.org/2000/svg">
<g filter="url(#filter0_d_25615_2104)">
<path fill-rule="evenodd" clip-rule="evenodd" d="M27.8486 55.0285C26.242 55.0285 24.6992 54.5272 23.5087 53.6198L20.5681 51.3843C19.5444 50.6036 17.368 49.7264 16.0905 49.5824L12.4104 49.1589C9.25524 48.7959 6.56259 46.1643 6.14789 43.0387L5.66359 39.3931C5.49539 38.1255 4.57754 35.975 3.77569 34.9711L1.47599 32.0889C-0.464111 29.6604 -0.496011 25.8261 1.40639 23.363L3.65534 20.4434C4.43979 19.4279 5.32284 17.2645 5.47074 15.9912L5.89559 12.3383C6.26099 9.20694 8.90869 6.53358 12.0552 6.11875L15.7295 5.63767C17.0069 5.46914 19.1703 4.55882 20.1752 3.76373L23.081 1.47639C24.2888 0.5243 25.8679 0 27.5209 0C29.1304 0 30.6717 0.499813 31.8636 1.40582L34.8028 3.64561C35.8265 4.42342 38.0044 5.30062 39.2818 5.44465L42.9619 5.86813C46.1171 6.2311 48.8083 8.86269 49.223 11.9883L49.7073 15.6339C49.877 16.9015 50.7948 19.052 51.5952 20.0559L53.8964 22.9367C55.8669 25.4113 55.8974 29.1606 53.9689 31.6625L51.7141 34.5836C50.9311 35.5991 50.0495 37.7626 49.9002 39.0344L49.4753 42.6887C49.1099 45.8201 46.4622 48.4949 43.3172 48.9083L39.6458 49.3908C38.3669 49.5579 36.2049 50.4696 35.1928 51.2647L32.2899 53.5506C31.0806 54.5027 29.5045 55.0285 27.85 55.0285H27.8486Z" fill="white"/>
</g>
<path fill-rule="evenodd" clip-rule="evenodd" d="M51.6235 24.7269L49.3223 21.8447C48.1928 20.4288 47.072 17.803 46.8327 16.0112L46.3484 12.3641C46.1106 10.5723 44.4373 8.93599 42.6292 8.73001L38.9505 8.30798C37.1424 8.09912 34.4831 7.03036 33.0389 5.9299L30.0983 3.69155C28.6555 2.59253 26.3065 2.61126 24.8826 3.73476L21.9797 6.02065C20.5544 7.14271 17.9125 8.25468 16.1087 8.49235L12.4373 8.97344C10.632 9.2111 8.98625 10.8733 8.776 12.6695L8.35115 16.3237C8.14235 18.1184 7.065 20.7615 5.95865 22.1962L3.7068 25.1158C2.599 26.5504 2.61785 28.8824 3.74885 30.2983L6.04855 33.1805C7.17955 34.5979 8.3004 37.2223 8.5382 39.0141L9.0225 42.6612C9.2603 44.453 10.9336 46.0893 12.7432 46.2967L16.4219 46.7202C18.23 46.9261 20.8893 47.9949 22.3335 49.0953L25.2727 51.3337C26.7169 52.4327 29.0644 52.4154 30.4897 51.2905L33.3927 49.006C34.818 47.8825 37.4599 46.7706 39.2652 46.5343L42.9366 46.0518C44.7403 45.8156 46.3861 44.1519 46.5949 42.3572L47.0198 38.703C47.23 36.9068 48.3059 34.2637 49.4137 32.8305L51.6656 29.9109C52.7719 28.4762 52.7531 26.1428 51.6235 24.7269Z" fill="white"/>
<path fill-rule="evenodd" clip-rule="evenodd" d="M16.1069 8.49163C17.9107 8.2554 20.5526 7.14199 21.9794 6.01993L24.8823 3.73404C26.3077 2.61198 28.6552 2.59181 30.0994 3.69227L33.0386 5.93062C34.4828 7.02964 37.1435 8.09984 38.9502 8.30726L42.6289 8.72929C44.437 8.93671 46.1103 10.5715 46.3481 12.3634L46.8339 16.0119C47.0717 17.8037 48.1925 20.4281 49.3221 21.8454L51.6232 24.7262C52.7528 26.1435 52.7731 28.4755 51.6653 29.9101L49.4134 32.8298C48.3056 34.2644 47.2297 36.9075 47.0195 38.7037L46.5946 42.3579C46.3858 44.1527 44.7386 45.8149 42.9363 46.0511L39.2649 46.5336C37.4611 46.7698 34.8177 47.8833 33.3924 49.0068L30.4909 51.2912C29.0656 52.4147 26.7151 52.4334 25.2724 51.333L22.3332 49.0946C20.889 47.9956 18.2297 46.9268 16.4216 46.7194L12.7429 46.296C10.9362 46.09 9.26146 44.4537 9.02221 42.6619L8.53791 39.0134C8.29866 37.2215 7.18071 34.5972 6.04826 33.1813L3.75001 30.2991C2.61756 28.8817 2.60016 26.5497 3.70506 25.1151L5.95981 22.1969C7.06616 20.7623 8.14351 18.1192 8.35086 16.323L8.77571 12.6687C8.98596 10.8726 10.6332 9.21038 12.437 8.97416L16.1069 8.49163Z" fill="#FFCA4D"/>
<path fill-rule="evenodd" clip-rule="evenodd" d="M16.1069 8.49163C17.9107 8.2554 20.5526 7.14199 21.9794 6.01993L24.8823 3.73404C26.3077 2.61198 28.6552 2.59181 30.0994 3.69227L33.0386 5.93062C34.4828 7.02964 37.1435 8.09984 38.9502 8.30726L42.6289 8.72929C44.437 8.93671 46.1103 10.5715 46.3481 12.3634L46.8339 16.0119C47.0717 17.8037 48.1925 20.4281 49.3221 21.8454L51.6232 24.7262C52.7528 26.1435 52.7731 28.4755 51.6653 29.9101L49.4134 32.8298C48.3056 34.2644 47.2297 36.9075 47.0195 38.7037L46.5946 42.3579C46.3858 44.1527 44.7386 45.8149 42.9363 46.0511L39.2649 46.5336C37.4611 46.7698 34.8177 47.8833 33.3924 49.0068L30.4909 51.2912C29.0656 52.4147 26.7151 52.4334 25.2724 51.333L22.3332 49.0946C20.889 47.9956 18.2297 46.9268 16.4216 46.7194L12.7429 46.296C10.9362 46.09 9.26146 44.4537 9.02221 42.6619L8.53791 39.0134C8.29866 37.2215 7.18071 34.5972 6.04826 33.1813L3.75001 30.2991C2.61756 28.8817 2.60016 26.5497 3.70506 25.1151L5.95981 22.1969C7.06616 20.7623 8.14351 18.1192 8.35086 16.323L8.77571 12.6687C8.98596 10.8726 10.6332 9.21038 12.437 8.97416L16.1069 8.49163Z" fill="#FFCA4D"/>
<path fill-rule="evenodd" clip-rule="evenodd" d="M39.2405 38.7734C38.0258 39.9858 35.6525 40.0977 32.7263 39.0805C31.895 38.7906 31.0465 38.4219 30.1907 37.9814C31.7241 36.8852 33.2274 35.6111 34.6517 34.1878C36.0861 32.7544 37.3467 31.2666 38.4193 29.7729C40.3518 33.4819 40.9994 37.0158 39.2405 38.7734ZM22.9228 39.0805C19.9966 40.0978 17.6218 39.9873 16.41 38.7735C15.1953 37.5611 15.0833 35.1879 16.1027 32.2638C16.3913 31.4345 16.7618 30.5851 17.2011 29.7314C18.2995 31.2623 19.5745 32.766 20.9974 34.1878C22.4217 35.6112 23.9264 36.8853 25.4569 37.9814C24.6026 38.4219 23.7541 38.7907 22.9228 39.0805ZM16.1027 22.4683C15.0833 19.5442 15.1953 17.1711 16.41 15.9586C17.0733 15.2958 18.0827 14.9615 19.3419 14.9615C20.3828 14.9615 21.5975 15.1896 22.9228 15.653C23.7541 15.9414 24.6026 16.3102 25.4569 16.7492C23.9264 17.8468 22.4217 19.1224 20.9974 20.5443C19.5745 21.9661 18.2995 23.4698 17.2011 25.0007C16.7618 24.147 16.3913 23.2991 16.1027 22.4683ZM37.0019 27.3668C35.8303 29.1503 34.4189 30.8964 32.8869 32.4259C31.2717 34.0415 29.5545 35.4476 27.8243 36.5897C26.0942 35.4476 24.3755 34.0415 22.7603 32.4259C21.1436 30.8103 19.7379 29.0957 18.595 27.3668C19.7379 25.6379 21.1436 23.9204 22.7603 22.3048C24.3755 20.6907 26.0942 19.2846 27.8243 18.1425C29.5545 19.2846 31.2717 20.6907 32.8869 22.3048C34.4189 23.8358 35.8303 25.5819 37.0019 27.3668ZM32.7263 15.653C34.053 15.1896 35.2648 14.9615 36.3072 14.9615C37.5664 14.9615 38.5772 15.2958 39.2405 15.9586C40.9994 17.7163 40.3518 21.2487 38.4193 24.9591C37.3467 23.4655 36.0861 21.9791 34.6517 20.5443C33.2274 19.1224 31.7241 17.8468 30.1907 16.7492C31.0465 16.3102 31.895 15.9414 32.7263 15.653ZM41.0036 14.1968C39.0581 12.254 35.8275 11.9355 31.9064 13.2986C30.5682 13.7649 29.1956 14.412 27.8244 15.2112C26.4532 14.412 25.0806 13.7649 23.7425 13.2986C19.8213 11.9355 16.5908 12.254 14.6453 14.1968C12.7012 16.1395 12.3825 19.3692 13.7479 23.2876C14.2131 24.6249 14.8606 25.9965 15.6604 27.3668C14.8606 28.737 14.2131 30.1087 13.7479 31.4459C12.3825 35.3643 12.7012 38.5926 14.6453 40.5353C15.7968 41.6846 17.3977 42.2671 19.326 42.2671C20.6555 42.2671 22.1416 41.9888 23.7425 41.4335C25.0806 40.9672 26.4532 40.3215 27.8244 39.5209C29.1956 40.3215 30.5682 40.9672 31.9064 41.4335C33.5073 41.9888 34.9933 42.2671 36.3229 42.2671C38.2526 42.2671 39.8535 41.6846 41.0036 40.5353C43.6885 37.8523 43.1127 32.7329 39.9842 27.3668C43.1127 22.0006 43.6885 16.8784 41.0036 14.1968Z" fill="#5F3361"/>
<path fill-rule="evenodd" clip-rule="evenodd" d="M32.0004 26.9508C31.9221 26.981 31.8728 27.1668 31.8844 27.3195C31.9221 27.8207 31.9656 28.3883 31.5987 29.2554C31.4247 29.6673 31.1115 30.098 30.6925 30.4984C30.1632 31.0026 29.721 31.1163 29.6079 31.1163C29.5673 31.1163 29.5441 31.1034 29.5368 31.0775C29.5339 31.0688 29.5267 31.0429 29.56 31.0184L29.6543 30.9507C29.8776 30.7908 29.9385 30.7491 30.1792 30.5388C30.562 30.2089 31.1086 29.4095 31.1956 29.1517C31.3029 28.8405 31.3957 28.3667 31.3624 28.0181C31.3406 27.7977 31.2942 27.7286 31.2841 27.7228C31.2449 27.7286 31.1623 27.8424 31.113 28.0339C31.068 28.2025 31.0071 28.4041 30.9491 28.5957C30.7867 29.1329 30.6229 29.3288 30.4634 29.519C30.43 29.5593 30.3981 29.5982 30.3648 29.64C30.0835 30.0044 29.7195 30.2017 29.634 30.2017C29.5963 30.2017 29.5832 30.1758 29.5803 30.1671C29.5673 30.1326 29.5963 30.0994 29.6412 30.0591C29.7572 29.9626 30.1502 29.5939 30.3256 28.9731C30.3546 28.8679 30.3256 28.7584 30.3068 28.7484C30.3068 28.7484 30.2691 28.7584 30.2111 28.901C30.0893 29.2006 30.0675 29.2309 29.8747 29.5118C29.6354 29.8603 29.2004 30.2118 28.996 30.3097C28.6726 30.4624 28.3232 30.5402 27.9549 30.5402C27.7359 30.5402 27.5039 30.5128 27.2705 30.4595C26.747 30.3371 26.1293 29.8214 26.0902 29.7811C25.9205 29.5982 25.748 29.4009 25.6363 29.205C25.3478 28.6936 25.2245 28.1981 25.2695 27.7329C25.3173 27.2532 25.4101 26.8787 25.7393 26.4985C26.0612 26.1211 26.3497 25.869 26.8601 25.6904C27.1139 25.6011 27.4343 25.5507 27.7577 25.5507C28.2115 25.5507 28.6175 25.6486 28.8742 25.8143C29.3179 26.1038 29.4774 26.2551 29.8718 26.6483C30.0501 26.8254 30.3285 26.932 30.6098 26.932C30.8215 26.932 31.0245 26.8759 31.2159 26.7635C31.5973 26.5388 31.8148 26.2493 31.8641 25.9007C31.9699 25.1488 31.2754 24.4099 31.2681 24.4027C31.1028 24.2299 30.9448 24.0815 30.7911 23.9504C30.7896 23.7646 30.5808 23.6206 30.5808 23.6206C29.4252 22.7967 28.342 22.8111 27.8998 22.8327C27.3749 22.8557 26.8833 22.9119 26.3947 23.0473C25.1665 23.3267 24.195 24.0153 23.4961 25.097C23.0031 25.6746 22.819 26.5619 22.7653 27.2849C22.7059 28.0671 23.0118 29.2395 23.1786 29.3965C23.3352 29.5434 23.4729 29.5636 23.4918 29.5651C23.586 29.7681 23.689 29.9784 23.731 30.0389C23.7629 30.0836 23.7948 30.1297 23.8267 30.1758C24.0239 30.4624 24.2284 30.7591 24.501 30.9954C24.9519 31.3828 25.355 31.5974 25.9002 31.8351C26.4411 32.0713 26.8572 32.1707 27.385 32.1894C27.5706 32.1981 27.6997 32.201 27.8157 32.201C28.2362 32.201 28.5392 32.1563 28.9742 32.0368C29.4266 31.9114 29.9254 31.6925 30.3111 31.4476C30.4808 31.3396 31.0057 30.87 31.1869 30.6597C31.3754 30.4466 31.7191 29.9453 31.8931 29.4455C32.2817 28.3364 32.2019 27.73 32.1483 27.3238C32.1149 27.066 32.0497 26.9508 32.0004 26.9508Z" fill="#5F3361"/>
<defs>
<filter id="filter0_d_25615_2104" x="0" y="0" width="56.395" height="56.0284" filterUnits="userSpaceOnUse" color-interpolation-filters="sRGB">
<feFlood flood-opacity="0" result="BackgroundImageFix"/>
<feColorMatrix in="SourceAlpha" type="matrix" values="0 0 0 0 0 0 0 0 0 0 0 0 0 0 0 0 0 0 127 0" result="hardAlpha"/>
<feOffset dx="1" dy="1"/>
<feColorMatrix type="matrix" values="0 0 0 0 0 0 0 0 0 0 0 0 0 0 0 0 0 0 0.09 0"/>
<feBlend mode="normal" in2="BackgroundImageFix" result="effect1_dropShadow_25615_2104"/>
<feBlend mode="normal" in="SourceGraphic" in2="effect1_dropShadow_25615_2104" result="shape"/>
</filter>
</defs>
</svg>
