<svg width="154" height="154" viewBox="0 0 154 154" fill="none" xmlns="http://www.w3.org/2000/svg">
<g clip-path="url(#clip0)">
<path d="M77.0513 141.269C112.518 141.269 141.269 112.518 141.269 77.0514C141.269 41.5847 112.518 12.8334 77.0513 12.8334C41.5847 12.8334 12.8333 41.5847 12.8333 77.0514C12.8333 112.518 41.5847 141.269 77.0513 141.269Z" fill="#F6F6F6"/>
<path d="M77.0513 122.019C97.7331 122.019 114.499 120.353 114.499 118.298C114.499 116.242 97.7331 114.576 77.0513 114.576C56.3696 114.576 39.6037 116.242 39.6037 118.298C39.6037 120.353 56.3696 122.019 77.0513 122.019Z" fill="#ECECEF"/>
<path d="M70.917 42.6838L65.219 44.2494L61.0353 57.4421L63.0117 72.2004H65.219H82.8007V51.4104L91.8097 56.4411L101.768 48.4844L99.9717 46.2258L92.323 51.3334L82.8007 44.2751L77.1027 42.7094C77.1027 42.7094 77.1027 45.6098 73.997 45.6098C70.8913 45.6098 70.917 42.6838 70.917 42.6838Z" fill="#BBD6DC"/>
<path d="M69.6338 43.043L74.0228 53.7204L78.4118 43.043L82.8265 44.2494V72.1747H65.2448V44.2494L69.6338 43.043Z" fill="#FFCE1E"/>
<path d="M82.8265 56.4154H65.2448V59.4184H82.8265V56.4154Z" fill="white"/>
<path d="M82.8265 62.3957H65.2448V65.3987H82.8265V62.3957Z" fill="white"/>
<path d="M103.924 37.3963V117.04" stroke="#35374A" stroke-width="1.48425" stroke-miterlimit="10" stroke-linecap="round" stroke-linejoin="round"/>
<path d="M119.765 36.2477L119.764 36.2465L105.237 14.0717C105.237 14.0716 105.237 14.0715 105.237 14.0715C104.943 13.6199 104.476 13.2931 103.912 13.2931C103.348 13.2931 102.881 13.6198 102.586 14.0713C102.586 14.0715 102.586 14.0716 102.586 14.0717L88.0846 36.247L88.0841 36.2477C87.8144 36.6613 87.6473 37.2341 87.9343 37.7646C88.2219 38.2962 88.7946 38.4703 89.2944 38.4703H118.554C119.054 38.4703 119.627 38.2962 119.914 37.7647C120.201 37.2341 120.034 36.6613 119.765 36.2477Z" fill="#FFE278" stroke="#35374A" stroke-width="1.48039"/>
<path d="M78.5401 117.451L84.0584 117.964L84.5717 117.476L80.2084 116.116L78.5401 117.451Z" fill="#35374A" stroke="#35374A" stroke-width="1.28333" stroke-miterlimit="10" stroke-linecap="round" stroke-linejoin="round"/>
<path d="M67.8627 117.451L73.3553 117.964L73.8943 117.476L69.5053 116.116L67.8627 117.451Z" fill="#35374A" stroke="#35374A" stroke-width="1.28333" stroke-miterlimit="10" stroke-linecap="round" stroke-linejoin="round"/>
<path d="M82.8265 49.1518V72.1748H65.2448V56.7748" stroke="#3E4543" stroke-width="1.28333" stroke-miterlimit="10" stroke-linecap="round" stroke-linejoin="round"/>
<path d="M65.2447 44.2494L61.0353 57.4421L63.0117 72.1747H65.2447V56.7747" stroke="#35374A" stroke-width="1.28333" stroke-miterlimit="10" stroke-linecap="round" stroke-linejoin="round"/>
<path d="M70.9169 42.6838C70.9169 42.6838 70.9169 45.5841 74.0226 45.5841C77.1283 45.5841 77.1283 42.6838 77.1283 42.6838" stroke="#35374A" stroke-width="1.28333" stroke-miterlimit="10" stroke-linecap="round" stroke-linejoin="round"/>
<path d="M65.2448 72.1747L66.8875 94.0427L67.8628 117.451L69.5055 116.116L74.5361 72.1747L78.5401 117.451L80.2085 116.116L81.1581 94.0427L82.8265 72.1747H65.2448Z" fill="#35374A" stroke="#35374A" stroke-width="1.28333" stroke-miterlimit="10" stroke-linecap="round" stroke-linejoin="round"/>
<path d="M63.0117 72.1747H65.2447L65.5527 76.3328L63.7561 76.3584L63.0117 72.1747Z" fill="white" stroke="#35374A" stroke-width="1.28333" stroke-miterlimit="10" stroke-linecap="round" stroke-linejoin="round"/>
<path d="M65.2448 44.2494L74.0228 41.8367L82.8265 44.2494L92.3231 51.3077L99.9718 46.2001L101.768 48.4587L91.8098 56.4154L82.8265 51.3847" stroke="#35374A" stroke-width="1.28333" stroke-miterlimit="10" stroke-linecap="round" stroke-linejoin="round"/>
<path d="M99.9717 46.2001L102.718 44.2494H105.362V47.2781L101.768 48.4587L99.9717 46.2001Z" fill="white" stroke="#35374A" stroke-width="1.28333" stroke-miterlimit="10" stroke-linecap="round" stroke-linejoin="round"/>
<path d="M74.0227 43.0431C76.9712 43.0431 79.3614 40.6529 79.3614 37.7045C79.3614 34.756 76.9712 32.3658 74.0227 32.3658C71.0743 32.3658 68.6841 34.756 68.6841 37.7045C68.6841 40.6529 71.0743 43.0431 74.0227 43.0431Z" fill="white" stroke="#35374A" stroke-width="1.28333" stroke-miterlimit="10" stroke-linecap="round" stroke-linejoin="round"/>
<path d="M67.8371 35.5996C67.8371 32.186 70.6091 29.3883 74.0485 29.3883C77.4878 29.3883 80.2598 32.1603 80.2598 35.5996H67.8371Z" fill="#FFCE1E" stroke="#35374A" stroke-width="1.28333" stroke-miterlimit="10" stroke-linecap="round" stroke-linejoin="round"/>
<path d="M66.6564 35.5997H81.3891" stroke="#35374A" stroke-width="1.49367" stroke-miterlimit="10" stroke-linecap="round" stroke-linejoin="round"/>
<path d="M73.0474 28.2847V35.5997" stroke="#35374A" stroke-width="0.641667" stroke-miterlimit="10" stroke-linecap="round" stroke-linejoin="round"/>
<path d="M75.0237 28.2848V35.5998" stroke="#35374A" stroke-width="0.641667" stroke-miterlimit="10" stroke-linecap="round" stroke-linejoin="round"/>
<path d="M69.6338 43.043L74.0228 53.7204L78.4118 43.043L82.8265 44.2494V72.1747H65.2448V44.2494L69.6338 43.043Z" stroke="#35374A" stroke-width="1.28333" stroke-miterlimit="10" stroke-linecap="round" stroke-linejoin="round"/>
<path d="M102.692 29.3882L105.233 29.3882L105.233 21.1235L102.692 21.1235L102.692 29.3882Z" fill="#35374A"/>
<path d="M103.95 31.9292C103.241 31.9292 102.667 32.5038 102.667 33.2126C102.667 33.9213 103.241 34.4959 103.95 34.4959C104.659 34.4959 105.233 33.9213 105.233 33.2126C105.233 32.5038 104.659 31.9292 103.95 31.9292Z" fill="#35374A"/>
</g>
<defs>
<clipPath id="clip0">
<rect width="154" height="154" fill="white"/>
</clipPath>
</defs>
</svg>
