<?xml version="1.0" encoding="UTF-8"?>
<svg width="20px" height="20px" viewBox="0 0 20 20" version="1.1" xmlns="http://www.w3.org/2000/svg" xmlns:xlink="http://www.w3.org/1999/xlink">
    <!-- Generator: Sketch 46.2 (44496) - http://www.bohemiancoding.com/sketch -->
    <title>blank</title>
    <desc>Created with Sketch.</desc>
    <defs>
        <path d="M12.3031818,2.63636364 C11.9677273,1.68727273 11.0677273,1 10,1 C8.93227273,1 8.03227273,1.68727273 7.69681818,2.63636364 L4.63471569,2.63636364 C3.73062478,2.63636364 2.99835205,3.36863636 2.99835205,4.27272727 L2.99835205,17.3636364 C2.99835205,18.2677273 3.73062478,19 4.63471569,19 L15.3600353,19 C16.2641262,19 16.9963989,18.2677273 16.9963989,17.3636364 L16.9963989,4.27272727 C16.9963989,3.36863636 16.2641262,2.63636364 15.3600353,2.63636364 L12.3031818,2.63636364 Z M10.8181818,3.45454545 C10.8181818,3.90863636 10.45,4.27272727 10,4.27272727 C9.55,4.27272727 9.18181818,3.90863636 9.18181818,3.45454545 C9.18181818,3.00045455 9.55,2.63636364 10,2.63636364 C10.45,2.63636364 10.8181818,3.00045455 10.8181818,3.45454545 Z" id="path-1"></path>
    </defs>
    <g id="Symbols" stroke="none" stroke-width="1" fill="none" fill-rule="evenodd">
        <g id="blank">
            <mask id="mask-2" fill="white">
                <use xlink:href="#path-1"></use>
            </mask>
            <use fill="#000000" xlink:href="#path-1"></use>
        </g>
    </g>
</svg>