<?xml version="1.0" encoding="UTF-8"?>
<svg width="20px" height="20px" viewBox="0 0 20 20" version="1.1" xmlns="http://www.w3.org/2000/svg" xmlns:xlink="http://www.w3.org/1999/xlink">
    <!-- Generator: Sketch 55.2 (78181) - https://sketchapp.com -->
    <title>2. Style/Icons/Informational/branching</title>
    <desc>Created with Sketch.</desc>
    <defs>
        <path d="M10.5294118,15.7058824 L10,15.7058824 L10,13.7058824 L10.5294118,13.7058824 L10.5294118,12.5294118 L10,12.5294118 L10,10.5294118 L11,10.5294118 L11,12.3081771 C12.2356655,11.9058826 13.1950475,11.9058826 13.6537355,11.9058826 C15.3968237,11.9058826 18.8949121,12.8215328 18.8949121,14.5654152 L18.8949121,16.6705884 L10.5294118,16.6705884 L10.5294118,15.7058824 Z M16.0257649,7.61764713 C16.0257649,8.93270599 14.9680002,10.0000001 13.6537355,10.0000001 C12.3386766,10.0000001 11.2713824,8.93270599 11.2713824,7.61764713 C11.2713824,6.30258827 12.3386766,5.23529412 13.6537355,5.23529412 C14.9680002,5.23529412 16.0257649,6.30258827 16.0257649,7.61764713 Z M14.9669414,7.61764713 C14.9669414,6.88429336 14.3801622,6.29411765 13.6537355,6.29411765 C12.9234487,6.29411765 12.330206,6.88736036 12.330206,7.61764713 C12.330206,8.34793391 12.9234487,8.94117661 13.6537355,8.94117661 C14.3801622,8.94117661 14.9669414,8.3510009 14.9669414,7.61764713 Z M11.5882353,13.2310652 L11.5882353,15.6117649 L17.8360886,15.6117649 L17.8360886,14.5654152 C17.8360886,13.9227412 15.4942439,12.9647061 13.6537355,12.9647061 C12.910193,12.9647061 12.2945923,13.0238387 11.5882353,13.2310652 Z M10,1 L11,1 L11,3 L10,3 L10,1 Z M10,4.17647059 L11,4.17647059 L11,6.17647059 L10,6.17647059 L10,4.17647059 Z M10,7.35294118 L11,7.35294118 L11,9.35294118 L10,9.35294118 L10,7.35294118 Z M10,16.8823529 L11,16.8823529 L11,18.8823529 L10,18.8823529 L10,16.8823529 Z M3.86914715,7.61764713 C3.86914715,6.30258827 4.92691188,5.23529412 6.24117663,5.23529412 C7.55623549,5.23529412 8.62352964,6.30258827 8.62352964,7.61764713 C8.62352964,8.93270599 7.55623549,10.0000001 6.24117663,10.0000001 C4.92691188,10.0000001 3.86914715,8.93270599 3.86914715,7.61764713 Z M9.36550032,16.6705884 L1,16.6705884 L1,14.5654152 C1,12.8215328 4.49808834,11.9058826 6.24117663,11.9058826 C6.75657785,11.9058826 7.90414121,11.9058826 9.36550032,12.4766094 C9.36550032,12.6470588 9.36550032,15.8235294 9.36550032,16.6705884 Z" id="path-1"></path>
    </defs>
    <g id="2.-Style/Icons/Informational/branching" stroke="none" stroke-width="1" fill="none" fill-rule="evenodd">
        <mask id="mask-2" fill="white">
            <use xlink:href="#path-1"></use>
        </mask>
        <use id="Mask" fill="#000000" fill-rule="nonzero" xlink:href="#path-1"></use>
    </g>
</svg>