<?xml version="1.0" encoding="UTF-8"?>
<svg width="20px" height="20px" viewBox="0 0 20 20" version="1.1" xmlns="http://www.w3.org/2000/svg" xmlns:xlink="http://www.w3.org/1999/xlink">
    <!-- Generator: Sketch 56.3 (81716) - https://sketch.com -->
    <title>photo-upload icon</title>
    <desc>Created with Sketch.</desc>
    <defs>
        <path d="M2.25,2.25 L2.25,0 L3.75,0 L3.75,2.25 L6,2.25 L6,3.75 L3.75,3.75 L3.75,6 L2.25,6 L2.25,3.75 L0,3.75 L0,2.25 L2.25,2.25 Z M4.5,6.75 L4.5,4.5 L6.75,4.5 L6.75,2.25 L12,2.25 L13.3725,3.75 L15.75,3.75 C16.575,3.75 17.25,4.425 17.25,5.25 L17.25,14.25 C17.25,15.075 16.575,15.75 15.75,15.75 L3.75,15.75 C2.925,15.75 2.25,15.075 2.25,14.25 L2.25,6.75 L4.5,6.75 Z M9.75,13.5 C11.82,13.5 13.5,11.82 13.5,9.75 C13.5,7.68 11.82,6 9.75,6 C7.68,6 6,7.68 6,9.75 C6,11.82 7.68,13.5 9.75,13.5 Z M7.35,9.75 C7.35,11.0775 8.4225,12.15 9.75,12.15 C11.0775,12.15 12.15,11.0775 12.15,9.75 C12.15,8.4225 11.0775,7.35 9.75,7.35 C8.4225,7.35 7.35,8.4225 7.35,9.75 Z" id="path-1"></path>
    </defs>
    <g id="photo-upload-icon" stroke="none" stroke-width="1" fill="none" fill-rule="evenodd">
        <g id="2.-Style/Icons/Actions/photo-upload">
            <g id="photo-upload" transform="translate(1.000000, 2.000000)">
                <mask id="mask-2" fill="white">
                    <use xlink:href="#path-1"></use>
                </mask>
                <use id="Mask" fill="#000000" fill-rule="nonzero" xlink:href="#path-1"></use>
            </g>
        </g>
    </g>
</svg>