<svg width="20" height="20" viewBox="0 0 20 20" fill="none" xmlns="http://www.w3.org/2000/svg">
<path d="M7.0942 11.18C6.3809 11.18 5.77228 10.9318 5.26832 10.4354C4.76436 9.9389 4.51238 9.33934 4.51238 8.63666C4.51238 7.93399 4.76436 7.33443 5.26832 6.83797C5.77228 6.34152 6.3809 6.09329 7.0942 6.09329C7.8075 6.09329 8.41613 6.34152 8.92009 6.83797C9.42405 7.33443 9.67603 7.93399 9.67603 8.63666C9.67603 9.33934 9.42405 9.9389 8.92009 10.4354C8.41613 10.9318 7.8075 11.18 7.0942 11.18Z" fill="black"/>
<path fill-rule="evenodd" clip-rule="evenodd" d="M2.18641 17C1.58166 17 1.06607 16.79 0.639641 16.3699C0.213214 15.9498 0 15.4419 0 14.8462V5.17676C0 4.58101 0.213214 4.06929 0.639641 3.64157C1.06607 3.21386 1.58166 3 2.18641 3H11.7903C12.3951 3 12.9145 3.21386 13.3487 3.64157C13.7829 4.06929 14 4.58101 14 5.17676V14.8462C14 15.4419 13.7829 15.9498 13.3487 16.3699C12.9145 16.79 12.3951 17 11.7903 17H2.18641ZM2 14.4013C3.27058 12.9195 5.04137 12 7 12C8.95863 12 10.7294 12.9195 12 14.4013V5H2V14.4013Z" fill="black"/>
<path d="M15 3H17V17H15V3Z" fill="black"/>
<path d="M20 3H18V17H20V3Z" fill="black"/>
</svg>

