<?xml version="1.0" encoding="UTF-8"?>
<svg width="20px" height="20px" viewBox="0 0 20 20" version="1.1" xmlns="http://www.w3.org/2000/svg" xmlns:xlink="http://www.w3.org/1999/xlink">
    <!-- Generator: Sketch 47.1 (45422) - http://www.bohemiancoding.com/sketch -->
    <title>date-end-white</title>
    <desc>Created with Sketch.</desc>
    <defs>
        <path d="M13.5570004,1.11111111 L13.5570004,2.88911118 L6.44500017,2.88911118 L6.44500017,1.11111111 L4.6670001,1.11111111 L4.6670001,2.88911118 L3.77800007,2.88911118 C2.79565503,2.88911118 2.00889,3.68476621 2.00889,4.66711125 L2,17.1131117 C2,18.0954568 2.79565503,18.8911118 3.77800007,18.8911118 L16.2240005,18.8911118 C17.2063456,18.8911118 18.0020006,18.0954568 18.0020006,17.1131117 L18.0020006,4.66711125 C18.0020006,3.68476621 17.2063456,2.88911118 16.2240005,2.88911118 L15.3350005,2.88911118 L15.3350005,1.11111111 L13.5570004,1.11111111 L13.5570004,1.11111111 Z" id="path-1"></path>
    </defs>
    <g id="Symbols" stroke="none" stroke-width="1" fill="none" fill-rule="evenodd">
        <g id="date-end-white">
            <mask id="mask-2" fill="white">
                <use xlink:href="#path-1"></use>
            </mask>
            <use id="Icons/Actions/date-end" fill="#000000" xlink:href="#path-1"></use>
            <polygon id="Path" fill="#FFFFFF" points="16.2240005 17.1131117 3.77800007 17.1131117 3.77800007 7.33411135 16.2240005 7.33411135"></polygon>
            <polygon id="Path" fill="#000000" points="14.4460005 10.8901115 10.0010003 10.8901115 10.0010003 15.3351117 14.4460005 15.3351117"></polygon>
        </g>
    </g>
</svg>