<?xml version="1.0" encoding="UTF-8"?>
<svg width="20" height="14" viewBox="0 0 20 14" fill="none" xmlns="http://www.w3.org/2000/svg">
    <path d="M9.99995 8.4C11.9016 8.4 13.2029 8.77226 13.5466 8.925C14.8066 9.485 15.6 10.745 15.6 12.11V14H4.39995V12.1217C4.39995 10.745 5.19328 9.485 6.45328 8.93667C6.70378 8.82766 8.09828 8.4 9.99995 8.4ZM16.5333 8.16667C17.8166 8.16667 18.8666 7.11667 18.8666 5.83333C18.8666 4.55 17.8166 3.5 16.5333 3.5C15.25 3.5 14.2 4.55 14.2 5.83333C14.2 7.11667 15.25 8.16667 16.5333 8.16667ZM19.8 12.1683C19.8 11.2233 19.1 10.5 18.3766 10.01C17.4921 9.45 16.9474 9.39842 16.5333 9.33333C16.0838 9.26268 15.6466 9.38 15.215 9.45C15.6816 10.2433 16.0637 11.1417 16.0637 12.11V13.9883L19.8 14V12.1683ZM9.99995 0C11.9366 0 13.5 1.56333 13.5 3.5C13.5 5.43667 11.9366 7 9.99995 7C8.06328 7 6.49995 5.43667 6.49995 3.5C6.49995 1.56333 8.06328 0 9.99995 0Z" fill="#000000"/>
    <path d="M1.13329 5.83333C1.13329 7.11667 2.18329 8.16667 3.46662 8.16667C4.74995 8.16667 5.79995 7.11667 5.79995 5.83333C5.79995 4.55 4.74995 3.5 3.46662 3.5C2.18329 3.5 1.13329 4.55 1.13329 5.83333Z" fill="#000000"/>
    <path d="M1.62328 10.01C0.899951 10.5 0.199951 11.2233 0.199951 12.1683V14H3.92V12.1217C3.92 11.1533 4.31828 10.2433 4.78495 9.45C4.35328 9.38 3.9161 9.26268 3.46662 9.33333C3.05255 9.39842 2.50776 9.45 1.62328 10.01Z" fill="#000000"/>
</svg>
