<?xml version="1.0" encoding="UTF-8"?>
<svg width="20px" height="20px" viewBox="0 0 20 20" version="1.1" xmlns="http://www.w3.org/2000/svg" xmlns:xlink="http://www.w3.org/1999/xlink">
    <!-- Generator: Sketch 47.1 (45422) - http://www.bohemiancoding.com/sketch -->
    <title>draft-white</title>
    <desc>Created with Sketch.</desc>
    <defs>
        <path d="M15.3764537,2.63636364 C16.2764537,2.63636364 17.0128174,3.37272727 17.0128174,4.27272727 L17.0128174,17.3636364 C17.0128174,18.2636364 16.2764537,19 15.3764537,19 L4.63148082,19 C3.73148082,19 2.99511719,18.2636364 2.99511719,17.3636364 L2.99511719,4.27272727 C2.99511719,3.37272727 3.73148082,2.63636364 4.63148082,2.63636364 L7.69272727,2.63636364 C8.03636364,1.68727273 8.93636364,1 10,1 C11.0636364,1 11.9636364,1.68727273 12.3072727,2.63636364 L15.3764537,2.63636364 Z M10.8181818,3.45454545 C10.8181818,3.90454545 10.45,4.27272727 10,4.27272727 C9.55,4.27272727 9.18181818,3.90454545 9.18181818,3.45454545 C9.18181818,3.00454545 9.55,2.63636364 10,2.63636364 C10.45,2.63636364 10.8181818,3.00454545 10.8181818,3.45454545 Z" id="path-1"></path>
    </defs>
    <g id="Symbols" stroke="none" stroke-width="1" fill="none" fill-rule="evenodd">
        <g id="draft-white">
            <mask id="mask-2" fill="white">
                <use xlink:href="#path-1"></use>
            </mask>
            <use id="Icons/Surveys/survey-draft" fill="#000000" xlink:href="#path-1"></use>
            <polygon id="Path" fill="#FFFFFF" points="11.1503636 8.80054545 6.337 13.2432727 6.337 14.9090909 8.14190909 14.9090909 12.9552727 10.4663636"></polygon>
            <path d="M13.2547273,7.48736364 C13.0665455,7.31390909 12.7605455,7.31390909 12.5731818,7.48736364 L11.6314545,8.35627273 L13.4371818,10.0220909 L14.3780909,9.15318182 C14.5654545,8.97972727 14.5654545,8.69827273 14.3780909,8.52481818 L13.2547273,7.48736364 Z" id="Path" fill="#FFFFFF"></path>
        </g>
    </g>
</svg>