<?xml version="1.0" encoding="UTF-8"?>
<svg width="20px" height="20px" viewBox="0 0 20 20" version="1.1" xmlns="http://www.w3.org/2000/svg" xmlns:xlink="http://www.w3.org/1999/xlink">
    <!-- Generator: Sketch 46.2 (44496) - http://www.bohemiancoding.com/sketch -->
    <title>effectiveness</title>
    <desc>Created with Sketch.</desc>
    <defs>
        <path d="M9.99952176,10.8469632 L3.55093257,10.832616 L4.50645624,17.1645146 C4.66044955,18.2099474 5.3615495,18.9856528 6.41941655,18.9856528 L9.99952176,19 L13.579627,18.9856528 C14.6365375,18.9856528 15.338594,18.2099474 15.4925873,17.1645146 L16.4490674,10.832616 L9.99952176,10.8469632 Z M9.04304161,6.98373984 L9.04304161,9.97082736 L10.9560019,9.97082736 L10.9560019,6.85461502 C12.9473936,6.2386418 14.3868962,4.56671449 14.3868962,2.57914873 C12.5007174,2.57914873 10.8727881,3.50789096 9.99569584,4.87087518 C8.9904352,2.6049737 6.52080344,1 3.62745098,1 C3.62745098,3.93926351 5.94882831,6.39359158 9.04304161,6.98373984 L9.04304161,6.98373984 Z" id="path-1"></path>
    </defs>
    <g id="Symbols" stroke="none" stroke-width="1" fill="none" fill-rule="evenodd">
        <g id="effectiveness">
            <mask id="mask-2" fill="white">
                <use xlink:href="#path-1"></use>
            </mask>
            <use fill="#000000" xlink:href="#path-1"></use>
        </g>
    </g>
</svg>