<?xml version="1.0" encoding="UTF-8"?>
<svg width="20px" height="20px" viewBox="0 0 20 20" version="1.1" xmlns="http://www.w3.org/2000/svg" xmlns:xlink="http://www.w3.org/1999/xlink">
    <!-- Generator: Sketch 46.2 (44496) - http://www.bohemiancoding.com/sketch -->
    <title>file</title>
    <desc>Created with Sketch.</desc>
    <defs>
        <path d="M11.6129874,2 L16.0022147,6.65713501 L16.0022147,16.4 C16.0022147,17.284 15.2862147,18 14.4022147,18 L5.58978528,18 C4.70578528,18 3.99778528,17.284 3.99778528,16.4 L4.00578528,3.6 C4.00578528,2.716 4.71378528,2 5.59778528,2 L11.6129874,2 Z M10.8129874,7.6 L15.2129874,7.6 L10.8129874,3.2 L10.8129874,7.6 Z M6.81298743,11.6 L13.2129874,11.6 L13.2129874,10 L6.81298743,10 L6.81298743,11.6 Z M6.81298743,14.8 L13.2129874,14.8 L13.2129874,13.2 L6.81298743,13.2 L6.81298743,14.8 Z" id="path-1"></path>
    </defs>
    <g id="Symbols" stroke="none" stroke-width="1" fill="none" fill-rule="evenodd">
        <g id="file">
            <mask id="mask-2" fill="white">
                <use xlink:href="#path-1"></use>
            </mask>
            <use id="Combined-Shape" fill="#000000" xlink:href="#path-1"></use>
        </g>
    </g>
</svg>