<?xml version="1.0" encoding="UTF-8"?>
<svg width="20px" height="20px" viewBox="0 0 20 20" version="1.1" xmlns="http://www.w3.org/2000/svg" xmlns:xlink="http://www.w3.org/1999/xlink">
    <!-- Generator: Sketch 46.2 (44496) - http://www.bohemiancoding.com/sketch -->
    <title>filter</title>
    <desc>Created with Sketch.</desc>
    <defs>
        <path d="M2,14.4444444 L2,16.2222222 L7.33333333,16.2222222 L7.33333333,14.4444444 L2,14.4444444 Z M2,3.77777778 L2,5.55555556 L10.8888889,5.55555556 L10.8888889,3.77777778 L2,3.77777778 Z M10.8888889,18 L10.8888889,16.2222222 L18,16.2222222 L18,14.4444444 L10.8888889,14.4444444 L10.8888889,12.6666667 L9.11111111,12.6666667 L9.11111111,18 L10.8888889,18 Z M5.55555556,7.33333333 L5.55555556,9.11111111 L2,9.11111111 L2,10.8888889 L5.55555556,10.8888889 L5.55555556,12.6666667 L7.33333333,12.6666667 L7.33333333,7.33333333 L5.55555556,7.33333333 Z M18,10.8888889 L18,9.11111111 L9.11111111,9.11111111 L9.11111111,10.8888889 L18,10.8888889 Z M12.6666667,7.33333333 L14.4444444,7.33333333 L14.4444444,5.55555556 L18,5.55555556 L18,3.77777778 L14.4444444,3.77777778 L14.4444444,2 L12.6666667,2 L12.6666667,7.33333333 Z" id="path-1"></path>
    </defs>
    <g id="Symbols" stroke="none" stroke-width="1" fill="none" fill-rule="evenodd">
        <g id="filter">
            <mask id="mask-2" fill="white">
                <use xlink:href="#path-1"></use>
            </mask>
            <use fill="#000000" fill-rule="nonzero" xlink:href="#path-1"></use>
        </g>
    </g>
</svg>
