<?xml version="1.0" encoding="UTF-8"?>
<svg width="20px" height="20px" viewBox="0 0 20 20" version="1.1" xmlns="http://www.w3.org/2000/svg" xmlns:xlink="http://www.w3.org/1999/xlink">
    <!-- Generator: Sketch 53.2 (72643) - https://sketchapp.com -->
    <title>2. Style/Icons/Informational/guidance</title>
    <desc>Created with Sketch.</desc>
    <defs>
        <path d="M7.2,17.2 C7.2,17.64 7.56,18 8,18 L11.2,18 C11.64,18 12,17.64 12,17.2 L12,16.4 L7.2,16.4 L7.2,17.2 Z M9.6,2 C6.512,2 4,4.512 4,7.6 C4,9.504 4.952,11.176 6.4,12.192 L6.4,14 C6.4,14.44 6.76,14.8 7.2,14.8 L12,14.8 C12.44,14.8 12.8,14.44 12.8,14 L12.8,12.192 C14.248,11.176 15.2,9.504 15.2,7.6 C15.2,4.512 12.688,2 9.6,2 Z M11.88,10.88 L11.2,11.36 L11.2,13.2 L8,13.2 L8,11.36 L7.32,10.88 C6.24,10.128 5.6,8.904 5.6,7.6 C5.6,5.392 7.392,3.6 9.6,3.6 C11.808,3.6 13.6,5.392 13.6,7.6 C13.6,8.904 12.96,10.128 11.88,10.88 Z" id="path-1"></path>
    </defs>
    <g id="2.-Style/Icons/Informational/guidance" stroke="none" stroke-width="1" fill="none" fill-rule="evenodd">
        <mask id="mask-2" fill="white">
            <use xlink:href="#path-1"></use>
        </mask>
        <use id="Shape" fill="#000000" fill-rule="nonzero" xlink:href="#path-1"></use>
    </g>
</svg>