<?xml version="1.0" encoding="UTF-8"?>
<svg width="20px" height="20px" viewBox="0 0 20 20" version="1.1" xmlns="http://www.w3.org/2000/svg" xmlns:xlink="http://www.w3.org/1999/xlink">
    <!-- Generator: Sketch 46.2 (44496) - http://www.bohemiancoding.com/sketch -->
    <title>log-out</title>
    <desc>Created with Sketch.</desc>
    <defs>
        <path d="M9.55555556,13.6666667 L14,9.5 L9.55555556,5.33333333 L8.30222222,6.50833333 L10.5955556,8.66666667 L2,8.66666667 L2,10.3333333 L10.5955556,10.3333333 L8.30222222,12.4916667 L9.55555556,13.6666667 Z M3.77777778,2 C2.79111111,2 2,2.75 2,3.66666667 L2,7 L3.77777778,7 L3.77777778,3.66666667 L16.2222222,3.66666667 L16.2222222,15.3333333 L3.77777778,15.3333333 L3.77777778,12 L2,12 L2,15.3333333 C2,16.25 2.79111111,17 3.77777778,17 L16.2222222,17 C17.2,17 18,16.25 18,15.3333333 L18,3.66666667 C18,2.75 17.2,2 16.2222222,2 L3.77777778,2 Z" id="path-1"></path>
    </defs>
    <g id="Symbols" stroke="none" stroke-width="1" fill="none" fill-rule="evenodd">
        <g id="log-out">
            <mask id="mask-2" fill="white">
                <use xlink:href="#path-1"></use>
            </mask>
            <use id="Icons/Actions/log-out" fill="#000000" xlink:href="#path-1"></use>
        </g>
    </g>
</svg>