<?xml version="1.0" encoding="UTF-8"?>
<svg width="20px" height="20px" viewBox="0 0 20 20" version="1.1" xmlns="http://www.w3.org/2000/svg" xmlns:xlink="http://www.w3.org/1999/xlink">
    <!-- Generator: Sketch 47.1 (45422) - http://www.bohemiancoding.com/sketch -->
    <title>question-white</title>
    <desc>Created with Sketch.</desc>
    <defs>
        <path d="M10,2 C5.584,2 2,5.584 2,10 C2,14.416 5.584,18 10,18 C14.4152,18 18,14.416 18,10 C18,5.584 14.4152,2 10,2 L10,2 Z" id="path-1"></path>
    </defs>
    <g id="Symbols" stroke="none" stroke-width="1" fill="none" fill-rule="evenodd">
        <g id="question-white">
            <mask id="mask-2" fill="white">
                <use xlink:href="#path-1"></use>
            </mask>
            <use id="Icons/Informational/question" fill="#000000" xlink:href="#path-1"></use>
            <path d="M12.456,9.4 L11.736,10.136 C11.16,10.72 10.8,11.2 10.8,12.4 L9.2,12.4 L9.2,12 C9.2,11.12 9.56,10.32 10.136,9.736 L11.128,8.728 C11.424,8.44 11.6,8.04 11.6,7.6 C11.6,6.72 10.8792,6 10,6 C9.12,6 8.4,6.72 8.4,7.6 L6.8,7.6 C6.8,5.832 8.232,4.4 10,4.4 C11.768,4.4 13.2,5.832 13.2,7.6 C13.2,8.304 12.912,8.944 12.456,9.4 L12.456,9.4 Z" id="Path" fill="#FFFFFF"></path>
            <polygon id="Path" fill="#FFFFFF" points="9.2 15.6 10.8 15.6 10.8 14 9.2 14"></polygon>
        </g>
    </g>
</svg>