<?xml version="1.0" encoding="UTF-8"?>
<svg width="20px" height="20px" viewBox="0 0 20 20" version="1.1" xmlns="http://www.w3.org/2000/svg" xmlns:xlink="http://www.w3.org/1999/xlink">
    <!-- Generator: Sketch 54.1 (76490) - https://sketchapp.com -->
    <title>2. Style/Icons/Zugata/save</title>
    <desc>Created with Sketch.</desc>
    <defs>
        <path d="M14.4444444,2 L3.77777778,2 C2.79111111,2 2,2.8 2,3.77777778 L2,16.2222222 C2,17.2 2.79111111,18 3.77777778,18 L16.2222222,18 C17.2,18 18,17.2 18,16.2222222 L18,5.55555556 L14.4444444,2 Z M10,16.2222222 C8.52444444,16.2222222 7.33333333,15.0311111 7.33333333,13.5555556 C7.33333333,12.08 8.52444444,10.8888889 10,10.8888889 C11.4755556,10.8888889 12.6666667,12.08 12.6666667,13.5555556 C12.6666667,15.0311111 11.4755556,16.2222222 10,16.2222222 Z M12.6666667,7.33333333 L3.77777778,7.33333333 L3.77777778,3.77777778 L12.6666667,3.77777778 L12.6666667,7.33333333 Z" id="path-1"></path>
    </defs>
    <g id="2.-Style/Icons/Zugata/save" stroke="none" stroke-width="1" fill="none" fill-rule="evenodd">
        <mask id="mask-2" fill="white">
            <use xlink:href="#path-1"></use>
        </mask>
        <use id="Icons/Zugata/save" fill="#000000" fill-rule="nonzero" xlink:href="#path-1"></use>
    </g>
</svg>