<?xml version="1.0" encoding="UTF-8"?>
<svg width="20px" height="20px" viewBox="0 0 20 20" version="1.1" xmlns="http://www.w3.org/2000/svg" xmlns:xlink="http://www.w3.org/1999/xlink">
    <!-- Generator: Sketch 47.1 (45422) - http://www.bohemiancoding.com/sketch -->
    <title>search-white</title>
    <desc>Created with Sketch.</desc>
    <defs>
        <path d="M13.4351058,12.0628931 L12.7124071,12.0628931 L12.4562607,11.8158948 C13.352773,10.7730132 13.89251,9.41909663 13.89251,7.946255 C13.89251,4.66209262 11.2304174,2 7.946255,2 C4.66209262,2 2,4.66209262 2,7.946255 C2,11.2304174 4.66209262,13.89251 7.946255,13.89251 C9.41909663,13.89251 10.7730132,13.352773 11.8158948,12.4562607 L12.0628931,12.7124071 L12.0628931,13.4351058 L16.6369354,18 L18,16.6369354 L13.4351058,12.0628931 Z" id="path-1"></path>
    </defs>
    <g id="Symbols" stroke="none" stroke-width="1" fill="none" fill-rule="evenodd">
        <g id="search-white">
            <mask id="mask-2" fill="white">
                <use xlink:href="#path-1"></use>
            </mask>
            <use id="Icons/Actions/search" fill="#000000" xlink:href="#path-1"></use>
            <path d="M7.946255,12.0628931 C5.66838193,12.0628931 3.82961692,10.2241281 3.82961692,7.946255 C3.82961692,5.66838193 5.66838193,3.82961692 7.946255,3.82961692 C10.2241281,3.82961692 12.0628931,5.66838193 12.0628931,7.946255 C12.0628931,10.2241281 10.2241281,12.0628931 7.946255,12.0628931 L7.946255,12.0628931 Z" id="Path" fill="#FFFFFF"></path>
        </g>
    </g>
</svg>