<?xml version="1.0" encoding="UTF-8"?>
<svg width="20px" height="20px" viewBox="0 0 20 20" version="1.1" xmlns="http://www.w3.org/2000/svg" xmlns:xlink="http://www.w3.org/1999/xlink">
    <!-- Generator: Sketch 46.2 (44496) - http://www.bohemiancoding.com/sketch -->
    <title>sync</title>
    <desc>Created with Sketch.</desc>
    <defs>
        <path d="M3.63769491,6.36493222 L7.27461037,10.0026271 L4.54653405,10.0026271 C4.54653405,13.012085 6.99322878,15.4587798 10.0026867,15.4587798 C10.9216587,15.4587798 11.7946431,15.2311803 12.5491511,14.8219688 L13.8773345,16.1493728 C12.7580438,16.8586726 11.4306398,17.2772375 10.0026867,17.2772375 C5.98384055,17.2772375 2.72807632,14.0214733 2.72807632,10.0026271 L0,10.0026271 L3.63769491,6.36493222 Z M15.4588393,10.0026271 C15.4588393,6.99238977 13.012924,4.54647449 10.0026867,4.54647449 C9.08449415,4.54647449 8.21150972,4.77329455 7.45622231,5.182506 L6.12881832,3.855102 C7.24732961,3.14580216 8.57551305,2.72723731 10.0026867,2.72723731 C14.0223123,2.72723731 17.2780765,5.98300153 17.2780765,10.0026271 L20.0061528,10.0026271 L16.3684579,13.6395426 L12.730763,10.0026271 L15.4588393,10.0026271 Z" id="path-1"></path>
    </defs>
    <g id="Symbols" stroke="none" stroke-width="1" fill="none" fill-rule="evenodd">
        <g id="sync">
            <mask id="mask-2" fill="white">
                <use xlink:href="#path-1"></use>
            </mask>
            <use id="Icons/Actions/sync" fill="#000000" xlink:href="#path-1"></use>
        </g>
    </g>
</svg>