<?xml version="1.0" encoding="UTF-8"?>
<svg width="20px" height="20px" viewBox="0 0 20 20" version="1.1" xmlns="http://www.w3.org/2000/svg" xmlns:xlink="http://www.w3.org/1999/xlink">
    <!-- Generator: Sketch 46.2 (44496) - http://www.bohemiancoding.com/sketch -->
    <title>template</title>
    <desc>Created with Sketch.</desc>
    <defs>
        <path d="M12.3072727,2.63636364 L15.3683971,2.63636364 C16.2683971,2.63636364 17.0047607,3.37272727 17.0047607,4.27272727 L17.0047607,17.3636364 C17.0047607,18.2636364 16.2683971,19 15.3683971,19 L4.64088024,19 C3.74088024,19 3.0045166,18.2636364 3.0045166,17.3636364 L3.0045166,4.27272727 C3.0045166,3.37272727 3.74088024,2.63636364 4.64088024,2.63636364 L7.69272727,2.63636364 C8.03636364,1.68727273 8.93636364,1 10,1 C11.0636364,1 11.9636364,1.68727273 12.3072727,2.63636364 Z M12.0054016,11.2730909 L13.4601289,11.2730909 L13.4601289,9.81836364 L12.0054016,9.81836364 L12.0054016,11.2730909 Z M9.18181818,3.45454545 C9.18181818,3.90454545 9.55,4.27272727 10,4.27272727 C10.45,4.27272727 10.8181818,3.90454545 10.8181818,3.45454545 C10.8181818,3.00454545 10.45,2.63636364 10,2.63636364 C9.55,2.63636364 9.18181818,3.00454545 9.18181818,3.45454545 Z M9.28836996,11.2730909 L10.7422791,11.2730909 L10.7422791,9.81836364 L9.28836996,9.81836364 L9.28836996,11.2730909 Z M6.54286184,11.2730909 L7.99758911,11.2730909 L7.99758911,9.81836364 L6.54286184,9.81836364 L6.54286184,11.2730909 Z" id="path-1"></path>
    </defs>
    <g id="Symbols" stroke="none" stroke-width="1" fill="none" fill-rule="evenodd">
        <g id="template">
            <mask id="mask-2" fill="white">
                <use xlink:href="#path-1"></use>
            </mask>
            <use fill="#000000" xlink:href="#path-1"></use>
        </g>
    </g>
</svg>