<?xml version="1.0" encoding="UTF-8"?>
<svg width="20px" height="20px" viewBox="0 0 20 20" version="1.1" xmlns="http://www.w3.org/2000/svg" xmlns:xlink="http://www.w3.org/1999/xlink">
    <!-- Generator: Sketch 48.2 (47327) - http://www.bohemiancoding.com/sketch -->
    <title>icon/text_analytics_beta</title>
    <desc>Created with Sketch.</desc>
    <defs></defs>
    <g id="Symbols" stroke="none" stroke-width="1" fill="none" fill-rule="evenodd">
        <g id="icon/text_analytics_beta" fill="#000000">
            <g id="Icon" transform="translate(2.000000, 2.000000)">
                <path d="M1.5696,0 L14.3872,0 C15.2592,0 15.9568,0.6976 16,1.5696 L16,12.1608 C16,13.076 15.2592,13.7736 14.3872,13.7736 L3.1832,13.7736 L0,17 L0,1.6128 C0,0.6976 0.6976,0 1.5696,0 Z M6,8 C7.65685425,8 9,6.65685425 9,5 C9,3.34314575 7.65685425,2 6,2 C4.34314575,2 3,3.34314575 3,5 C3,6.65685425 4.34314575,8 6,8 Z M12,8 C13.1045695,8 14,7.1045695 14,6 C14,4.8954305 13.1045695,4 12,4 C10.8954305,4 10,4.8954305 10,6 C10,7.1045695 10.8954305,8 12,8 Z M8.5,12 C9.32842712,12 10,11.3284271 10,10.5 C10,9.67157288 9.32842712,9 8.5,9 C7.67157288,9 7,9.67157288 7,10.5 C7,11.3284271 7.67157288,12 8.5,12 Z" id="Icons/Navigational/Effectiveness/feedback-classify"></path>
            </g>
        </g>
    </g>
</svg>