<?xml version="1.0" encoding="UTF-8"?>
<svg width="20px" height="20px" viewBox="0 0 20 20" version="1.1" xmlns="http://www.w3.org/2000/svg" xmlns:xlink="http://www.w3.org/1999/xlink">
    <!-- Generator: Sketch 46.2 (44496) - http://www.bohemiancoding.com/sketch -->
    <title>like</title>
    <desc>Created with Sketch.</desc>
    <defs>
        <path d="M5.22833316,16.8166669 L5.22833316,8.63666662 L2.50166639,8.63666662 L2.50166639,16.8166669 L5.22833316,16.8166669 Z M16.1350002,7.95499992 L11.8336834,7.95499992 L12.4812668,4.83978314 L12.5017168,4.6216498 C12.5017168,4.34216646 12.3858334,4.08313311 12.2017834,3.89908311 L11.4792167,3.18333308 L6.99384989,7.67551658 C6.74163321,7.92091659 6.59166654,8.26174994 6.59166654,8.63666662 L6.59166654,15.4533335 C6.59166654,16.2031669 7.20516656,16.8166669 7.95499992,16.8166669 L14.0900002,16.8166669 C14.6557835,16.8166669 15.1397669,16.4758336 15.3442669,15.9850336 L17.4029003,11.1792834 C17.4642503,11.0225 17.4983336,10.8589 17.4983336,10.6816667 L17.4983336,9.37968331 L17.4983336,9.31833331 C17.4983336,8.56849995 16.8848336,7.95499992 16.1350002,7.95499992 Z" id="path-1"></path>
    </defs>
    <g id="Symbols" stroke="none" stroke-width="1" fill="none" fill-rule="evenodd">
        <g id="like">
            <mask id="mask-2" fill="white">
                <use xlink:href="#path-1"></use>
            </mask>
            <use id="Icons/Sentiment/like" fill="#000000" xlink:href="#path-1"></use>
        </g>
    </g>
</svg>