<?xml version="1.0" encoding="UTF-8"?>
<svg width="20px" height="20px" viewBox="0 0 20 20" version="1.1" xmlns="http://www.w3.org/2000/svg" xmlns:xlink="http://www.w3.org/1999/xlink">
    <!-- Generator: Sketch 46.2 (44496) - http://www.bohemiancoding.com/sketch -->
    <title>unattributed</title>
    <desc>Created with Sketch.</desc>
    <defs>
        <path d="M17.4974032,3.14499998 C18.3224505,3.14499998 18.9972438,3.83058996 18.9972438,4.66823335 L18.9891462,15.3317667 C18.9891462,16.1703098 18.3224505,16.855 17.4974032,16.855 L2.50259678,16.855 C1.67754952,16.855 1.00275624,16.1703098 1.00275624,15.3317667 L1.00275624,4.66823335 C1.00275624,3.83058996 1.67754952,3.14499998 2.50259678,3.14499998 L17.4974032,3.14499998 Z M7.00121866,5.4302999 C5.75600012,5.4302999 4.75190772,6.45058734 4.75190772,7.71559981 C4.75190772,8.97971256 5.75600012,10 7.00121866,10 C8.24553747,10 9.25052959,8.97971256 9.25052959,7.71559981 C9.25052959,6.45058734 8.24553747,5.4302999 7.00121866,5.4302999 Z M11.4998405,14.5705998 L11.4998405,13.8085333 C11.4998405,12.2852999 8.50015947,11.4476565 7.00121866,11.4476565 C5.50137812,11.4476565 2.50259678,12.2852999 2.50259678,13.8085333 L2.50259678,14.5705998 L11.4998405,14.5705998 Z M14.0352638,12.4634453 L15.1599193,12.4634453 L15.1599193,11.3918736 L14.0352638,11.3918736 L14.0352638,12.4634453 Z M16.3241626,8.31211707 C16.6444645,8.00621078 16.8469025,7.57794198 16.8469025,7.10648641 C16.8469025,5.92334885 15.8401109,4.96424267 14.5975916,4.96424267 C13.3550722,4.96424267 12.3482806,5.92334885 12.3482806,7.10648641 L13.4729361,7.10648641 C13.4729361,6.51806667 13.9794809,6.0358144 14.5975916,6.0358144 C15.2166019,6.0358144 15.722247,6.51806667 15.722247,7.10648641 C15.722247,7.401596 15.5989848,7.66881414 15.3902487,7.86225488 L14.6938621,8.53704816 C14.2889861,8.92842827 14.0352638,9.46376427 14.0352638,10.0530837 L14.0352638,10.3212016 L15.1599193,10.3212016 C15.1599193,9.51774773 15.4136416,9.19564641 15.8185175,8.80516603 L16.3241626,8.31211707 Z" id="path-1"></path>
    </defs>
    <g id="Symbols" stroke="none" stroke-width="1" fill="none" fill-rule="evenodd">
        <g id="unattributed">
            <mask id="mask-2" fill="white">
                <use xlink:href="#path-1"></use>
            </mask>
            <use fill="#000000" xlink:href="#path-1"></use>
        </g>
    </g>
</svg>