<svg width="20" height="20" viewBox="0 0 20 20" fill="none" xmlns="http://www.w3.org/2000/svg">
<path d="M13.8645 12.3208H13.0515L12.7633 12.0429C13.7719 10.8696 14.3791 9.34648 14.3791 7.68954C14.3791 3.99485 11.3842 1 7.68954 1C3.99485 1 1 3.99485 1 7.68954C1 11.3842 3.99485 14.3791 7.68954 14.3791C9.34648 14.3791 10.8696 13.7719 12.0429 12.7633L12.3208 13.0515V13.8645L17.4666 19L19 17.4666L13.8645 12.3208V12.3208ZM7.68954 12.3208C5.12693 12.3208 3.05832 10.2521 3.05832 7.68954C3.05832 5.12693 5.12693 3.05832 7.68954 3.05832C10.2521 3.05832 12.3208 5.12693 12.3208 7.68954C12.3208 10.2521 10.2521 12.3208 7.68954 12.3208ZM8.20412 5.11664H7.17496V7.17496H5.11664V8.20412H7.17496V10.2624H8.20412V8.20412H10.2624V7.17496H8.20412V5.11664Z" fill="black"/>
</svg>
