<svg width="480" height="480" fill="none" xmlns="http://www.w3.org/2000/svg"><rect opacity=".1" width="480" height="480" rx="32" fill="#fff"/><path d="M374.308 240c0 71.691-58.117 129.808-129.808 129.808S114.692 311.691 114.692 240 172.809 110.192 244.5 110.192 374.308 168.309 374.308 240z" fill="#F6F6F6" stroke="#fff" stroke-width="10.385"/><path fill-rule="evenodd" clip-rule="evenodd" d="M244.5 256.2c-21.627 0-64.8 10.854-64.8 32.4v16.2h129.6v-16.2c0-21.546-43.173-32.4-64.8-32.4m0-16.2c17.901 0 32.4-14.499 32.4-32.4 0-17.901-14.499-32.4-32.4-32.4-17.901 0-32.4 14.499-32.4 32.4 0 17.901 14.499 32.4 32.4 32.4" fill="#35374A" opacity=".3"/></svg>