<svg width="233" height="109" viewBox="0 0 233 109" fill="none" xmlns="http://www.w3.org/2000/svg">
<rect x="1" width="231" height="75" rx="7" fill="#90D1C5"/>
<path fill-rule="evenodd" clip-rule="evenodd" d="M158.756 50.625C152.533 50.625 147.488 45.5882 147.488 39.375C147.488 33.1618 152.533 28.125 158.756 28.125C164.979 28.125 170.024 33.1618 170.024 39.375C170.024 45.5882 164.979 50.625 158.756 50.625Z" fill="white" fill-opacity="0.7"/>
<rect width="75.1219" height="15" rx="6" transform="matrix(-1 0 0 1 138.098 31.875)" fill="white" fill-opacity="0.7"/>
<path fill-rule="evenodd" clip-rule="evenodd" d="M204.586 50.1464C203.901 50.1464 203.346 49.6451 203.346 49.0273V42.3125C203.346 41.6947 203.901 41.1934 204.586 41.1934C205.27 41.1934 205.825 41.6947 205.825 42.3125V49.0273C205.825 49.6451 205.27 50.1464 204.586 50.1464ZM216.13 95.3209C216.341 95.6952 216.732 95.9074 217.136 95.9074C217.309 95.9074 217.486 95.8686 217.651 95.7864L224.546 92.3633C224.827 92.224 225.038 91.9776 225.13 91.6809C225.222 91.3819 225.188 91.0602 225.038 90.7886L220.239 82.2146H227.479C227.943 82.2146 228.362 81.9362 228.541 81.5095C228.72 81.0827 228.621 80.592 228.293 80.2657L205.309 57.4444C204.978 57.1204 204.486 57.02 204.056 57.198C203.627 57.3737 203.346 57.7913 203.346 58.2523V89.8506C203.346 90.2865 203.597 90.6836 203.992 90.8753C204.387 91.067 204.859 91.0191 205.201 90.7498L211.037 86.2198L216.13 95.3209ZM211.62 83.3786C211.542 83.3627 211.466 83.3558 211.39 83.3558C211.138 83.3558 210.885 83.4402 210.683 83.5977L205.645 87.5093V61.0069L224.707 79.9349H218.288C217.881 79.9349 217.504 80.1494 217.297 80.4986C217.09 80.8455 217.084 81.2768 217.281 81.6305L222.446 90.8572L217.608 93.2602L212.397 83.9446C212.234 83.6525 211.949 83.4448 211.62 83.3786ZM188.598 59.5977H195.29C195.906 59.5977 196.406 59.0406 196.406 58.3542C196.406 57.6678 195.906 57.1107 195.29 57.1107H188.598C187.982 57.1107 187.482 57.6678 187.482 58.3542C187.482 59.0406 187.982 59.5977 188.598 59.5977ZM220.573 59.5977H213.881C213.265 59.5977 212.765 59.0406 212.765 58.3542C212.765 57.6678 213.265 57.1107 213.881 57.1107H220.573C221.189 57.1107 221.689 57.6678 221.689 58.3542C221.689 59.0406 221.189 59.5977 220.573 59.5977ZM196.987 52.3081C197.205 52.5246 197.49 52.6339 197.774 52.6339C198.059 52.6339 198.344 52.5268 198.559 52.3081C198.993 51.8729 198.993 51.1654 198.559 50.7303L193.841 45.9968C193.408 45.5616 192.703 45.5616 192.269 45.9968C191.836 46.432 191.836 47.1394 192.269 47.5746L196.987 52.3081ZM193.056 70.5403C192.772 70.5403 192.487 70.4309 192.269 70.2144C191.836 69.7793 191.836 69.0718 192.269 68.6366L196.987 63.9032C197.421 63.468 198.126 63.468 198.559 63.9032C198.993 64.3383 198.993 65.0458 198.559 65.481L193.841 70.2144C193.625 70.4309 193.341 70.5403 193.056 70.5403ZM210.116 52.3082C210.334 52.5246 210.618 52.6339 210.903 52.6339C211.187 52.6339 211.472 52.5268 211.69 52.3082L216.406 47.5758C216.84 47.1408 216.84 46.4357 216.406 45.9984C215.973 45.5611 215.268 45.5611 214.833 45.9984L210.116 50.7307C209.683 51.1658 209.683 51.8731 210.116 52.3082Z" fill="#EC5D57"/>
<mask id="mask0" mask-type="alpha" maskUnits="userSpaceOnUse" x="187" y="41" width="42" height="55">
<path fill-rule="evenodd" clip-rule="evenodd" d="M204.586 50.1464C203.901 50.1464 203.346 49.6451 203.346 49.0273V42.3125C203.346 41.6947 203.901 41.1934 204.586 41.1934C205.27 41.1934 205.825 41.6947 205.825 42.3125V49.0273C205.825 49.6451 205.27 50.1464 204.586 50.1464ZM216.13 95.3209C216.341 95.6952 216.732 95.9074 217.136 95.9074C217.309 95.9074 217.486 95.8686 217.651 95.7864L224.546 92.3633C224.827 92.224 225.038 91.9776 225.13 91.6809C225.222 91.3819 225.188 91.0602 225.038 90.7886L220.239 82.2146H227.479C227.943 82.2146 228.362 81.9362 228.541 81.5095C228.72 81.0827 228.621 80.592 228.293 80.2657L205.309 57.4444C204.978 57.1204 204.486 57.02 204.056 57.198C203.627 57.3737 203.346 57.7913 203.346 58.2523V89.8506C203.346 90.2865 203.597 90.6836 203.992 90.8753C204.387 91.067 204.859 91.0191 205.201 90.7498L211.037 86.2198L216.13 95.3209ZM211.62 83.3786C211.542 83.3627 211.466 83.3558 211.39 83.3558C211.138 83.3558 210.885 83.4402 210.683 83.5977L205.645 87.5093V61.0069L224.707 79.9349H218.288C217.881 79.9349 217.504 80.1494 217.297 80.4986C217.09 80.8455 217.084 81.2768 217.281 81.6305L222.446 90.8572L217.608 93.2602L212.397 83.9446C212.234 83.6525 211.949 83.4448 211.62 83.3786ZM188.598 59.5977H195.29C195.906 59.5977 196.406 59.0406 196.406 58.3542C196.406 57.6678 195.906 57.1107 195.29 57.1107H188.598C187.982 57.1107 187.482 57.6678 187.482 58.3542C187.482 59.0406 187.982 59.5977 188.598 59.5977ZM220.573 59.5977H213.881C213.265 59.5977 212.765 59.0406 212.765 58.3542C212.765 57.6678 213.265 57.1107 213.881 57.1107H220.573C221.189 57.1107 221.689 57.6678 221.689 58.3542C221.689 59.0406 221.189 59.5977 220.573 59.5977ZM196.987 52.3081C197.205 52.5246 197.49 52.6339 197.774 52.6339C198.059 52.6339 198.344 52.5268 198.559 52.3081C198.993 51.8729 198.993 51.1654 198.559 50.7303L193.841 45.9968C193.408 45.5616 192.703 45.5616 192.269 45.9968C191.836 46.432 191.836 47.1394 192.269 47.5746L196.987 52.3081ZM193.056 70.5403C192.772 70.5403 192.487 70.4309 192.269 70.2144C191.836 69.7793 191.836 69.0718 192.269 68.6366L196.987 63.9032C197.421 63.468 198.126 63.468 198.559 63.9032C198.993 64.3383 198.993 65.0458 198.559 65.481L193.841 70.2144C193.625 70.4309 193.341 70.5403 193.056 70.5403ZM210.116 52.3082C210.334 52.5246 210.618 52.6339 210.903 52.6339C211.187 52.6339 211.472 52.5268 211.69 52.3082L216.406 47.5758C216.84 47.1408 216.84 46.4357 216.406 45.9984C215.973 45.5611 215.268 45.5611 214.833 45.9984L210.116 50.7307C209.683 51.1658 209.683 51.8731 210.116 52.3082Z" fill="white"/>
</mask>
<g mask="url(#mask0)">
<rect x="187.482" y="40.6963" width="41.6429" height="68.6403" fill="#35374A"/>
</g>
<path d="M211.39 83.3547C211.466 83.3547 211.542 83.3616 211.62 83.3775C211.949 83.4437 212.234 83.6514 212.397 83.9435L217.608 93.2592L222.446 90.8561L217.281 81.6294C217.084 81.2757 217.09 80.8444 217.297 80.4975C217.504 80.1483 217.881 79.9338 218.288 79.9338H224.707L205.645 61.0059V87.5082L210.683 83.5966C210.885 83.4392 211.138 83.3547 211.39 83.3547Z" fill="white"/>
</svg>
