<svg width="480" height="480" fill="none" xmlns="http://www.w3.org/2000/svg"><rect opacity=".1" width="480" height="480" rx="32" fill="#fff"/><rect x="102.743" y="195.524" width="274.514" height="89.273" rx="15.623" fill="#FCAEB6"/><path fill-rule="evenodd" clip-rule="evenodd" d="M290.216 255.783c-7.396 0-13.391-5.995-13.391-13.391 0-7.395 5.995-13.391 13.391-13.391s13.391 5.996 13.391 13.391c0 7.396-5.995 13.391-13.391 13.391z" fill="#fff" fill-opacity=".7"/><rect width="89.273" height="17.855" rx="8.927" transform="matrix(-1 0 0 1 265.666 233.465)" fill="#fff" fill-opacity=".7"/><rect x="104.975" y="326.21" width="270.05" height="84.809" rx="13.391" fill="#fff" stroke="#A7A9C1" stroke-width="4.464"/><rect x="172" y="360" width="135" height="18" rx="9" fill="#A7A9C1"/><rect x="102.743" y="66" width="274.514" height="89.273" rx="15.623" fill="#90D1C5"/><path fill-rule="evenodd" clip-rule="evenodd" d="M290.216 126.259c-7.396 0-13.391-5.995-13.391-13.391 0-7.395 5.995-13.39 13.391-13.39s13.391 5.995 13.391 13.39c0 7.396-5.995 13.391-13.391 13.391z" fill="#fff" fill-opacity=".7"/><rect width="89.273" height="17.855" rx="8.927" transform="matrix(-1 0 0 1 265.666 103.941)" fill="#fff" fill-opacity=".7"/></svg>