<svg width="480" height="480" fill="none" xmlns="http://www.w3.org/2000/svg"><rect opacity=".1" width="480" height="480" rx="32" fill="#fff"/><g filter="url(#filter0_i)"><rect x="54" y="79" width="83" height="83" rx="12" fill="#fff" fill-opacity=".5"/></g><rect x="58.5" y="83.5" width="74" height="74" rx="7.5" stroke="#fff" stroke-opacity=".5" stroke-width="9"/><path fill-rule="evenodd" clip-rule="evenodd" d="M89.173 138.255l-17.407-17.407 4.909-4.909 12.498 12.464 26.423-26.424 4.909 4.944-31.332 31.332z" fill="#4B4D68"/><rect x="171.292" y="104.498" width="253.708" height="33.148" rx="16.574" fill="#fff" fill-opacity=".7"/><g filter="url(#filter1_i)"><rect x="54" y="186" width="83" height="83" rx="12" fill="#fff" fill-opacity=".5"/></g><rect x="58.5" y="190.5" width="74" height="74" rx="7.5" stroke="#fff" stroke-opacity=".5" stroke-width="9"/><path fill-rule="evenodd" clip-rule="evenodd" d="M89.173 245.255l-17.407-17.407 4.909-4.909 12.498 12.464 26.423-26.424 4.909 4.944-31.332 31.332z" fill="#4B4D68"/><rect x="171.292" y="211.498" width="253.708" height="33.148" rx="16.574" fill="#fff" fill-opacity=".7"/><g filter="url(#filter2_i)"><rect x="54" y="293" width="83" height="83" rx="12" fill="#fff" fill-opacity=".5"/></g><rect x="58.5" y="297.5" width="74" height="74" rx="7.5" stroke="#fff" stroke-opacity=".5" stroke-width="9"/><path fill-rule="evenodd" clip-rule="evenodd" d="M89.173 352.255l-17.407-17.407 4.909-4.909 12.498 12.464 26.423-26.424 4.909 4.944-31.332 31.332z" fill="#4B4D68"/><rect x="171.292" y="318.498" width="253.708" height="33.148" rx="16.574" fill="#fff" fill-opacity=".7"/><defs><filter id="filter0_i" x="54" y="79" width="83" height="87.15" filterUnits="userSpaceOnUse" color-interpolation-filters="sRGB"><feFlood flood-opacity="0" result="BackgroundImageFix"/><feBlend in="SourceGraphic" in2="BackgroundImageFix" result="shape"/><feColorMatrix in="SourceAlpha" values="0 0 0 0 0 0 0 0 0 0 0 0 0 0 0 0 0 0 127 0" result="hardAlpha"/><feOffset dy="4.15"/><feGaussianBlur stdDeviation="6.225"/><feComposite in2="hardAlpha" operator="arithmetic" k2="-1" k3="1"/><feColorMatrix values="0 0 0 0 0 0 0 0 0 0 0 0 0 0 0 0 0 0 0.09 0"/><feBlend in2="shape" result="effect1_innerShadow"/></filter><filter id="filter1_i" x="54" y="186" width="83" height="87.15" filterUnits="userSpaceOnUse" color-interpolation-filters="sRGB"><feFlood flood-opacity="0" result="BackgroundImageFix"/><feBlend in="SourceGraphic" in2="BackgroundImageFix" result="shape"/><feColorMatrix in="SourceAlpha" values="0 0 0 0 0 0 0 0 0 0 0 0 0 0 0 0 0 0 127 0" result="hardAlpha"/><feOffset dy="4.15"/><feGaussianBlur stdDeviation="6.225"/><feComposite in2="hardAlpha" operator="arithmetic" k2="-1" k3="1"/><feColorMatrix values="0 0 0 0 0 0 0 0 0 0 0 0 0 0 0 0 0 0 0.09 0"/><feBlend in2="shape" result="effect1_innerShadow"/></filter><filter id="filter2_i" x="54" y="293" width="83" height="87.15" filterUnits="userSpaceOnUse" color-interpolation-filters="sRGB"><feFlood flood-opacity="0" result="BackgroundImageFix"/><feBlend in="SourceGraphic" in2="BackgroundImageFix" result="shape"/><feColorMatrix in="SourceAlpha" values="0 0 0 0 0 0 0 0 0 0 0 0 0 0 0 0 0 0 127 0" result="hardAlpha"/><feOffset dy="4.15"/><feGaussianBlur stdDeviation="6.225"/><feComposite in2="hardAlpha" operator="arithmetic" k2="-1" k3="1"/><feColorMatrix values="0 0 0 0 0 0 0 0 0 0 0 0 0 0 0 0 0 0 0.09 0"/><feBlend in2="shape" result="effect1_innerShadow"/></filter></defs></svg>