<svg width="480" height="468" fill="none" xmlns="http://www.w3.org/2000/svg"><g filter="url(#filter0_i)"><rect x="48" y="99" width="65.641" height="65.641" rx="6.564" fill="#fff"/></g><rect x="49.641" y="100.641" width="62.359" height="62.359" rx="4.923" stroke="#E1E2EA" stroke-width="3.282"/><path fill-rule="evenodd" clip-rule="evenodd" d="M80.82 144.949c7.251 0 13.129-5.878 13.129-13.128 0-7.251-5.878-13.129-13.129-13.129-7.25 0-13.128 5.878-13.128 13.129 0 7.25 5.878 13.128 13.129 13.128z" fill="#C4C5D4"/><rect x="139.897" y="118.692" width="292.103" height="26.256" rx="13.128" fill="#fff" fill-opacity=".7"/><g filter="url(#filter1_i)"><rect x="48" y="189" width="65.641" height="65.641" rx="6.564" fill="#fff"/></g><rect x="49.641" y="190.641" width="62.359" height="62.359" rx="4.923" stroke="#E1E2EA" stroke-width="3.282"/><path fill-rule="evenodd" clip-rule="evenodd" d="M80.82 234.949c7.251 0 13.129-5.878 13.129-13.128 0-7.251-5.878-13.129-13.129-13.129-7.25 0-13.128 5.878-13.128 13.129 0 7.25 5.878 13.128 13.129 13.128z" fill="#C4C5D4"/><rect x="139.897" y="208.692" width="292.103" height="26.256" rx="13.128" fill="#fff" fill-opacity=".7"/><g filter="url(#filter2_i)"><rect x="48" y="279" width="65.641" height="65.641" rx="6.564" fill="#fff"/></g><rect x="49.641" y="280.641" width="62.359" height="62.359" rx="4.923" stroke="#E1E2EA" stroke-width="3.282"/><path fill-rule="evenodd" clip-rule="evenodd" d="M80.82 324.949c7.251 0 13.129-5.878 13.129-13.128 0-7.251-5.878-13.129-13.129-13.129-7.25 0-13.128 5.878-13.128 13.129 0 7.25 5.878 13.128 13.129 13.128z" fill="#C4C5D4"/><rect x="139.897" y="298.692" width="292.103" height="26.256" rx="13.128" fill="#fff" fill-opacity=".7"/><defs><filter id="filter0_i" x="48" y="99" width="65.641" height="68.923" filterUnits="userSpaceOnUse" color-interpolation-filters="sRGB"><feFlood flood-opacity="0" result="BackgroundImageFix"/><feBlend in="SourceGraphic" in2="BackgroundImageFix" result="shape"/><feColorMatrix in="SourceAlpha" values="0 0 0 0 0 0 0 0 0 0 0 0 0 0 0 0 0 0 127 0" result="hardAlpha"/><feOffset dy="3.282"/><feGaussianBlur stdDeviation="4.923"/><feComposite in2="hardAlpha" operator="arithmetic" k2="-1" k3="1"/><feColorMatrix values="0 0 0 0 0 0 0 0 0 0 0 0 0 0 0 0 0 0 0.09 0"/><feBlend in2="shape" result="effect1_innerShadow"/></filter><filter id="filter1_i" x="48" y="189" width="65.641" height="68.923" filterUnits="userSpaceOnUse" color-interpolation-filters="sRGB"><feFlood flood-opacity="0" result="BackgroundImageFix"/><feBlend in="SourceGraphic" in2="BackgroundImageFix" result="shape"/><feColorMatrix in="SourceAlpha" values="0 0 0 0 0 0 0 0 0 0 0 0 0 0 0 0 0 0 127 0" result="hardAlpha"/><feOffset dy="3.282"/><feGaussianBlur stdDeviation="4.923"/><feComposite in2="hardAlpha" operator="arithmetic" k2="-1" k3="1"/><feColorMatrix values="0 0 0 0 0 0 0 0 0 0 0 0 0 0 0 0 0 0 0.09 0"/><feBlend in2="shape" result="effect1_innerShadow"/></filter><filter id="filter2_i" x="48" y="279" width="65.641" height="68.923" filterUnits="userSpaceOnUse" color-interpolation-filters="sRGB"><feFlood flood-opacity="0" result="BackgroundImageFix"/><feBlend in="SourceGraphic" in2="BackgroundImageFix" result="shape"/><feColorMatrix in="SourceAlpha" values="0 0 0 0 0 0 0 0 0 0 0 0 0 0 0 0 0 0 127 0" result="hardAlpha"/><feOffset dy="3.282"/><feGaussianBlur stdDeviation="4.923"/><feComposite in2="hardAlpha" operator="arithmetic" k2="-1" k3="1"/><feColorMatrix values="0 0 0 0 0 0 0 0 0 0 0 0 0 0 0 0 0 0 0.09 0"/><feBlend in2="shape" result="effect1_innerShadow"/></filter></defs></svg>