<svg width="480" height="480" fill="none" xmlns="http://www.w3.org/2000/svg"><rect opacity=".1" width="480" height="480" rx="32" fill="#fff"/><g filter="url(#filter0_d)"><mask id="a" fill="#fff"><path fill-rule="evenodd" clip-rule="evenodd" d="M98.274 99.978h322.094c3.617 0 6.55 2.931 6.553 6.547l.282 323.912a6.554 6.554 0 01-6.554 6.559H57.669a6.554 6.554 0 01-6.553-6.548l-.282-323.911a6.553 6.553 0 016.553-6.559h22.867l9.01-9.01 9.01 9.01z"/></mask><path fill-rule="evenodd" clip-rule="evenodd" d="M98.274 99.978h322.094c3.617 0 6.55 2.931 6.553 6.547l.282 323.912a6.554 6.554 0 01-6.554 6.559H57.669a6.554 6.554 0 01-6.553-6.548l-.282-323.911a6.553 6.553 0 016.553-6.559h22.867l9.01-9.01 9.01 9.01z" fill="#fff"/><path d="M98.274 99.978l-.835.835.346.346h.49v-1.18zm328.647 6.547l-1.18.002 1.18-.002zm.282 323.912l1.18-.001-1.18.001zm-376.087.011l-1.18.001 1.18-.001zm-.282-323.911l-1.18.001 1.18-.001zm29.42-6.559v1.181h.49l.345-.346-.835-.835zm9.01-9.01l.835-.835-.835-.834-.834.834.834.835zm9.01 10.191h322.094v-2.362H98.274v2.362zm322.094 0a5.373 5.373 0 015.373 5.368l2.361-.003a7.734 7.734 0 00-7.734-7.727v2.362zm5.373 5.368l.281 323.911 2.361-.002-.281-323.912-2.361.003zm.281 323.911a5.372 5.372 0 01-5.373 5.377v2.361a7.733 7.733 0 007.734-7.74l-2.361.002zm-5.373 5.377H57.669v2.361h362.98v-2.361zm-362.98 0a5.373 5.373 0 01-5.373-5.368l-2.36.002a7.734 7.734 0 007.733 7.727v-2.361zm-5.373-5.368l-.281-323.911-2.361.002.281 323.911 2.361-.002zm-.281-323.911a5.372 5.372 0 015.373-5.377v-2.362a7.734 7.734 0 00-7.734 7.741l2.361-.002zm5.373-5.377h22.866v-2.362H57.387v2.362zm23.701-.346l9.01-9.01-1.67-1.67-9.01 9.01 1.67 1.67zm7.34-9.01l9.01 9.01 1.67-1.67-9.01-9.01-1.67 1.67z" fill="#F0F1F4" mask="url(#a)"/></g><rect x="131.342" y="143.041" width="217.189" height="9.362" rx="4.681" fill="#E1E2EA"/><path fill-rule="evenodd" clip-rule="evenodd" d="M97.54 146.757H83.61l3.525-3.524-1.391-1.391-5.898 5.898 5.898 5.898 1.39-1.391-3.523-3.524H97.54v-1.966zM396.899 141.842l-1.391 1.391 3.525 3.523h-13.93v1.966h13.93l-3.525 3.525 1.391 1.391 5.899-5.899-5.899-5.897z" fill="#E1E2EA"/><path fill-rule="evenodd" clip-rule="evenodd" d="M193.566 260.984a7.078 7.078 0 110-14.156 7.078 7.078 0 010 14.156zM193.566 216.159a7.078 7.078 0 110-14.156 7.078 7.078 0 010 14.156z" fill="#F0F1F4"/><path fill-rule="evenodd" clip-rule="evenodd" d="M193.566 305.81a7.078 7.078 0 110-14.156 7.078 7.078 0 010 14.156zM193.566 350.635a7.078 7.078 0 110-14.156 7.078 7.078 0 010 14.156zM193.566 395.461a7.078 7.078 0 110-14.156 7.078 7.078 0 010 14.156z" fill="#C4C5D4"/><path fill-rule="evenodd" clip-rule="evenodd" d="M147.561 260.984a7.078 7.078 0 110-14.156 7.078 7.078 0 010 14.156z" fill="#F0F1F4"/><path fill-rule="evenodd" clip-rule="evenodd" d="M147.561 305.81a7.078 7.078 0 110-14.156 7.078 7.078 0 010 14.156zM147.561 350.635a7.078 7.078 0 110-14.156 7.078 7.078 0 010 14.156zM147.561 395.461a7.078 7.078 0 110-14.156 7.078 7.078 0 010 14.156z" fill="#C4C5D4"/><path fill-rule="evenodd" clip-rule="evenodd" d="M101.555 260.984a7.078 7.078 0 11.001-14.156 7.078 7.078 0 01-.001 14.156z" fill="#F0F1F4"/><path fill-rule="evenodd" clip-rule="evenodd" d="M101.555 305.81a7.078 7.078 0 11.001-14.156 7.078 7.078 0 01-.001 14.156zM101.555 350.635a7.078 7.078 0 110-14.155 7.078 7.078 0 010 14.155zM101.555 395.461a7.078 7.078 0 11.001-14.156 7.078 7.078 0 01-.001 14.156zM239.571 260.984a7.078 7.078 0 110-14.156 7.078 7.078 0 010 14.156z" fill="#C4C5D4"/><path fill-rule="evenodd" clip-rule="evenodd" d="M239.571 216.159a7.078 7.078 0 110-14.156 7.078 7.078 0 010 14.156z" fill="#F0F1F4"/><path fill-rule="evenodd" clip-rule="evenodd" d="M239.571 305.81a7.078 7.078 0 110-14.156 7.078 7.078 0 010 14.156zM239.571 350.635a7.078 7.078 0 110-14.156 7.078 7.078 0 010 14.156zM239.571 395.461a7.078 7.078 0 110-14.156 7.078 7.078 0 010 14.156zM285.576 260.984a7.078 7.078 0 110-14.156 7.078 7.078 0 010 14.156z" fill="#C4C5D4"/><path fill-rule="evenodd" clip-rule="evenodd" d="M285.576 216.159a7.078 7.078 0 110-14.156 7.078 7.078 0 010 14.156z" fill="#F0F1F4"/><path fill-rule="evenodd" clip-rule="evenodd" d="M285.576 305.81a7.078 7.078 0 110-14.156 7.078 7.078 0 010 14.156zM285.576 350.635a7.078 7.078 0 110-14.156 7.078 7.078 0 010 14.156zM285.576 395.461a7.078 7.078 0 110-14.156 7.078 7.078 0 010 14.156zM331.581 260.984a7.078 7.078 0 11.002-14.156 7.078 7.078 0 01-.002 14.156z" fill="#C4C5D4"/><path fill-rule="evenodd" clip-rule="evenodd" d="M331.581 216.159a7.078 7.078 0 11.002-14.156 7.078 7.078 0 01-.002 14.156z" fill="#F0F1F4"/><path fill-rule="evenodd" clip-rule="evenodd" d="M331.581 305.81a7.078 7.078 0 11.002-14.156 7.078 7.078 0 01-.002 14.156zM331.581 350.635a7.078 7.078 0 11.001-14.155 7.078 7.078 0 01-.001 14.155zM377.587 260.984a7.078 7.078 0 110-14.156 7.078 7.078 0 010 14.156z" fill="#C4C5D4"/><path fill-rule="evenodd" clip-rule="evenodd" d="M377.587 216.159a7.078 7.078 0 110-14.156 7.078 7.078 0 010 14.156z" fill="#F0F1F4"/><path fill-rule="evenodd" clip-rule="evenodd" d="M377.587 305.81a7.078 7.078 0 110-14.156 7.078 7.078 0 010 14.156zM377.587 350.635a7.078 7.078 0 110-14.156 7.078 7.078 0 010 14.156z" fill="#C4C5D4"/><g filter="url(#filter1_i)"><rect x="50.832" y="41" width="376.336" height="47.744" rx="8.355" fill="#fff"/></g><rect x="51.429" y="41.597" width="375.143" height="46.55" rx="7.758" stroke="#E1E2EA" stroke-width="1.194"/><rect x="68.736" y="61.291" width="14.323" height="9.549" rx="4.774" fill="#E1E2EA"/><rect x="97.382" y="61.291" width="106.231" height="9.549" rx="4.774" fill="#E1E2EA"/><defs><filter id="filter0_d" x="42.57" y="82.704" width="392.897" height="362.556" filterUnits="userSpaceOnUse" color-interpolation-filters="sRGB"><feFlood flood-opacity="0" result="BackgroundImageFix"/><feColorMatrix in="SourceAlpha" values="0 0 0 0 0 0 0 0 0 0 0 0 0 0 0 0 0 0 127 0"/><feOffset/><feGaussianBlur stdDeviation="4.132"/><feColorMatrix values="0 0 0 0 0 0 0 0 0 0 0 0 0 0 0 0 0 0 0.09 0"/><feBlend in2="BackgroundImageFix" result="effect1_dropShadow"/><feBlend in="SourceGraphic" in2="effect1_dropShadow" result="shape"/></filter><filter id="filter1_i" x="50.832" y="41" width="376.336" height="48.938" filterUnits="userSpaceOnUse" color-interpolation-filters="sRGB"><feFlood flood-opacity="0" result="BackgroundImageFix"/><feBlend in="SourceGraphic" in2="BackgroundImageFix" result="shape"/><feColorMatrix in="SourceAlpha" values="0 0 0 0 0 0 0 0 0 0 0 0 0 0 0 0 0 0 127 0" result="hardAlpha"/><feOffset dy="1.194"/><feGaussianBlur stdDeviation="1.79"/><feComposite in2="hardAlpha" operator="arithmetic" k2="-1" k3="1"/><feColorMatrix values="0 0 0 0 0 0 0 0 0 0 0 0 0 0 0 0 0 0 0.09 0"/><feBlend in2="shape" result="effect1_innerShadow"/></filter></defs></svg>