<svg width="480" height="468" fill="none" xmlns="http://www.w3.org/2000/svg"><g filter="url(#filter0_d)"><mask id="a" fill="#fff"><path fill-rule="evenodd" clip-rule="evenodd" d="M88.495 71.818H436.24a3.784 3.784 0 013.784 3.78l.306 368.253a3.783 3.783 0 01-3.783 3.787H42.077a3.783 3.783 0 01-3.784-3.78l-.307-368.254a3.783 3.783 0 013.784-3.786H69.61l9.442-9.442 9.442 9.442z"/></mask><path fill-rule="evenodd" clip-rule="evenodd" d="M88.495 71.818H436.24a3.784 3.784 0 013.784 3.78l.306 368.253a3.783 3.783 0 01-3.783 3.787H42.077a3.783 3.783 0 01-3.784-3.78l-.307-368.254a3.783 3.783 0 013.784-3.786H69.61l9.442-9.442 9.442 9.442z" fill="#fff"/><path d="M88.495 71.818l-.891.892.369.369h.522v-1.261zm351.529 3.78l1.261-.001-1.261.001zm.306 368.253l1.262-.001-1.262.001zm-402.037.007l-1.261.001 1.26-.001zm-.307-368.254l-1.261.001h1.261zm31.625-3.786v1.26h.523l.37-.368-.893-.892zm9.442-9.442l.892-.892-.892-.892-.891.892.891.892zm9.442 10.703H436.24v-2.522H88.495v2.522zm347.745 0a2.523 2.523 0 012.523 2.52l2.522-.002a5.044 5.044 0 00-5.045-5.04v2.522zm2.523 2.52l.306 368.253 2.523-.002-.307-368.253-2.522.002zm.306 368.253a2.522 2.522 0 01-2.522 2.525v2.522a5.045 5.045 0 005.045-5.049l-2.523.002zm-2.522 2.525H42.077v2.522h394.47v-2.522zm-394.47 0a2.522 2.522 0 01-2.523-2.52l-2.522.002a5.045 5.045 0 005.044 5.04v-2.522zm-2.523-2.52l-.307-368.254-2.522.002.307 368.254 2.522-.002zm-.307-368.254a2.522 2.522 0 012.523-2.524v-2.522a5.045 5.045 0 00-5.045 5.048l2.522-.002zm2.523-2.524H69.61v-2.522H41.77v2.522zm28.733-.37l9.442-9.442-1.783-1.783-9.443 9.442 1.784 1.784zm7.659-9.442l9.442 9.443 1.783-1.784-9.442-9.442-1.783 1.783z" fill="#F0F1F4" mask="url(#a)"/></g><path stroke="#E1E2EA" stroke-width="1.261" d="M165.897 184.872h49.141v47.881h-49.141z"/><rect x="67.612" y="104.228" width="47.881" height="40.321" rx="8.197" stroke="#E1E2EA" stroke-width="1.261"/><rect x="363.727" y="104.228" width="47.881" height="40.321" rx="8.197" stroke="#E1E2EA" stroke-width="1.261"/><path stroke="#E1E2EA" stroke-width="1.261" d="M215.039 184.872h49.141v47.881h-49.141zM264.182 184.872h49.141v47.881h-49.141zM313.324 184.872h49.141v47.881h-49.141zM362.467 184.872h49.141v47.881h-49.141zM165.897 232.755h49.141v47.881h-49.141zM116.755 232.755h49.141v47.881h-49.141zM67.612 232.755h49.141v47.881H67.612zM215.039 232.755h49.141v47.881h-49.141zM264.182 232.755h49.141v47.881h-49.141zM313.324 232.755h49.141v47.881h-49.141zM362.467 232.755h49.141v47.881h-49.141zM165.897 280.637h49.141v47.881h-49.141zM116.755 280.637h49.141v47.881h-49.141zM67.612 280.637h49.141v47.881H67.612zM215.039 280.637h49.141v47.881h-49.141zM264.182 280.637h49.141v47.881h-49.141zM313.324 280.637h49.141v47.881h-49.141zM362.467 280.637h49.141v47.881h-49.141zM165.897 328.519h49.141V376.4h-49.141zM116.755 328.519h49.141V376.4h-49.141zM67.612 328.519h49.141V376.4H67.612zM215.039 328.519h49.141V376.4h-49.141zM264.182 328.519h49.141V376.4h-49.141zM313.324 328.519h49.141V376.4h-49.141zM362.467 328.519h49.141V376.4h-49.141zM165.897 376.402h49.141v47.881h-49.141zM116.755 376.402h49.141v47.881h-49.141zM67.612 376.402h49.141v47.881H67.612zM215.039 376.402h49.141v47.881h-49.141zM264.182 376.402h49.141v47.881h-49.141z"/><rect x="165.266" y="120.339" width="149.947" height="10.081" rx="5.04" fill="#E1E2EA"/><rect x="79.582" y="160.661" width="26.461" height="10.081" rx="5.04" fill="#E1E2EA"/><rect x="127.464" y="160.661" width="26.461" height="10.081" rx="5.04" fill="#E1E2EA"/><rect x="177.867" y="160.661" width="26.461" height="10.081" rx="5.04" fill="#E1E2EA"/><rect x="228.27" y="160.661" width="26.461" height="10.081" rx="5.04" fill="#E1E2EA"/><rect x="278.672" y="160.661" width="26.461" height="10.081" rx="5.04" fill="#E1E2EA"/><rect x="329.074" y="160.661" width="26.461" height="10.081" rx="5.04" fill="#E1E2EA"/><rect x="376.957" y="160.661" width="26.461" height="10.081" rx="5.04" fill="#E1E2EA"/><path fill-rule="evenodd" clip-rule="evenodd" d="M102.893 123.969h-14.88l3.765-3.765-1.486-1.486-6.3 6.301 6.3 6.3 1.486-1.486-3.764-3.764h14.879v-2.1zM387.667 118.718l-1.486 1.486 3.765 3.764h-14.879v2.1h14.879l-3.765 3.765 1.486 1.486 6.301-6.301-6.301-6.3z" fill="#E1E2EA"/><path fill-rule="evenodd" clip-rule="evenodd" d="M190.468 263.986a7.56 7.56 0 110-15.122 7.56 7.56 0 010 15.122zM190.468 216.103a7.56 7.56 0 110-15.121 7.56 7.56 0 010 15.121z" fill="#F0F1F4"/><path fill-rule="evenodd" clip-rule="evenodd" d="M190.468 311.868a7.56 7.56 0 110-15.121 7.56 7.56 0 010 15.121zM190.468 359.75a7.56 7.56 0 110-15.12 7.56 7.56 0 010 15.12zM190.468 407.633a7.56 7.56 0 110-15.122 7.56 7.56 0 010 15.122z" fill="#C4C5D4"/><path fill-rule="evenodd" clip-rule="evenodd" d="M141.325 263.986a7.56 7.56 0 11.001-15.121 7.56 7.56 0 01-.001 15.121z" fill="#F0F1F4"/><path fill-rule="evenodd" clip-rule="evenodd" d="M141.325 311.868a7.56 7.56 0 110-15.12 7.56 7.56 0 010 15.12zM141.325 359.75a7.56 7.56 0 110-15.12 7.56 7.56 0 110 15.12zM141.325 407.633a7.56 7.56 0 11.001-15.121 7.56 7.56 0 01-.001 15.121z" fill="#C4C5D4"/><path fill-rule="evenodd" clip-rule="evenodd" d="M92.183 263.986a7.56 7.56 0 110-15.121 7.56 7.56 0 010 15.121z" fill="#F0F1F4"/><path fill-rule="evenodd" clip-rule="evenodd" d="M92.183 311.868a7.56 7.56 0 110-15.12 7.56 7.56 0 010 15.12zM92.183 359.75a7.56 7.56 0 110-15.12 7.56 7.56 0 110 15.12zM92.183 407.633a7.56 7.56 0 110-15.121 7.56 7.56 0 010 15.121zM239.61 263.986a7.56 7.56 0 11.001-15.121 7.56 7.56 0 01-.001 15.121z" fill="#C4C5D4"/><path fill-rule="evenodd" clip-rule="evenodd" d="M239.61 216.103a7.56 7.56 0 110-15.12 7.56 7.56 0 010 15.12z" fill="#F0F1F4"/><path fill-rule="evenodd" clip-rule="evenodd" d="M239.61 311.868a7.56 7.56 0 110-15.12 7.56 7.56 0 010 15.12zM239.61 359.75a7.56 7.56 0 110-15.12 7.56 7.56 0 017.56 7.56 7.56 7.56 0 01-7.56 7.56zM239.61 407.633a7.56 7.56 0 11.001-15.121 7.56 7.56 0 01-.001 15.121zM288.752 263.986a7.56 7.56 0 11.001-15.121 7.56 7.56 0 01-.001 15.121z" fill="#C4C5D4"/><path fill-rule="evenodd" clip-rule="evenodd" d="M288.752 216.103a7.56 7.56 0 110-15.12 7.56 7.56 0 010 15.12z" fill="#F0F1F4"/><path fill-rule="evenodd" clip-rule="evenodd" d="M288.752 311.868a7.56 7.56 0 110-15.12 7.56 7.56 0 010 15.12zM288.752 359.75a7.56 7.56 0 110-15.12 7.56 7.56 0 110 15.12zM288.752 407.633a7.56 7.56 0 11.001-15.121 7.56 7.56 0 01-.001 15.121zM337.895 263.986a7.56 7.56 0 01-7.56-7.561 7.56 7.56 0 1115.12 0 7.56 7.56 0 01-7.56 7.561z" fill="#C4C5D4"/><path fill-rule="evenodd" clip-rule="evenodd" d="M337.895 216.103a7.56 7.56 0 01-7.56-7.56 7.56 7.56 0 017.56-7.56 7.56 7.56 0 110 15.12z" fill="#F0F1F4"/><path fill-rule="evenodd" clip-rule="evenodd" d="M337.895 311.868a7.56 7.56 0 01-7.56-7.56 7.56 7.56 0 1115.12 0 7.56 7.56 0 01-7.56 7.56zM337.895 359.75a7.56 7.56 0 01-7.56-7.56 7.56 7.56 0 1115.12 0 7.56 7.56 0 01-7.56 7.56zM387.037 263.986a7.56 7.56 0 11.001-15.121 7.56 7.56 0 01-.001 15.121z" fill="#C4C5D4"/><path fill-rule="evenodd" clip-rule="evenodd" d="M387.037 216.103a7.56 7.56 0 110-15.12 7.56 7.56 0 010 15.12z" fill="#F0F1F4"/><path fill-rule="evenodd" clip-rule="evenodd" d="M387.037 311.868a7.56 7.56 0 110-15.12 7.56 7.56 0 010 15.12zM387.037 359.75a7.56 7.56 0 110-15.12 7.56 7.56 0 110 15.12z" fill="#C4C5D4"/><g filter="url(#filter1_i)"><rect x="38" y="9" width="308.55" height="51" rx="8.925" fill="#fff"/></g><rect x="38.638" y="9.637" width="307.275" height="49.725" rx="8.287" stroke="#E1E2EA" stroke-width="1.275"/><rect x="57.125" y="30.675" width="15.3" height="10.2" rx="5.1" fill="#E1E2EA"/><rect x="87.725" y="30.675" width="113.475" height="10.2" rx="5.1" fill="#E1E2EA"/><defs><filter id="filter0_d" x="29.158" y="53.548" width="420" height="402.918" filterUnits="userSpaceOnUse" color-interpolation-filters="sRGB"><feFlood flood-opacity="0" result="BackgroundImageFix"/><feColorMatrix in="SourceAlpha" values="0 0 0 0 0 0 0 0 0 0 0 0 0 0 0 0 0 0 127 0"/><feOffset/><feGaussianBlur stdDeviation="4.414"/><feColorMatrix values="0 0 0 0 0 0 0 0 0 0 0 0 0 0 0 0 0 0 0.09 0"/><feBlend in2="BackgroundImageFix" result="effect1_dropShadow"/><feBlend in="SourceGraphic" in2="effect1_dropShadow" result="shape"/></filter><filter id="filter1_i" x="38" y="9" width="308.55" height="52.275" filterUnits="userSpaceOnUse" color-interpolation-filters="sRGB"><feFlood flood-opacity="0" result="BackgroundImageFix"/><feBlend in="SourceGraphic" in2="BackgroundImageFix" result="shape"/><feColorMatrix in="SourceAlpha" values="0 0 0 0 0 0 0 0 0 0 0 0 0 0 0 0 0 0 127 0" result="hardAlpha"/><feOffset dy="1.275"/><feGaussianBlur stdDeviation="1.913"/><feComposite in2="hardAlpha" operator="arithmetic" k2="-1" k3="1"/><feColorMatrix values="0 0 0 0 0 0 0 0 0 0 0 0 0 0 0 0 0 0 0.09 0"/><feBlend in2="shape" result="effect1_innerShadow"/></filter></defs></svg>