<svg width="480" height="480" fill="none" xmlns="http://www.w3.org/2000/svg"><rect opacity=".1" width="480" height="480" rx="32" fill="#fff"/><path fill="#fff" d="M40 435V234h400v201z"/><path fill="#4D95CA" d="M40 276V45h400v231z"/><path fill-rule="evenodd" clip-rule="evenodd" d="M420 70a6 6 0 100-12 6 6 0 000 12zM239 202c33.137 0 60-26.863 60-60s-26.863-60-60-60-60 26.863-60 60 26.863 60 60 60z" fill="#fff" fill-opacity=".3"/><path fill-rule="evenodd" clip-rule="evenodd" d="M239 173c17.121 0 31-13.879 31-31 0-17.121-13.879-31-31-31-17.121 0-31 13.879-31 31 0 17.121 13.879 31 31 31z" fill="#fff" fill-opacity=".7"/><rect x="151" y="300" width="176" height="8" rx="4" fill="#3E4543" fill-opacity=".3"/><rect x="138" y="320" width="201" height="8" rx="4" fill="#3E4543" fill-opacity=".3"/><rect x="192" y="340" width="93" height="8" rx="4" fill="#3E4543" fill-opacity=".3"/><path opacity=".7" fill-rule="evenodd" clip-rule="evenodd" d="M133 242a6 6 0 016-6h199a6 6 0 110 12H139a6 6 0 01-6-6z" fill="#fff"/><rect x="207" y="369" width="123" height="40" rx="7" fill="#0168B3"/><path fill-rule="evenodd" clip-rule="evenodd" d="M291 396a6 6 0 110-12 6 6 0 010 12z" fill="#fff" fill-opacity=".7"/><rect width="40" height="8" rx="4" transform="matrix(-1 0 0 1 280 386)" fill="#fff" fill-opacity=".7"/><rect x="147" y="385" width="40" height="8" rx="4" fill="#0168B3" fill-opacity=".3"/></svg>