<svg width="400" height="390" fill="none" xmlns="http://www.w3.org/2000/svg"><path fill="#fff" d="M0 390V189h400v201z"/><path fill="#4D95CA" d="M0 231V0h400v231z"/><path fill-rule="evenodd" clip-rule="evenodd" d="M380 25a6 6 0 100-12 6 6 0 000 12zM199 157a60 60 0 100-120 60 60 0 000 120z" fill="#fff" fill-opacity=".3"/><path fill-rule="evenodd" clip-rule="evenodd" d="M199 128a31 31 0 100-62 31 31 0 000 62z" fill="#fff" fill-opacity=".7"/><rect x="111" y="255" width="176" height="8" rx="4" fill="#3E4543" fill-opacity=".3"/><rect x="98" y="275" width="201" height="8" rx="4" fill="#3E4543" fill-opacity=".3"/><rect x="152" y="295" width="93" height="8" rx="4" fill="#3E4543" fill-opacity=".3"/><path opacity=".7" fill-rule="evenodd" clip-rule="evenodd" d="M93 197a6 6 0 016-6h199a6 6 0 110 12H99a6 6 0 01-6-6z" fill="#fff"/><rect x="167" y="324" width="123" height="40" rx="7" fill="#0168B3"/><path fill-rule="evenodd" clip-rule="evenodd" d="M251 351a6 6 0 110-12 6 6 0 010 12z" fill="#fff" fill-opacity=".7"/><rect width="40" height="8" rx="4" transform="matrix(-1 0 0 1 240 341)" fill="#fff" fill-opacity=".7"/><rect x="107" y="340" width="40" height="8" rx="4" fill="#0168B3" fill-opacity=".3"/></svg>

