<svg width="20" height="20" viewBox="0 0 20 20" fill="none" xmlns="http://www.w3.org/2000/svg">
<path d="M9.12499 14.167H5.83299C4.68033 14.167 3.69766 13.7607 2.88499 12.948C2.07299 12.1353 1.66699 11.1527 1.66699 10C1.66699 8.84734 2.07299 7.86467 2.88499 7.05201C3.69766 6.23934 4.68033 5.83301 5.83299 5.83301H9.12499V7.58301H5.83299C5.13899 7.58301 4.56266 7.81234 4.10399 8.27101C3.64599 8.72901 3.41699 9.30534 3.41699 10C3.41699 10.6947 3.64599 11.271 4.10399 11.729C4.56266 12.1877 5.13899 12.417 5.83299 12.417H9.12499V14.167ZM6.66699 10.875V9.12501H13.333V10.875H6.66699ZM10.875 14.167V12.417H14.167C14.861 12.417 15.4373 12.1877 15.896 11.729C16.354 11.271 16.583 10.6947 16.583 10C16.583 9.30534 16.354 8.72901 15.896 8.27101C15.4373 7.81234 14.861 7.58301 14.167 7.58301H10.875V5.83301H14.167C15.3197 5.83301 16.3023 6.23934 17.115 7.05201C17.927 7.86467 18.333 8.84734 18.333 10C18.333 11.1527 17.927 12.1353 17.115 12.948C16.3023 13.7607 15.3197 14.167 14.167 14.167H10.875Z" fill="black"/>
</svg>
