<svg width="20" height="20" viewBox="0 0 20 20" fill="none" xmlns="http://www.w3.org/2000/svg">
<path d="M3.812 11.292C3.45133 11.292 3.146 11.167 2.896 10.917C2.646 10.667 2.521 10.3613 2.521 10C2.521 9.63867 2.646 9.333 2.896 9.083C3.146 8.833 3.45133 8.708 3.812 8.708C4.17333 8.708 4.479 8.833 4.729 9.083C4.979 9.333 5.104 9.63867 5.104 10C5.104 10.3613 4.979 10.667 4.729 10.917C4.479 11.167 4.17333 11.292 3.812 11.292ZM3.812 6.312C3.45133 6.312 3.146 6.18734 2.896 5.938C2.646 5.68734 2.521 5.38167 2.521 5.021C2.521 4.65967 2.646 4.354 2.896 4.104C3.146 3.854 3.45133 3.729 3.812 3.729C4.17333 3.729 4.479 3.854 4.729 4.104C4.979 4.354 5.104 4.65967 5.104 5.021C5.104 5.38167 4.979 5.68734 4.729 5.938C4.479 6.18734 4.17333 6.312 3.812 6.312ZM3.812 16.25C3.45133 16.25 3.146 16.125 2.896 15.875C2.646 15.625 2.521 15.3193 2.521 14.958C2.521 14.5973 2.646 14.292 2.896 14.042C3.146 13.792 3.45133 13.667 3.812 13.667C4.17333 13.667 4.479 13.792 4.729 14.042C4.979 14.292 5.104 14.5973 5.104 14.958C5.104 15.3193 4.979 15.625 4.729 15.875C4.479 16.125 4.17333 16.25 3.812 16.25ZM6.646 15.833V14.083H17.5V15.833H6.646ZM6.646 10.875V9.125H17.5V10.875H6.646ZM6.646 5.896V4.146H17.5V5.896H6.646Z" fill="black"/>
</svg>
