<?xml version="1.0" encoding="UTF-8"?>
<svg width="20px" height="20px" viewBox="0 0 20 20" version="1.1" xmlns="http://www.w3.org/2000/svg" xmlns:xlink="http://www.w3.org/1999/xlink">
    <!-- Generator: Sketch 44.1 (41455) - http://www.bohemiancoding.com/sketch -->
    <title>Icons/Navigational/Global/ca-monogram</title>
    <desc>Created with Sketch.</desc>
    <defs>
        <path d="M17.6727554,9.0413132 C17.5397375,9.08988985 17.4562915,9.40934307 17.4761203,9.66951631 C17.5397375,10.5249593 17.6116168,11.4940223 16.991142,12.9727285 C16.6961893,13.6766782 16.1632916,14.4110913 15.4527612,15.095281 C14.5579887,15.9564874 13.8069747,16.1499707 13.6144706,16.1499707 C13.5475485,16.1499707 13.5070648,16.128564 13.4938456,16.0857507 C13.4888885,16.071754 13.4789741,16.0240007 13.5351555,15.9836574 L13.6937856,15.8683908 C14.0730105,15.5958675 14.175459,15.5225909 14.5836009,15.1660877 C15.2329926,14.6004579 16.1599868,13.2378417 16.3087024,12.7981819 C16.4896398,12.264662 16.6466174,11.4594423 16.5887836,10.8633492 C16.5532571,10.4862627 16.473942,10.3677027 16.4574181,10.3578227 C16.3921484,10.3677027 16.2516948,10.5628327 16.1665964,10.8896959 C16.0914123,11.1778624 15.98979,11.520369 15.8906462,11.8472322 C15.6138699,12.7636019 15.3354411,13.1003451 15.0661005,13.4255616 C15.0107453,13.4930749 14.95539,13.5597649 14.9000347,13.6313949 C14.4208399,14.2530113 13.8053223,14.5881079 13.6590853,14.5881079 C13.595468,14.5881079 13.5748131,14.5452946 13.5698559,14.5321212 C13.5475485,14.4711946 13.595468,14.4143846 13.6731306,14.3476946 C13.8697658,14.180558 14.534029,13.5531783 14.8314603,12.4927253 C14.8818584,12.3124154 14.8322865,12.1255188 14.8000648,12.1098754 C14.8000648,12.1098754 14.7364475,12.1246954 14.63813,12.3675787 C14.429928,12.8813385 14.3960539,12.9315618 14.0672271,13.4132116 C13.66239,14.0068348 12.9262476,14.6053979 12.5767658,14.7733578 C12.0306489,15.0360011 11.4366125,15.1685577 10.8128329,15.1685577 C10.4410438,15.1685577 10.0502521,15.1208044 9.65202468,15.0277677 C8.76551416,14.8194645 7.71706883,13.9409681 7.65097298,13.8701615 C7.36262986,13.5581183 7.07015575,13.2230217 6.88343499,12.8903952 C6.39349954,12.0160155 6.18364523,11.1704524 6.26048165,10.3767594 C6.33897047,9.55671968 6.49925289,8.91863658 7.05445798,8.26820347 C7.60305349,7.62518037 8.09051035,7.19375386 8.95636591,6.88912063 C9.3876413,6.73680402 9.92880103,6.65282405 10.4790489,6.65282405 C11.2482393,6.65282405 11.9372885,6.81666733 12.3710425,7.10071722 C13.1253613,7.59636371 13.3947019,7.85324362 14.0639223,8.52343672 C14.367137,8.82806994 14.8355913,9.01002654 15.3156124,9.01002654 C15.6733561,9.01002654 16.0178807,8.91287324 16.3417503,8.72103665 C16.9878372,8.33818678 17.357974,7.84254029 17.4405938,7.24809384 C17.6198787,5.9661643 16.4433727,4.70564141 16.4318059,4.69329142 C16.1508986,4.39689152 15.8823842,4.14248161 15.6221318,3.91853503 C15.6196532,3.60319847 15.2652143,3.35784523 15.2652143,3.35784523 C13.3046463,1.9515924 11.468008,1.97546905 10.7186464,2.01004904 C9.82883106,2.05121569 8.99437102,2.14672233 8.16652057,2.37890224 C6.08615386,2.85643541 4.43788874,4.03050832 3.25229452,5.87642099 C2.41618209,6.86359731 2.10553162,8.37688344 2.01299744,9.61188299 C1.91137507,10.9473292 2.43022746,12.9480285 2.71443959,13.2156117 C2.98047536,13.4650816 3.21428941,13.5004849 3.24485874,13.5037783 C3.40679356,13.8487548 3.57946895,14.207728 3.65134818,14.3106447 C3.70505106,14.388038 3.75875393,14.4670779 3.813283,14.5461179 C4.14789322,15.0351777 4.4940702,15.5407042 4.95674112,15.9424907 C5.72014812,16.6052738 6.40506631,16.9708337 7.32958194,17.3767369 C8.24666178,17.7801701 8.95306112,17.9497767 9.84700742,17.98271 C10.1626151,17.99506 10.3807314,18 10.5765403,18 C11.2903754,18 11.8042706,17.9275467 12.5404131,17.7217134 C13.3071249,17.5092935 14.1548041,17.1330303 14.8083268,16.7164238 C15.0966699,16.5319972 15.985659,15.7292475 16.2946571,15.3727443 C16.6127433,15.0063611 17.1935605,14.1525647 17.4901656,13.300415 C18.1494717,11.4059257 18.0139752,10.3701727 17.9230934,9.6769263 C17.866912,9.23808979 17.7570276,9.0413132 17.6727554,9.0413132 Z" id="path-1"></path>
    </defs>
    <g id="Symbols" stroke="none" stroke-width="1" fill="none" fill-rule="evenodd">
        <g id="Icons/Navigational/Global/ca-monogram">
            <mask id="mask-2" fill="white">
                <use xlink:href="#path-1"></use>
            </mask>
            <use fill="#000000" xlink:href="#path-1"></use>
        </g>
    </g>
</svg>