<?xml version="1.0" encoding="UTF-8"?>
<svg width="20px" height="20px" viewBox="-4 0 20 20" version="1.1" xmlns="http://www.w3.org/2000/svg" xmlns:xlink="http://www.w3.org/1999/xlink">
  <title>connect</title>
  <path d="M5.05 16.5H6.95V14.45L10.5 10.55V5.775H1.5V10.55L5.05 14.4425V16.5ZM3.55 18V15.05L0 11.15V5.775C0 5.3625 0.146875 5.00938 0.440625 4.71563C0.734375 4.42188 1.0875 4.275 1.5 4.275H3.3L2.55 5.025V0H4.05V4.275H7.95V0H9.45V5.025L8.7 4.275H10.5C10.9125 4.275 11.2656 4.42188 11.5594 4.71563C11.8531 5.00938 12 5.3625 12 5.775V11.15L8.45 15.05V18H3.55Z" fill="#000000" />
</svg>
