<?xml version="1.0" encoding="UTF-8"?>
<svg width="20px" height="20px" viewBox="0 0 20 20" version="1.1" xmlns="http://www.w3.org/2000/svg" xmlns:xlink="http://www.w3.org/1999/xlink">
  <title>connect</title>
  <path d="M9.05 17.5H10.95V15.45L14.5 11.55V6.775H5.5V11.55L9.05 15.4425V17.5ZM7.55 19V16.05L4 12.15V6.775C4 6.3625 4.14688 6.00938 4.44063 5.71563C4.73438 5.42188 5.0875 5.275 5.5 5.275H7.3L6.55 6.025V1H8.05V5.275H11.95V1H13.45V6.025L12.7 5.275H14.5C14.9125 5.275 15.2656 5.42188 15.5594 5.71563C15.8531 6.00938 16 6.3625 16 6.775V12.15L12.45 16.05V19H7.55Z" fill="#000000"/>
</svg>
