<?xml version="1.0" encoding="UTF-8"?>
<svg width="20px" height="20px" viewBox="0 0 20 20" version="1.1" xmlns="http://www.w3.org/2000/svg" xmlns:xlink="http://www.w3.org/1999/xlink">
    <!-- Generator: Sketch 46.2 (44496) - http://www.bohemiancoding.com/sketch -->
    <title>date-range</title>
    <desc>Created with Sketch.</desc>
    <defs>
        <path d="M16.2240005,2.88911118 C17.2019006,2.88911118 18.0020006,3.68921121 18.0020006,4.66711125 L18.0020006,17.1131117 C18.0020006,18.0910118 17.2019006,18.8911118 16.2240005,18.8911118 L3.77800007,18.8911118 C2.79121003,18.8911118 2,18.0910118 2,17.1131117 L2.00889,4.66711125 C2.00889,3.68921121 2.79121003,2.88911118 3.77800007,2.88911118 L4.6670001,2.88911118 L4.6670001,1.11111111 L6.44500017,1.11111111 L6.44500017,2.88911118 L13.5570004,2.88911118 L13.5570004,1.11111111 L15.3350005,1.11111111 L15.3350005,2.88911118 L16.2240005,2.88911118 Z M16.2240005,17.1131117 L16.2240005,7.33411135 L3.77800007,7.33411135 L3.77800007,17.1131117 L16.2240005,17.1131117 Z M7.33400021,9.11211142 L5.55600014,9.11211142 L5.55600014,10.8901115 L7.33400021,10.8901115 L7.33400021,9.11211142 Z M10.8900003,9.11211142 L9.11200027,9.11211142 L9.11200027,10.8901115 L10.8900003,10.8901115 L10.8900003,9.11211142 Z M14.4460005,9.11211142 L12.6680004,9.11211142 L12.6680004,10.8901115 L14.4460005,10.8901115 L14.4460005,9.11211142 Z" id="path-1"></path>
    </defs>
    <g id="Symbols" stroke="none" stroke-width="1" fill="none" fill-rule="evenodd">
        <g id="date-range">
            <mask id="mask-2" fill="white">
                <use xlink:href="#path-1"></use>
            </mask>
            <use id="Icons/Actions/date-range" fill="#000000" xlink:href="#path-1"></use>
        </g>
    </g>
</svg>