<?xml version="1.0" encoding="UTF-8"?>
<svg width="20px" height="20px" viewBox="0 0 20 20" version="1.1" xmlns="http://www.w3.org/2000/svg" xmlns:xlink="http://www.w3.org/1999/xlink">
    <!-- Generator: Sketch 54.1 (76490) - https://sketchapp.com -->
    <title>2. Style/Icons/Actions/drag</title>
    <desc>Created with Sketch.</desc>
    <defs>
        <path d="M2,12 C3.1,12 4,12.9 4,14 C4,15.1 3.1,16 2,16 C0.9,16 0,15.1 0,14 C0,12.9 0.9,12 2,12 Z M2,0 C3.1,0 4,0.9 4,2 C4,3.1 3.1,4 2,4 C0.9,4 0,3.1 0,2 C0,0.9 0.9,0 2,0 Z M2,6 C3.1,6 4,6.9 4,8 C4,9.1 3.1,10 2,10 C0.9,10 0,9.1 0,8 C0,6.9 0.9,6 2,6 Z M8,12 C9.1,12 10,12.9 10,14 C10,15.1 9.1,16 8,16 C6.9,16 6,15.1 6,14 C6,12.9 6.9,12 8,12 Z M8,0 C9.1,0 10,0.9 10,2 C10,3.1 9.1,4 8,4 C6.9,4 6,3.1 6,2 C6,0.9 6.9,0 8,0 Z M8,6 C9.1,6 10,6.9 10,8 C10,9.1 9.1,10 8,10 C6.9,10 6,9.1 6,8 C6,6.9 6.9,6 8,6 Z" id="path-1"></path>
    </defs>
    <g id="2.-Style/Icons/Actions/drag" stroke="none" stroke-width="1" fill="none" fill-rule="evenodd">
        <g id="Atoms/Icons/Actions/drag" transform="translate(5.000000, 2.000000)">
            <mask id="mask-2" fill="white">
                <use xlink:href="#path-1"></use>
            </mask>
            <use id="Drag" fill="#000000" xlink:href="#path-1"></use>
        </g>
    </g>
</svg>