<?xml version="1.0" encoding="UTF-8"?>
<svg width="20px" height="20px" viewBox="0 0 20 20" version="1.1" xmlns="http://www.w3.org/2000/svg" xmlns:xlink="http://www.w3.org/1999/xlink">
    <!-- Generator: Sketch 46.2 (44496) - http://www.bohemiancoding.com/sketch -->
    <title>meatballs</title>
    <desc>Created with Sketch.</desc>
    <defs>
        <path d="M4,8 C2.9,8 2,8.9 2,10 C2,11.1 2.9,12 4,12 C5.1,12 6,11.1 6,10 C6,8.9 5.1,8 4,8 L4,8 Z M16,8 C14.9,8 14,8.9 14,10 C14,11.1 14.9,12 16,12 C17.1,12 18,11.1 18,10 C18,8.9 17.1,8 16,8 L16,8 Z M10,8 C8.9,8 8,8.9 8,10 C8,11.1 8.9,12 10,12 C11.1,12 12,11.1 12,10 C12,8.9 11.1,8 10,8 L10,8 Z" id="path-1"></path>
    </defs>
    <g id="Symbols" stroke="none" stroke-width="1" fill="none" fill-rule="evenodd">
        <g id="meatballs">
            <mask id="mask-2" fill="white">
                <use xlink:href="#path-1"></use>
            </mask>
            <use id="Icons/Actions/metballs" fill="#000000" xlink:href="#path-1"></use>
        </g>
    </g>
</svg>