<?xml version="1.0" encoding="UTF-8"?>
<svg width="20px" height="20px" viewBox="0 0 20 20" version="1.1" xmlns="http://www.w3.org/2000/svg" xmlns:xlink="http://www.w3.org/1999/xlink">
    <!-- Generator: Sketch 46.2 (44496) - http://www.bohemiancoding.com/sketch -->
    <title>engagement</title>
    <desc>Created with Sketch.</desc>
    <defs>
        <path d="M15.4225436,5.39561678 C15.4225436,4.76240463 15.7949129,4.23058016 16.4327336,4.23058016 C17.0696325,4.23058016 17.5848663,4.74212709 17.5848663,5.37533924 L17.0382945,16.1897179 C17.0382945,17.0837729 15.6059631,18.9271852 13.915554,18.9271852 L9.99738102,19 C9.16784545,19 8.55491084,18.7253316 7.2801912,17.5990066 C7.2801912,17.5990066 3.12237462,13.4034001 2.50944001,12.4780071 C2.09467223,11.8512469 3.12790485,10.595883 4.05237615,11.147985 C4.0744971,11.154437 6.58338132,13.1573045 6.78523498,13.3462543 C7.10045849,13.6402786 7.221202,13.6476522 7.221202,13.4181474 C7.221202,13.2669876 6.43867345,4.05269087 6.43867345,4.05269087 C6.43867345,3.41947872 6.9529855,2.90793179 7.59080618,2.90793179 C8.22770515,2.90793179 8.74293891,3.41947872 8.74293891,4.05269087 L9.16415863,9.07967638 L9.46002631,9.07967638 L9.51072015,2.14475908 C9.51072015,1.51154693 10.0250322,1 10.6628529,1 C11.2997519,1 11.8149856,1.51154693 11.8149856,2.14475908 L11.9698322,9.08428491 L12.3790698,9.09534538 L12.5827669,2.90793179 C12.5827669,2.27471965 13.0980006,1.76317272 13.7348996,1.76317272 C14.3717985,1.76317272 14.8870323,2.27471965 14.8870323,2.90793179 L14.8363385,9.07967638 L15.2363589,9.07967638 L15.4225436,5.39561678 Z M12.0371168,16.1666752 L12.4104078,15.8293307 C13.7376647,14.6237391 14.6142073,13.83015 14.6142073,12.8559066 C14.6142073,12.0623176 13.9902122,11.4383225 13.1966232,11.4383225 C12.7477523,11.4383225 12.3173155,11.6466281 12.0371168,11.9765989 C11.7559964,11.6466281 11.3255596,11.4383225 10.8766887,11.4383225 C10.0840214,11.4383225 9.46002631,12.0623176 9.46002631,12.8559066 C9.46002631,13.83015 10.3365689,14.6237391 11.6629041,15.8274873 L12.0371168,16.1666752 Z" id="path-1"></path>
    </defs>
    <g id="Symbols" stroke="none" stroke-width="1" fill="none" fill-rule="evenodd">
        <g id="engagement">
            <mask id="mask-2" fill="white">
                <use xlink:href="#path-1"></use>
            </mask>
            <use fill="#000000" xlink:href="#path-1"></use>
        </g>
    </g>
</svg>