<?xml version="1.0" encoding="UTF-8"?>
<svg width="20px" height="20px" viewBox="0 0 20 20" version="1.1" xmlns="http://www.w3.org/2000/svg" xmlns:xlink="http://www.w3.org/1999/xlink">
    <!-- Generator: Sketch 46.2 (44496) - http://www.bohemiancoding.com/sketch -->
    <title>export</title>
    <desc>Created with Sketch.</desc>
    <defs>
        <path d="M15.8267407,8.44563232 C15.2882657,5.7215823 12.8849251,3.66666667 10.0025001,3.66666667 C7.71398129,3.66666667 5.73033441,4.96534167 4.73653128,6.86188231 C2.35694689,7.11924169 0.5,9.13456357 0.5,11.5854167 C0.5,14.2104824 2.62618439,16.3366667 5.25125003,16.3366667 L15.5456251,16.3366667 C17.7312001,16.3366667 19.5050001,14.5628667 19.5050001,12.3772917 C19.5050001,10.2867417 17.877697,8.5921292 15.8267407,8.44563232 L15.8267407,8.44563232 Z M13.9618751,10.7935417 L10.0025001,14.7529167 L6.04312503,10.7935417 L8.41875005,10.7935417 L8.41875005,7.62604169 L11.5862501,7.62604169 L11.5862501,10.7935417 L13.9618751,10.7935417 L13.9618751,10.7935417 Z" id="path-1"></path>
    </defs>
    <g id="Symbols" stroke="none" stroke-width="1" fill="none" fill-rule="evenodd">
        <g id="export">
            <mask id="mask-2" fill="white">
                <use xlink:href="#path-1"></use>
            </mask>
            <use id="Icons/Actions/export" fill="#000000" xlink:href="#path-1"></use>
        </g>
    </g>
</svg>