<?xml version="1.0" encoding="UTF-8"?>
<svg width="20px" height="20px" viewBox="0 0 20 20" version="1.1" xmlns="http://www.w3.org/2000/svg" xmlns:xlink="http://www.w3.org/1999/xlink">
    <!-- Generator: Sketch 46.2 (44496) - http://www.bohemiancoding.com/sketch -->
    <title>external-link</title>
    <desc>Created with Sketch.</desc>
    <defs>
        <path d="M16.2222222,16.2222222 L3.77777778,16.2222222 L3.77777778,3.77777778 L10,3.77777778 L10,2 L3.77777778,2 C2.79111111,2 2,2.8 2,3.77777778 L2,16.2222222 C2,17.2 2.79111111,18 3.77777778,18 L16.2222222,18 C17.2,18 18,17.2 18,16.2222222 L18,10 L16.2222222,10 L16.2222222,16.2222222 L16.2222222,16.2222222 Z M11.7777778,2 L11.7777778,3.77777778 L14.9688889,3.77777778 L6.23111111,12.5155556 L7.48444444,13.7688889 L16.2222222,5.03111111 L16.2222222,8.22222222 L18,8.22222222 L18,2 L11.7777778,2 L11.7777778,2 Z" id="path-1"></path>
    </defs>
    <g id="Symbols" stroke="none" stroke-width="1" fill="none" fill-rule="evenodd">
        <g id="external-link">
            <mask id="mask-2" fill="white">
                <use xlink:href="#path-1"></use>
            </mask>
            <use id="Icons/Actions/external-link" fill="#000000" xlink:href="#path-1"></use>
        </g>
    </g>
</svg>