<?xml version="1.0" encoding="UTF-8"?>
<svg width="20px" height="20px" viewBox="0 0 20 20" version="1.1" xmlns="http://www.w3.org/2000/svg" xmlns:xlink="http://www.w3.org/1999/xlink">
    <!-- Generator: Sketch 47.1 (45422) - http://www.bohemiancoding.com/sketch -->
    <title>face-neutral-white</title>
    <desc>Created with Sketch.</desc>
    <defs>
        <path d="M12.8,6.7999 C12.1376,6.7999 11.6,7.3375 11.6,7.9999 C11.6,8.6631 12.1376,9.1999 12.8,9.1999 C13.4624,9.1999 14,8.6631 14,7.9999 C14,7.3375 13.4624,6.7999 12.8,6.7999 L12.8,6.7999 Z" id="path-1"></path>
    </defs>
    <g id="Symbols" stroke="none" stroke-width="1" fill="none" fill-rule="evenodd">
        <g id="face-neutral-white">
            <path d="M9.992,1.9999 C5.576,1.9999 2,5.5839 2,9.9999 C2,14.4159 5.576,17.9999 9.992,17.9999 C14.416,17.9999 18,14.4159 18,9.9999 C18,5.5839 14.416,1.9999 9.992,1.9999 L9.992,1.9999 Z" id="Path" fill="#000000"></path>
            <path d="M10,16.3999 C6.464,16.3999 3.6,13.5359 3.6,9.9999 C3.6,6.4639 6.464,3.5999 10,3.5999 C13.536,3.5999 16.4,6.4639 16.4,9.9999 C16.4,13.5359 13.536,16.3999 10,16.3999 L10,16.3999 Z" id="Path" fill="#FFFFFF"></path>
            <path d="M8.4,7.9999 C8.4,7.3375 7.8624,6.7999 7.2,6.7999 C6.5376,6.7999 6,7.3375 6,7.9999 C6,8.6631 6.5376,9.1999 7.2,9.1999 C7.8624,9.1999 8.4,8.6631 8.4,7.9999 L8.4,7.9999 Z" id="Path" fill="#000000"></path>
            <mask id="mask-2" fill="white">
                <use xlink:href="#path-1"></use>
            </mask>
            <use id="Path" fill="#000000" xlink:href="#path-1"></use>
            <polygon id="Path" fill="#000000" points="7.6 12.7999 12.4 12.7999 12.4 11.5999 7.6 11.5999"></polygon>
        </g>
    </g>
</svg>