<?xml version="1.0" encoding="UTF-8"?>
<svg width="20px" height="20px" viewBox="0 0 20 20" version="1.1" xmlns="http://www.w3.org/2000/svg" xmlns:xlink="http://www.w3.org/1999/xlink">
    <!-- Generator: Sketch 46.2 (44496) - http://www.bohemiancoding.com/sketch -->
    <title>very-dissatisfied</title>
    <desc>Created with Sketch.</desc>
    <defs>
        <path d="M9.992,2 C5.576,2 2,5.576 2,10 C2,14.424 5.576,18 9.992,18 C14.408,18 18,14.424 18,10 C18,5.576 14.416,2 9.992,2 L9.992,2 Z M10,16.4 C6.464,16.4 3.6,13.536 3.6,10 C3.6,6.464 6.464,3.6 10,3.6 C13.536,3.6 16.4,6.464 16.4,10 C16.4,13.536 13.536,16.4 10,16.4 L10,16.4 Z M13.344,6.608 L12.496,7.456 L11.648,6.608 L10.8,7.456 L11.648,8.304 L10.8,9.152 L11.648,10 L12.496,9.152 L13.344,10 L14.192,9.152 L13.344,8.304 L14.192,7.456 L13.344,6.608 Z M6.656,10 L7.504,9.152 L8.352,10 L9.2,9.152 L8.352,8.304 L9.2,7.456 L8.352,6.608 L7.504,7.456 L6.656,6.608 L5.808,7.456 L6.656,8.304 L5.808,9.152 L6.656,10 Z M10,11.6 C8.136,11.6 6.552,12.768 5.912,14.4 L14.088,14.4 C13.448,12.768 11.864,11.6 10,11.6 L10,11.6 Z" id="path-1"></path>
    </defs>
    <g id="Symbols" stroke="none" stroke-width="1" fill="none" fill-rule="evenodd">
        <g id="very-dissatisfied">
            <mask id="mask-2" fill="white">
                <use xlink:href="#path-1"></use>
            </mask>
            <use id="Icons/Sentiment/very-dissatisfied" fill="#000000" xlink:href="#path-1"></use>
        </g>
    </g>
</svg>