<?xml version="1.0" encoding="UTF-8"?>
<svg width="20px" height="20px" viewBox="0 0 20 20" version="1.1" xmlns="http://www.w3.org/2000/svg" xmlns:xlink="http://www.w3.org/1999/xlink">
    <!-- Generator: Sketch 47.1 (45422) - http://www.bohemiancoding.com/sketch -->
    <title>face-dissatisfied-white</title>
    <desc>Created with Sketch.</desc>
    <defs></defs>
    <g id="Symbols" stroke="none" stroke-width="1" fill="none" fill-rule="evenodd">
        <g id="face-dissatisfied-white">
            <path d="M9.992,2 C5.576,2 2,5.5832 2,10 C2,14.416 5.576,18 9.992,18 C14.416,18 18,14.416 18,10 C18,5.5832 14.416,2 9.992,2" id="Icons/Sentiment/dissatisfied" fill="#000000"></path>
            <path d="M10,16.4 C6.464,16.4 3.6,13.536 3.6,10 C3.6,6.464 6.464,3.6 10,3.6 C13.536,3.6 16.4,6.464 16.4,10 C16.4,13.536 13.536,16.4 10,16.4" id="Path" fill="#FFFFFF"></path>
            <path d="M10,11.6 C8.136,11.6 6.544,12.7592 5.904,14.4 L7.24,14.4 C7.792,13.448 8.816,12.8 10,12.8 C11.184,12.8 12.2,13.448 12.76,14.4 L14.096,14.4 C13.456,12.7592 11.864,11.6 10,11.6" id="Path" fill="#000000"></path>
            <path d="M12.8,9.2 C13.4624,9.2 14,8.6624 14,8 C14,7.3368 13.4624,6.8 12.8,6.8 C12.1376,6.8 11.6,7.3368 11.6,8 C11.6,8.6624 12.1376,9.2 12.8,9.2" id="Path" fill="#000000"></path>
            <path d="M7.2,9.2 C7.8624,9.2 8.4,8.6624 8.4,8 C8.4,7.3368 7.8624,6.8 7.2,6.8 C6.5376,6.8 6,7.3368 6,8 C6,8.6624 6.5376,9.2 7.2,9.2" id="Path" fill="#000000"></path>
        </g>
    </g>
</svg>