<?xml version="1.0" encoding="UTF-8"?>
<svg width="20px" height="20px" viewBox="0 0 20 20" version="1.1" xmlns="http://www.w3.org/2000/svg" xmlns:xlink="http://www.w3.org/1999/xlink">
    <!-- Generator: Sketch 46.2 (44496) - http://www.bohemiancoding.com/sketch -->
    <title>grid-view</title>
    <desc>Created with Sketch.</desc>
    <defs>
        <path d="M6.00753784,15.0161133 L6.00753784,11.0161133 L2.00753784,11.0161133 L2.00753784,15.0161133 L6.00753784,15.0161133 Z M11.9943848,15.0161133 L11.9943848,11.0161133 L7.99438477,11.0161133 L7.99438477,15.0161133 L11.9943848,15.0161133 Z M17.9854736,15.0161133 L17.9854736,11.0161133 L13.9854736,11.0161133 L13.9854736,15.0161133 L17.9854736,15.0161133 Z M6.00753784,8.99938965 L6.00753784,4.99938965 L2.00753784,4.99938965 L2.00753784,8.99938965 L6.00753784,8.99938965 Z M11.9943848,8.99938965 L11.9943848,4.99938965 L7.99438477,4.99938965 L7.99438477,8.99938965 L11.9943848,8.99938965 Z M13.9854736,8.99938965 L17.9854736,8.99938965 L17.9854736,4.99938965 L13.9854736,4.99938965 L13.9854736,8.99938965 Z" id="path-1"></path>
    </defs>
    <g id="Symbols" stroke="none" stroke-width="1" fill="none" fill-rule="evenodd">
        <g id="grid-view">
            <mask id="mask-2" fill="white">
                <use xlink:href="#path-1"></use>
            </mask>
            <use fill="#000000" xlink:href="#path-1"></use>
        </g>
    </g>
</svg>