<?xml version="1.0" encoding="UTF-8"?>
<svg width="20px" height="20px" viewBox="0 0 20 20" version="1.1" xmlns="http://www.w3.org/2000/svg" xmlns:xlink="http://www.w3.org/1999/xlink">
    <!-- Generator: Sketch 46.2 (44496) - http://www.bohemiancoding.com/sketch -->
    <title>import</title>
    <desc>Created with Sketch.</desc>
    <defs>
        <path d="M15.8227083,8.444375 C15.284375,5.72104167 12.8816667,3.66666667 10,3.66666667 C7.71208333,3.66666667 5.72895833,4.965 4.73541667,6.86104167 C2.35645833,7.11833333 0.5,9.133125 0.5,11.5833333 C0.5,14.2077083 2.625625,16.3333333 5.25,16.3333333 L15.5416667,16.3333333 C17.7266667,16.3333333 19.5,14.56 19.5,12.375 C19.5,10.285 17.873125,8.59083333 15.8227083,8.444375 L15.8227083,8.444375 Z M11.5833333,13.9583333 L8.41666667,13.9583333 L8.41666667,10.7916667 L6.04166667,10.7916667 L10,6.83333333 L13.9583333,10.7916667 L11.5833333,10.7916667 L11.5833333,13.9583333 Z" id="path-1"></path>
    </defs>
    <g id="Symbols" stroke="none" stroke-width="1" fill="none" fill-rule="evenodd">
        <g id="import">
            <mask id="mask-2" fill="white">
                <use xlink:href="#path-1"></use>
            </mask>
            <use id="Icons/Actions/import" fill="#000000" xlink:href="#path-1"></use>
        </g>
    </g>
</svg>