<?xml version="1.0" encoding="UTF-8"?>
<svg width="12px" height="16px" viewBox="0 0 12 16" version="1.1" xmlns="http://www.w3.org/2000/svg" xmlns:xlink="http://www.w3.org/1999/xlink">
    <!-- Generator: Sketch 46.2 (44496) - http://www.bohemiancoding.com/sketch -->
    <title>Atoms/Icons/Navigational/Engagement/insight</title>
    <desc>Created with Sketch.</desc>
    <defs>
        <path d="M7.6030036,10.8 C7.6030036,12.128 8.6750036,13.2 10.0030036,13.2 C11.3310036,13.2 12.4030036,12.128 12.4030036,10.8 C12.4030036,9.472 11.3310036,8.4 10.0030036,8.4 C8.6750036,8.4 7.6030036,9.472 7.6030036,10.8 L7.6030036,10.8 Z M16.0020667,16.072 L16.0020667,6.8 L11.6030036,2 L5.59793329,2 C4.71793329,2 4.00593329,2.72 4.00593329,3.6 L3.99793329,16.4 C3.99793329,17.28 4.70993329,18 5.58993329,18 L14.4020667,18 C14.7620667,18 15.0820667,17.88 15.3540667,17.68 L12.2110036,14.136 C11.5710036,14.552 10.8190036,14.8 10.0030036,14.8 C7.7950036,14.8 6.0030036,13.008 6.0030036,10.8 C6.0030036,8.592 7.7950036,6.8 10.0030036,6.8 C12.2110036,6.8 14.0030036,8.592 14.0030036,10.8 C14.0030036,11.616 13.7550036,12.368 13.3390036,13 L16.0020667,16.072 Z" id="path-1"></path>
    </defs>
    <g id="Atoms" stroke="none" stroke-width="1" fill="none" fill-rule="evenodd">
        <g id="Atoms/Icons" transform="translate(-204.000000, -642.000000)">
            <g id="Atoms/Icons/Navigational/Engagement/insight" transform="translate(200.000000, 640.000000)">
                <mask id="mask-2" fill="white">
                    <use xlink:href="#path-1"></use>
                </mask>
                <use id="Icons/Navigational/Engagement/insight" fill="#000000" fill-rule="evenodd" xlink:href="#path-1"></use>
            </g>
        </g>
    </g>
</svg>