<?xml version="1.0" encoding="UTF-8"?>
<svg width="20px" height="20px" viewBox="0 0 20 20" version="1.1" xmlns="http://www.w3.org/2000/svg" xmlns:xlink="http://www.w3.org/1999/xlink">
  <title>insights</title>
  <path d="M2.29 14.875C1.88844 14.875 1.5453 14.732 1.26058 14.4461C0.975857 14.1601 0.833496 13.8164 0.833496 13.4148C0.833496 13.0133 0.975816 12.6701 1.26045 12.3854C1.54509 12.1007 1.88727 11.9583 2.28698 11.9583C2.35966 11.9583 2.43072 11.9618 2.50016 11.9688C2.56961 11.9757 2.65989 11.9931 2.771 12.0208L6.93766 7.85417C6.90988 7.74306 6.89252 7.65278 6.88558 7.58333C6.87863 7.51389 6.87516 7.44283 6.87516 7.37015C6.87516 6.97044 7.01814 6.62826 7.3041 6.34363C7.59004 6.05899 7.93379 5.91667 8.33535 5.91667C8.73689 5.91667 9.08002 6.05996 9.36475 6.34654C9.64947 6.63313 9.79183 6.97764 9.79183 7.38008C9.79183 7.40447 9.771 7.5625 9.72933 7.85417L12.021 10.1458C12.1321 10.1181 12.2224 10.1007 12.2918 10.0938C12.3613 10.0868 12.4307 10.0833 12.5002 10.0833C12.5696 10.0833 12.6391 10.0868 12.7085 10.0938C12.7779 10.1007 12.8682 10.1181 12.9793 10.1458L16.3127 6.8125C16.2849 6.70139 16.2675 6.61111 16.2606 6.54167C16.2536 6.47222 16.2502 6.40116 16.2502 6.32848C16.2502 5.92877 16.3931 5.5866 16.6791 5.30196C16.965 5.01732 17.3088 4.875 17.7104 4.875C18.1119 4.875 18.455 5.01798 18.7397 5.30394C19.0245 5.58988 19.1668 5.93363 19.1668 6.33519C19.1668 6.73673 19.0245 7.07986 18.7399 7.36458C18.4552 7.64931 18.1131 7.79167 17.7134 7.79167C17.6407 7.79167 17.5696 7.78819 17.5002 7.78125C17.4307 7.77431 17.3404 7.75694 17.2293 7.72917L13.896 11.0625C13.9238 11.1736 13.9411 11.2639 13.9481 11.3333C13.955 11.4028 13.9585 11.4738 13.9585 11.5465C13.9585 11.9462 13.8155 12.2884 13.5296 12.573C13.2436 12.8577 12.8999 13 12.4983 13C12.0968 13 11.7536 12.8577 11.4689 12.573C11.1842 12.2884 11.0418 11.9462 11.0418 11.5465C11.0418 11.4738 11.0453 11.4028 11.0522 11.3333C11.0592 11.2639 11.0766 11.1736 11.1043 11.0625L8.81266 8.77083C8.70155 8.79861 8.61127 8.81597 8.54183 8.82292C8.47239 8.82986 8.4012 8.83333 8.32829 8.83333C8.30398 8.83333 8.146 8.8125 7.85433 8.77083L3.68766 12.9375C3.71544 13.0486 3.7328 13.1389 3.73975 13.2083C3.74669 13.2778 3.75016 13.3488 3.75016 13.4215C3.75016 13.8212 3.60718 14.1634 3.32123 14.448C3.03528 14.7327 2.69154 14.875 2.29 14.875ZM3.3335 5.66667L2.91156 4.75527L2.00016 4.33333L2.91156 3.9114L3.3335 3L3.75543 3.9114L4.66683 4.33333L3.75543 4.75527L3.3335 5.66667ZM12.5002 4.60417L11.8602 3.22327L10.4793 2.58333L11.8602 1.9434L12.5002 0.5625L13.1401 1.9434L14.521 2.58333L13.1401 3.22327L12.5002 4.60417Z" fill="#000000" />
</svg>
