<?xml version="1.0" encoding="UTF-8"?>
<svg width="20px" height="20px" viewBox="0 0 20 20" version="1.1" xmlns="http://www.w3.org/2000/svg" xmlns:xlink="http://www.w3.org/1999/xlink">
    <!-- Generator: Sketch 45.2 (43514) - http://www.bohemiancoding.com/sketch -->
    <title>invisible</title>
    <desc>Created with Sketch.</desc>
    <defs></defs>
    <g id="Symbols" stroke="none" stroke-width="1" fill="none" fill-rule="evenodd">
        <g id="invisible" fill="#000000">
            <path d="M10.0026317,5.49742231 C12.2614738,5.49742231 14.094737,7.33068549 14.094737,9.58952763 C14.094737,10.1215013 13.9883423,10.6207382 13.8001054,11.0872382 L16.1898949,13.4770277 C17.4257107,12.4458171 18.3996318,11.1117908 18.9970792,9.58952763 C17.5812107,5.99665916 14.0865528,3.45136966 9.99444748,3.45136966 C8.84865799,3.45136966 7.75197377,3.65597492 6.73713165,4.0242644 L8.50492114,5.7920539 C8.97142115,5.60381705 9.470658,5.49742231 10.0026317,5.49742231 L10.0026317,5.49742231 Z M1.81842106,3.26313281 L3.68442109,5.12913284 L4.06089477,5.50560652 C2.70231581,6.56136969 1.63836843,7.96905392 1,9.58952763 C2.41586844,13.1823961 5.91052638,15.7276856 10.0026317,15.7276856 C11.2711843,15.7276856 12.4824475,15.4821593 13.5873159,15.0402119 L13.9310528,15.3839488 L16.3290265,17.7737383 L17.3684213,16.7343435 L2.85781581,2.22373806 L1.81842106,3.26313281 L1.81842106,3.26313281 Z M6.34428954,7.78900129 L7.61284219,9.05755394 C7.57192113,9.22942236 7.5473685,9.40947499 7.5473685,9.58952763 C7.5473685,10.9481066 8.64405273,12.0447908 10.0026317,12.0447908 C10.1826843,12.0447908 10.362737,12.0202382 10.5346054,11.9793171 L11.803158,13.2478698 C11.2548159,13.5179487 10.6491843,13.6816329 10.0026317,13.6816329 C7.74378956,13.6816329 5.91052638,11.8483698 5.91052638,9.58952763 C5.91052638,8.94297499 6.07421059,8.3373434 6.34428954,7.78900129 L6.34428954,7.78900129 Z M9.87168432,7.15063286 L12.4497107,9.72865921 L12.4660791,9.59771184 C12.4660791,8.23913287 11.3693949,7.14244865 10.0108159,7.14244865 L9.87168432,7.15063286 L9.87168432,7.15063286 Z" id="Icons/Views/invisible"></path>
        </g>
    </g>
</svg>