<?xml version="1.0" encoding="UTF-8"?>
<svg width="20px" height="20px" viewBox="0 0 20 20" version="1.1" xmlns="http://www.w3.org/2000/svg" xmlns:xlink="http://www.w3.org/1999/xlink">
    <!-- Generator: Sketch 46.2 (44496) - http://www.bohemiancoding.com/sketch -->
    <title>kiosk</title>
    <desc>Created with Sketch.</desc>
    <defs>
        <path d="M14.3532715,2 L14.6666667,2 C15.5866667,2 16.0199382,2.74666667 16.0199382,3.66666667 L16.0199382,16.3333333 C16.0199382,17.2533333 15.2732715,18 14.3532715,18 L5.67692057,18 C4.75692057,18 4.01025391,17.2533333 4.01025391,16.3333333 L4.01025391,3.66666667 C4.01025391,2.74666667 4.75692057,2 5.67692057,2 L14.3532715,2 Z M5,14.6666667 L15,14.6666667 L15,4 L5,4 L5,14.6666667 Z M9,16.3333333 C9,16.8862222 9.44622222,17.3333333 10,17.3333333 C10.5537778,17.3333333 11,16.8862222 11,16.3333333 C11,15.7795556 10.5537778,15.3333333 10,15.3333333 C9.44622222,15.3333333 9,15.7795556 9,16.3333333 Z" id="path-1"></path>
    </defs>
    <g id="Symbols" stroke="none" stroke-width="1" fill="none" fill-rule="evenodd">
        <g id="kiosk">
            <mask id="mask-2" fill="white">
                <use xlink:href="#path-1"></use>
            </mask>
            <use fill="#000000" xlink:href="#path-1"></use>
        </g>
    </g>
</svg>