<?xml version="1.0" encoding="UTF-8"?>
<svg width="16" height="16" viewBox="0 0 16 16" fill="none" xmlns="http://www.w3.org/2000/svg">
<path d="M3.26641 12.7333C0.666406 10.1333 0.666406 5.8666 3.26641 3.2666" stroke="black" stroke-width="1.5" stroke-linecap="round" stroke-linejoin="round"/>
<path d="M5.1998 10.8C3.66647 9.26663 3.66647 6.7333 5.1998 5.1333" stroke="black" stroke-width="1.5" stroke-linecap="round" stroke-linejoin="round"/>
<path d="M8 10C9.10457 10 10 9.10457 10 8C10 6.89543 9.10457 6 8 6C6.89543 6 6 6.89543 6 8C6 9.10457 6.89543 10 8 10Z" fill="black"/>
<path d="M10.7998 5.19995C12.3331 6.73328 12.3331 9.26662 10.7998 10.8666" stroke="black" stroke-width="1.5" stroke-linecap="round" stroke-linejoin="round"/>
<path d="M12.7334 3.2666C15.3334 5.8666 15.3334 10.0666 12.7334 12.6666" stroke="black" stroke-width="1.5" stroke-linecap="round" stroke-linejoin="round"/>
</svg>
