<?xml version="1.0" encoding="UTF-8"?>
<svg width="20px" height="20px" viewBox="0 0 20 20" version="1.1" xmlns="http://www.w3.org/2000/svg" xmlns:xlink="http://www.w3.org/1999/xlink">
    <!-- Generator: Sketch 47.1 (45422) - http://www.bohemiancoding.com/sketch -->
    <title>open-white</title>
    <desc>Created with Sketch.</desc>
    <defs></defs>
    <g id="Symbols" stroke="none" stroke-width="1" fill="none" fill-rule="evenodd">
        <g id="open-white">
            <path d="M15.3609508,2.63636364 C16.2601326,2.63636364 16.9973145,3.37272727 16.9973145,4.27272727 L16.9973145,17.3636364 C16.9973145,18.2636364 16.2601326,19 15.3609508,19 L4.63557018,19 C3.73557018,19 2.99920654,18.2636364 2.99920654,17.3636364 L2.99920654,4.27272727 C2.99920654,3.37272727 3.73557018,2.63636364 4.63557018,2.63636364 L7.69190909,2.63636364 C8.03554545,1.68727273 8.93636364,1 10,1 C11.0628182,1 11.9636364,1.68727273 12.3072727,2.63636364 L15.3609508,2.63636364 Z M10.8181818,3.45454545 C10.8181818,3.00454545 10.4491818,2.63636364 10,2.63636364 C9.55,2.63636364 9.18181818,3.00454545 9.18181818,3.45454545 C9.18181818,3.90454545 9.55,4.27272727 10,4.27272727 C10.4491818,4.27272727 10.8181818,3.90454545 10.8181818,3.45454545 Z" id="Icons/Surveys/survey-open" fill="#000000"></path>
            <polygon id="Path" fill="#FFFFFF" points="5.90909091 14.9090909 7.54545455 14.9090909 7.54545455 9.18181818 5.90909091 9.18181818"></polygon>
            <polygon id="Path" fill="#FFFFFF" points="9.18181818 14.9090909 10.8181818 14.9090909 10.8181818 6.72727273 9.18181818 6.72727273"></polygon>
            <polygon id="Path" fill="#FFFFFF" points="12.4545455 14.9090909 14.0909091 14.9090909 14.0909091 11.6363636 12.4545455 11.6363636"></polygon>
        </g>
    </g>
</svg>