<svg width="20" height="20" viewBox="0 0 20 20" fill="none" xmlns="http://www.w3.org/2000/svg">
    <title>percentage</title>
    <path fill-rule="evenodd" clip-rule="evenodd"
          d="M16.59 2L2.0025 16.5875L3.4167 18.0017L18.0042 3.4142L16.59 2ZM5.5 9.00437C7.43 9.00437 9 7.43437 9 5.50437C9 3.57437 7.43 2.00437 5.5 2.00437C3.57 2.00437 2 3.57437 2 5.50437C2 7.43437 3.57 9.00437 5.5 9.00437ZM5.5 4.00437C6.33 4.00437 7 4.67437 7 5.50437C7 6.33437 6.33 7.00437 5.5 7.00437C4.67 7.00437 4 6.33437 4 5.50437C4 4.67437 4.67 4.00437 5.5 4.00437ZM11 14.5044C11 12.5744 12.57 11.0044 14.5 11.0044C16.43 11.0044 18 12.5744 18 14.5044C18 16.4344 16.43 18.0044 14.5 18.0044C12.57 18.0044 11 16.4344 11 14.5044ZM13 14.5044C13 15.3344 13.67 16.0044 14.5 16.0044C15.33 16.0044 16 15.3344 16 14.5044C16 13.6744 15.33 13.0044 14.5 13.0044C13.67 13.0044 13 13.6744 13 14.5044Z"
          fill="black"/>
</svg>
