<?xml version="1.0" encoding="UTF-8"?>
<svg width="20px" height="20px" viewBox="0 0 20 20" version="1.1" xmlns="http://www.w3.org/2000/svg" xmlns:xlink="http://www.w3.org/1999/xlink">
    <!-- Generator: Sketch 46.2 (44496) - http://www.bohemiancoding.com/sketch -->
    <title>permissions</title>
    <desc>Created with Sketch.</desc>
    <defs>
        <path d="M5.90999985,11.6375756 C5.00983321,11.6375756 4.27333323,10.9010756 4.27333323,10.0009089 C4.27333323,9.1007423 5.00983321,8.36424232 5.90999985,8.36424232 C6.81016649,8.36424232 7.54666646,9.1007423 7.54666646,10.0009089 C7.54666646,10.9010756 6.81016649,11.6375756 5.90999985,11.6375756 L5.90999985,11.6375756 Z M10.533583,8.36424232 C9.86254972,6.45752572 8.04503145,5.09090909 5.90999985,5.09090909 C3.20049826,5.09090909 1,7.29222569 1,10.0009089 C1,12.7095922 3.20049826,14.9109088 5.90999985,14.9109088 C8.04503145,14.9109088 9.86254972,13.5442922 10.533583,11.6375756 L14.0933329,11.6375756 L14.0933329,14.9109088 L17.3666662,14.9109088 L17.3666662,11.6375756 L19.0033328,11.6375756 L19.0033328,8.36424232 L10.533583,8.36424232 Z" id="path-1"></path>
    </defs>
    <g id="Symbols" stroke="none" stroke-width="1" fill="none" fill-rule="evenodd">
        <g id="permissions">
            <mask id="mask-2" fill="white">
                <use xlink:href="#path-1"></use>
            </mask>
            <use id="Icons/Informational/permissions" fill="#000000" xlink:href="#path-1"></use>
        </g>
    </g>
</svg>