<svg width="20" height="20" viewBox="0 0 20 20" fill="none" xmlns="http://www.w3.org/2000/svg">
<path d="M2.5 3.33337V0.833374H4.16667V3.33337H6.66667V5.00004H4.16667V7.50004H2.5V5.00004H0V3.33337H2.5ZM5 8.33337V5.83337H7.5V3.33337H13.3333L14.8583 5.00004H17.5C18.4167 5.00004 19.1667 5.75004 19.1667 6.66671V16.6667C19.1667 17.5834 18.4167 18.3334 17.5 18.3334H4.16667C3.25 18.3334 2.5 17.5834 2.5 16.6667V8.33337H5ZM10.8333 15.8334C13.1333 15.8334 15 13.9667 15 11.6667C15 9.36671 13.1333 7.50004 10.8333 7.50004C8.53333 7.50004 6.66667 9.36671 6.66667 11.6667C6.66667 13.9667 8.53333 15.8334 10.8333 15.8334ZM8.16667 11.6667C8.16667 13.1417 9.35833 14.3334 10.8333 14.3334C12.3083 14.3334 13.5 13.1417 13.5 11.6667C13.5 10.1917 12.3083 9.00004 10.8333 9.00004C9.35833 9.00004 8.16667 10.1917 8.16667 11.6667Z" fill="#000000"/>
</svg>
