<?xml version="1.0" encoding="UTF-8"?>
<svg width="20px" height="20px" viewBox="0 0 20 20" version="1.1" xmlns="http://www.w3.org/2000/svg" xmlns:xlink="http://www.w3.org/1999/xlink">
    <!-- Generator: Sketch 47.1 (45422) - http://www.bohemiancoding.com/sketch -->
    <title>print-white</title>
    <desc>Created with Sketch.</desc>
    <defs></defs>
    <g id="Symbols" stroke="none" stroke-width="1" fill="none" fill-rule="evenodd">
        <g id="print-white">
            <path d="M15.5999996,6.79999989 L4.39999994,6.79999989 C3.07199997,6.79999989 2,7.87199987 2,9.19999983 L2,13.9999997 L5.19999992,13.9999997 L5.19999992,17.1999996 L14.7999997,17.1999996 L14.7999997,13.9999997 L17.9999996,13.9999997 L17.9999996,9.19999983 C17.9999996,7.87199987 16.9279996,6.79999989 15.5999996,6.79999989 L15.5999996,6.79999989 Z" id="Path" fill="#000000"></path>
            <polygon id="Path" fill="#000000" points="5.19999992 5.99999992 14.7999997 5.99999992 14.7999997 2.8 5.19999992 2.8"></polygon>
            <path d="M15.5999996,9.99999981 C15.1599997,9.99999981 14.7999997,9.63999982 14.7999997,9.19999983 C14.7999997,8.75999984 15.1599997,8.39999985 15.5999996,8.39999985 C16.0399996,8.39999985 16.3999996,8.75999984 16.3999996,9.19999983 C16.3999996,9.63999982 16.0399996,9.99999981 15.5999996,9.99999981 L15.5999996,9.99999981 Z" id="Path" fill="#FFFFFF"></path>
            <polygon id="Path" fill="#FFFFFF" points="6.79999987 15.5999997 13.1999997 15.5999997 13.1999997 11.5999998 6.79999987 11.5999998"></polygon>
        </g>
    </g>
</svg>