<?xml version="1.0" encoding="UTF-8"?>
<svg width="20px" height="20px" viewBox="0 0 20 20" version="1.1" xmlns="http://www.w3.org/2000/svg" xmlns:xlink="http://www.w3.org/1999/xlink">
    <!-- Generator: Sketch 46.2 (44496) - http://www.bohemiancoding.com/sketch -->
    <title>share</title>
    <desc>Created with Sketch.</desc>
    <defs>
        <path d="M14.8195556,13.3093333 C14.2088889,13.3093333 13.6622222,13.5502222 13.2453333,13.928 L7.51733333,10.5946667 C7.55822222,10.4097778 7.59022222,10.2248889 7.59022222,10.032 C7.59022222,9.83911111 7.55822222,9.65422222 7.51733333,9.47022222 L13.1804444,6.16888889 C13.6151111,6.56977778 14.184,6.81955556 14.8195556,6.81955556 C16.1528889,6.81955556 17.2293333,5.74311111 17.2293333,4.40977778 C17.2293333,3.07644444 16.1528889,2 14.8195556,2 C13.4862222,2 12.4097778,3.07644444 12.4097778,4.40977778 C12.4097778,4.60266667 12.4408889,4.78755556 12.4817778,4.97155556 L6.81955556,8.27288889 C6.38577778,7.87111111 5.81511111,7.62222222 5.18044444,7.62222222 C3.84711111,7.62222222 2.77066667,8.69866667 2.77066667,10.032 C2.77066667,11.3653333 3.84711111,12.4417778 5.18044444,12.4417778 C5.81511111,12.4417778 6.38577778,12.1928889 6.81955556,11.7911111 L12.5386667,15.1324444 C12.4986667,15.3013333 12.4737778,15.4773333 12.4737778,15.6542222 C12.4737778,16.9475556 13.5262222,18 14.8195556,18 C16.112,18 17.1653333,16.9475556 17.1653333,15.6542222 C17.1653333,14.3617778 16.112,13.3093333 14.8195556,13.3093333" id="path-1"></path>
    </defs>
    <g id="Symbols" stroke="none" stroke-width="1" fill="none" fill-rule="evenodd">
        <g id="share">
            <mask id="mask-2" fill="white">
                <use xlink:href="#path-1"></use>
            </mask>
            <use id="Icons/Actions/share" fill="#000000" xlink:href="#path-1"></use>
        </g>
    </g>
</svg>