<?xml version="1.0" encoding="UTF-8"?>
<svg width="20px" height="20px" viewBox="0 0 20 20" version="1.1" xmlns="http://www.w3.org/2000/svg" xmlns:xlink="http://www.w3.org/1999/xlink">
    <!-- Generator: Sketch 47.1 (45422) - http://www.bohemiancoding.com/sketch -->
    <title>surveys-white</title>
    <desc>Created with Sketch.</desc>
    <defs>
        <path d="M12.1933333,2.45399007 C11.8666667,1.6109202 11.0108,1 10,1 C8.9892,1 8.13333333,1.6109202 7.80666667,2.45399007 L4.55586667,2.45399007 C3.7,2.45399007 3,3.10854743 3,3.90885289 L3,17.5451372 C3,18.3454426 3.7,19 4.55586667,19 L15.4441333,19 C16.3,19 17,18.3454426 17,17.5451372 L17,3.90885289 C17,3.10854743 16.3,2.45399007 15.4441333,2.45399007 L12.1933333,2.45399007 Z M9.99953363,2.45412448 C10.399215,2.45412448 10.726465,2.78137449 10.726465,3.18192849 C10.726465,3.58160983 10.399215,3.90885983 9.99953363,3.90885983 C9.59985229,3.90885983 9.27260229,3.58160983 9.27260229,3.18192849 C9.27260229,2.78137449 9.59985229,2.45412448 9.99953363,2.45412448 L9.99953363,2.45412448 Z" id="path-1"></path>
    </defs>
    <g id="Symbols" stroke="none" stroke-width="1" fill="none" fill-rule="evenodd">
        <g id="surveys-white">
            <mask id="mask-2" fill="white">
                <use xlink:href="#path-1"></use>
            </mask>
            <use id="Icons/Navigational/Global/surveys" fill="#000000" xlink:href="#path-1"></use>
            <polygon id="Path" fill="#FFFFFF" points="6.36313159 8.54526188 13.6359357 8.54526188 13.6359357 7.09052653 6.36313159 7.09052653"></polygon>
            <polygon id="Path" fill="#FFFFFF" points="6.36313159 11.4538599 13.6359357 11.4538599 13.6359357 9.99912456 6.36313159 9.99912456"></polygon>
            <polygon id="Path" fill="#FFFFFF" points="6.36313159 14.3624579 11.454269 14.3624579 11.454269 12.9077226 6.36313159 12.9077226"></polygon>
        </g>
    </g>
</svg>