<?xml version="1.0" encoding="UTF-8"?>
<svg width="20px" height="20px" viewBox="0 0 20 20" version="1.1" xmlns="http://www.w3.org/2000/svg" xmlns:xlink="http://www.w3.org/1999/xlink">
    <!-- Generator: Sketch 54.1 (76490) - https://sketchapp.com -->
    <title>2. Style/Icons/Informational/translation</title>
    <desc>Created with Sketch.</desc>
    <defs>
        <path d="M10.725,12.5583333 L8.60833333,10.4666667 L8.63333333,10.4416667 C10.0833333,8.825 11.1166667,6.96666667 11.725,5 L14.1666667,5 L14.1666667,3.33333333 L8.33333333,3.33333333 L8.33333333,1.66666667 L6.66666667,1.66666667 L6.66666667,3.33333333 L0.833333333,3.33333333 L0.833333333,4.99166667 L10.1416667,4.99166667 C9.58333333,6.6 8.7,8.125 7.5,9.45833333 C6.725,8.6 6.08333333,7.65833333 5.575,6.66666667 L3.90833333,6.66666667 C4.51666667,8.025 5.35,9.30833333 6.39166667,10.4666667 L2.15,14.65 L3.33333333,15.8333333 L7.5,11.6666667 L10.0916667,14.2583333 L10.725,12.5583333 Z M15.4166667,8.33333333 L13.75,8.33333333 L10,18.3333333 L11.6666667,18.3333333 L12.6,15.8333333 L16.5583333,15.8333333 L17.5,18.3333333 L19.1666667,18.3333333 L15.4166667,8.33333333 Z M13.2333333,14.1666667 L14.5833333,10.5583333 L15.9333333,14.1666667 L13.2333333,14.1666667 L13.2333333,14.1666667 Z" id="path-1"></path>
    </defs>
    <g id="2.-Style/Icons/Informational/translation" stroke="none" stroke-width="1" fill="none" fill-rule="evenodd">
        <mask id="mask-2" fill="white">
            <use xlink:href="#path-1"></use>
        </mask>
        <use id="Translate" fill="#000000" fill-rule="nonzero" xlink:href="#path-1"></use>
    </g>
</svg>