<?xml version="1.0" encoding="UTF-8"?>
<svg width="20px" height="20px" viewBox="0 0 20 20" version="1.1" xmlns="http://www.w3.org/2000/svg" xmlns:xlink="http://www.w3.org/1999/xlink">
    <!-- Generator: Sketch 46.2 (44496) - http://www.bohemiancoding.com/sketch -->
    <title>users</title>
    <desc>Created with Sketch.</desc>
    <defs>
        <path d="M13.5999998,9.5999999 C14.7033331,9.5999999 15.5913331,8.70399992 15.5913331,7.59999994 C15.5913331,6.49599996 14.7033331,5.59999997 13.5999998,5.59999997 C12.4959998,5.59999997 11.5999998,6.49599996 11.5999998,7.59999994 C11.5999998,8.70399992 12.4959998,9.5999999 13.5999998,9.5999999 M7.5999999,8.79999992 C8.92733322,8.79999992 9.99199986,7.72799994 9.99199986,6.39999996 C9.99199986,5.07199998 8.92733322,4 7.5999999,4 C6.27199993,4 5.19933328,5.07199998 5.19933328,6.39999996 C5.19933328,7.72799994 6.27199993,8.79999992 7.5999999,8.79999992 M13.5999998,11.1999999 C12.1359998,11.1999999 9.19933321,11.9359999 9.19933321,13.3999998 L9.19933321,15.1999998 L17.9999997,15.1999998 L17.9999997,13.3999998 C17.9999997,11.9359999 15.0633331,11.1999999 13.5999998,11.1999999 M7.5999999,10.3999999 C5.73533327,10.3999999 2,11.3359999 2,13.1999998 L2,15.1999998 L7.5999999,15.1999998 L7.5999999,13.3999998 C7.5999999,12.7199999 7.8639999,11.5279999 9.49599987,10.6239999 C8.79999988,10.4799999 8.1279999,10.3999999 7.5999999,10.3999999" id="path-1"></path>
    </defs>
    <g id="Symbols" stroke="none" stroke-width="1" fill="none" fill-rule="evenodd">
        <g id="users">
            <mask id="mask-2" fill="white">
                <use xlink:href="#path-1"></use>
            </mask>
            <use id="Icons/Users/icon_users" fill="#000000" xlink:href="#path-1"></use>
        </g>
    </g>
</svg>