<?xml version="1.0" encoding="UTF-8"?>
<svg width="20px" height="20px" viewBox="0 0 20 20" version="1.1" xmlns="http://www.w3.org/2000/svg" xmlns:xlink="http://www.w3.org/1999/xlink">
    <!-- Generator: Sketch 46.2 (44496) - http://www.bohemiancoding.com/sketch -->
    <title>user-exit</title>
    <desc>Created with Sketch.</desc>
    <defs>
        <path d="M7.5,11.6665833 C5.275,11.6665833 0.833333333,12.78325 0.833333333,14.9999167 L0.833333333,16.6665833 L14.1666667,16.6665833 L14.1666667,14.9999167 C14.1666667,12.78325 9.725,11.6665833 7.5,11.6665833 L7.5,11.6665833 Z M17.02,8.29491667 L17.8916667,9.16658333 L17.02,10.03825 L17.89,9.16658333 L17.02,8.29491667 Z M15.8333333,6.22491667 L14.9508333,7.10741667 L16.3825,8.54158333 L13.0208333,8.54158333 L13.0208333,9.79158333 L16.3825,9.79158333 L14.9508333,11.22575 L15.8333333,12.10825 L18.775,9.16658333 L15.8333333,6.22491667 Z M7.5,9.99991667 C9.34166667,9.99991667 10.8333333,8.50825 10.8333333,6.66658333 C10.8333333,4.82491667 9.34166667,3.33325 7.5,3.33325 C5.65833333,3.33325 4.16666667,4.82491667 4.16666667,6.66658333 C4.16666667,8.50825 5.65833333,9.99991667 7.5,9.99991667 L7.5,9.99991667 Z" id="path-1"></path>
    </defs>
    <g id="Symbols" stroke="none" stroke-width="1" fill="none" fill-rule="evenodd">
        <g id="user-exit">
            <mask id="mask-2" fill="white">
                <use xlink:href="#path-1"></use>
            </mask>
            <use fill="#000000" xlink:href="#path-1"></use>
        </g>
    </g>
</svg>