<?xml version="1.0" encoding="UTF-8"?>
<svg width="20px" height="20px" viewBox="0 0 20 20" version="1.1" xmlns="http://www.w3.org/2000/svg" xmlns:xlink="http://www.w3.org/1999/xlink">
    <!-- Generator: Sketch 46.2 (44496) - http://www.bohemiancoding.com/sketch -->
    <title>user-add</title>
    <desc>Created with Sketch.</desc>
    <defs>
        <path d="M7.49878785,11.6665833 C5.27419241,11.6665833 0.833333333,12.78325 0.833333333,14.9999167 L0.833333333,16.6665833 L14.1642424,16.6665833 L14.1642424,14.9999167 C14.1642424,12.78325 9.7233833,11.6665833 7.49878785,11.6665833 L7.49878785,11.6665833 Z M16.6637878,8.33325 L16.6637878,5.83325 L14.9974242,5.83325 L14.9974242,8.33325 L12.4978787,8.33325 L12.4978787,9.99991667 L14.9974242,9.99991667 L14.9974242,12.4999167 L16.6637878,12.4999167 L16.6637878,9.99991667 L19.1633333,9.99991667 L19.1633333,8.33325 L16.6637878,8.33325 Z M7.49878785,9.99991667 C9.34011966,9.99991667 10.8315151,8.50825 10.8315151,6.66658333 C10.8315151,4.82491667 9.34011966,3.33325 7.49878785,3.33325 C5.65745604,3.33325 4.16606059,4.82491667 4.16606059,6.66658333 C4.16606059,8.50825 5.65745604,9.99991667 7.49878785,9.99991667 L7.49878785,9.99991667 Z" id="path-1"></path>
    </defs>
    <g id="Symbols" stroke="none" stroke-width="1" fill="none" fill-rule="evenodd">
        <g id="user-add">
            <mask id="mask-2" fill="white">
                <use xlink:href="#path-1"></use>
            </mask>
            <use id="Icons/Users/user-add" fill="#000000" xlink:href="#path-1"></use>
        </g>
    </g>
</svg>