<?xml version="1.0" encoding="UTF-8"?>
<svg width="138px" height="136px" viewBox="0 0 138 136" version="1.1" xmlns="http://www.w3.org/2000/svg" xmlns:xlink="http://www.w3.org/1999/xlink">
    <!-- Generator: Sketch 58 (84663) - https://sketch.com -->
    <title>2. Style/Illustrations/Relative (Iconographic)/Miscellaneous/Element empty state</title>
    <desc>Created with Sketch.</desc>
    <g id="Components" stroke="none" stroke-width="1" fill="none" fill-rule="evenodd">
        <g id="Element-Empty-State">
            <g id="2.-Style/Illustrations/Relative-(Iconographic)/Miscellaneous/Element-empty-state" transform="translate(2.000000, 2.000000)">
                <g>
                    <polygon id="Fill-1" fill-opacity="0.5" fill="#FFFFFF" points="81.7846515 44.8630033 77.5416015 39.57237 56.6167815 65.79179 60.8084865 71.1466567"></polygon>
                    <polygon id="Fill-2" fill-opacity="0.5" fill="#FFFFFF" points="45.61317 51.8660347 13.820535 92.4803013 22.30695 92.4803013 49.85622 57.2867013"></polygon>
                    <polygon id="Stroke-3" stroke="#FFFFFF" stroke-width="5" stroke-linecap="round" stroke-linejoin="round" points="77.541696 39.5721193 56.514186 65.7918527 45.612981 51.866066 13.820661 92.4800193 35.111196 92.4800193 45.612981 92.4800193 77.405301 92.4800193 77.541696 92.4800193 119.971881 92.4800193"></polygon>
                    <polyline id="Stroke-4" stroke="#FFFFFF" stroke-width="5" stroke-linecap="round" stroke-linejoin="round" points="132.717127 128.989933 132.717127 131.498793 130.194922 131.498793"></polyline>
                    <path d="M125.131297,131.49873 L6.1296525,131.49873" id="Stroke-5" stroke="#FFFFFF" stroke-width="5" stroke-linecap="round" stroke-linejoin="round" stroke-dasharray="16.076,16.076"></path>
                    <polyline id="Stroke-6" stroke="#FFFFFF" stroke-width="5" stroke-linecap="round" stroke-linejoin="round" points="3.597588 131.49873 1.075383 131.49873 1.075383 128.98987"></polyline>
                    <path d="M1.075446,123.95288 L1.075446,5.58087333" id="Stroke-7" stroke="#FFFFFF" stroke-width="5" stroke-linecap="round" stroke-linejoin="round" stroke-dasharray="16.076,16.076"></path>
                    <polyline id="Stroke-8" stroke="#FFFFFF" stroke-width="5" stroke-linecap="round" stroke-linejoin="round" points="1.075446 3.06236267 1.075446 0.553502667 3.597651 0.553502667"></polyline>
                    <path d="M8.661591,0.553565333 L127.662921,0.553565333" id="Stroke-9" stroke="#FFFFFF" stroke-width="5" stroke-linecap="round" stroke-linejoin="round" stroke-dasharray="16.076,16.076"></path>
                    <polyline id="Stroke-10" stroke="#FFFFFF" stroke-width="5" stroke-linecap="round" stroke-linejoin="round" points="130.194985 0.553565333 132.71719 0.553565333 132.71719 3.06242533"></polyline>
                    <path d="M132.717127,8.09941533 L132.717127,126.471422" id="Stroke-11" stroke="#FFFFFF" stroke-width="5" stroke-linecap="round" stroke-linejoin="round" stroke-dasharray="16.076,16.076"></path>
                    <path d="M52.706214,31.8712947 C52.706214,35.937108 49.392729,39.2330613 45.305604,39.2330613 C41.217849,39.2330613 37.904679,35.937108 37.904679,31.8712947 C37.904679,27.8054813 41.217849,24.509528 45.305604,24.509528 C49.392729,24.509528 52.706214,27.8054813 52.706214,31.8712947 Z" id="Stroke-12" stroke="#FFFFFF" stroke-width="5" stroke-linecap="round" stroke-linejoin="round"></path>
                    <path d="M56.5142175,65.7917587 L60.8086125,71.1466253" id="Stroke-14" stroke="#FFFFFF" stroke-width="5" stroke-linecap="round" stroke-linejoin="round"></path>
                </g>
            </g>
        </g>
    </g>
</svg>