<svg width="480" height="480" fill="none" xmlns="http://www.w3.org/2000/svg"><path fill-rule="evenodd" clip-rule="evenodd" d="M325.964 188.502l-10.353-12.91-51.059 63.979 10.228 13.066 51.184-64.135zM237.703 205.59l-77.578 99.104h20.708l67.223-85.877-10.353-13.227z" fill="#fff" fill-opacity=".5"/><path clip-rule="evenodd" d="M315.611 175.592l-51.309 63.979-26.6-33.981-77.577 99.103H419.146L315.611 175.592z" stroke="#fff" stroke-width="12.2" stroke-linecap="round" stroke-linejoin="round"/><path d="M450.245 393.781v6.122h-6.154" stroke="#fff" stroke-width="12.2" stroke-linecap="round" stroke-linejoin="round"/><path d="M431.736 399.903H141.359" stroke="#fff" stroke-width="12.2" stroke-linecap="round" stroke-linejoin="round" stroke-dasharray="39.23 39.23"/><path d="M135.179 399.903h-6.154v-6.122" stroke="#fff" stroke-width="12.2" stroke-linecap="round" stroke-linejoin="round"/><path d="M129.025 381.49V92.65" stroke="#fff" stroke-width="12.2" stroke-linecap="round" stroke-linejoin="round" stroke-dasharray="39.23 39.23"/><path d="M129.025 86.504v-6.122h6.155" stroke="#fff" stroke-width="12.2" stroke-linecap="round" stroke-linejoin="round"/><path d="M147.536 80.382h290.376" stroke="#fff" stroke-width="12.2" stroke-linecap="round" stroke-linejoin="round" stroke-dasharray="39.23 39.23"/><path d="M444.091 80.382h6.154v6.122" stroke="#fff" stroke-width="12.2" stroke-linecap="round" stroke-linejoin="round"/><path d="M450.245 98.795v288.841" stroke="#fff" stroke-width="12.2" stroke-linecap="round" stroke-linejoin="round" stroke-dasharray="39.23 39.23"/><path clip-rule="evenodd" d="M255.009 156.801c0 9.921-8.085 17.964-18.058 17.964-9.974 0-18.059-8.043-18.059-17.964s8.085-17.964 18.059-17.964c9.973 0 18.058 8.043 18.058 17.964z" stroke="#fff" stroke-width="12.2" stroke-linecap="round" stroke-linejoin="round"/><path d="M264.301 239.571l10.479 13.066" stroke="#fff" stroke-width="12.2" stroke-linecap="round" stroke-linejoin="round"/></svg>