<svg width="156" height="155" viewBox="0 0 156 155" fill="none" xmlns="http://www.w3.org/2000/svg">
<path d="M78.0517 142.181C113.747 142.181 142.684 113.244 142.684 77.5485C142.684 41.853 113.747 12.9161 78.0517 12.9161C42.3562 12.9161 13.4194 41.853 13.4194 77.5485C13.4194 113.244 42.3562 142.181 78.0517 142.181Z" fill="#F6F6F6"/>
<path d="M78.0515 122.807C98.8667 122.807 115.741 121.13 115.741 119.061C115.741 116.992 98.8667 115.315 78.0515 115.315C57.2363 115.315 40.3623 116.992 40.3623 119.061C40.3623 121.13 57.2363 122.807 78.0515 122.807Z" fill="#ECECEF"/>
<path d="M71.8776 42.9591L66.1428 44.5349L61.9322 57.8127L63.9213 72.6662H86.1112L88.1003 57.8127L83.8638 44.5349L78.129 42.9591C78.129 42.9591 78.129 45.8782 75.0033 45.8782C71.8776 45.8782 71.8776 42.9591 71.8776 42.9591Z" fill="#80B4D9"/>
<path d="M105.098 37.6376V117.795" stroke="#35374A" stroke-width="1.48425" stroke-miterlimit="10" stroke-linecap="round" stroke-linejoin="round"/>
<path d="M117.041 28.0279C117.041 34.6812 111.648 40.0747 104.995 40.0747C98.3414 40.0747 92.9479 34.6812 92.9479 28.0279C92.9479 21.3747 98.3414 15.9812 104.995 15.9812C111.648 15.9812 117.041 21.3747 117.041 28.0279Z" fill="#80B4D9" stroke="#35374A" stroke-width="1.48039"/>
<path d="M79.5499 118.208L85.1038 118.725L85.6204 118.234L81.2289 116.865L79.5499 118.208Z" fill="#35374A" stroke="#35374A" stroke-width="1.28333" stroke-miterlimit="10" stroke-linecap="round" stroke-linejoin="round"/>
<path d="M68.8036 118.208L74.3317 118.725L74.8742 118.234L70.4569 116.865L68.8036 118.208Z" fill="#35374A" stroke="#35374A" stroke-width="1.28333" stroke-miterlimit="10" stroke-linecap="round" stroke-linejoin="round"/>
<path d="M83.8639 54.2477V72.6402H66.1688V57.1409" stroke="#35374A" stroke-width="1.28333" stroke-miterlimit="10" stroke-linecap="round" stroke-linejoin="round"/>
<path d="M66.1687 44.5348L61.9322 57.8126L63.9213 72.6403H66.1687V53.6019" stroke="#35374A" stroke-width="1.28333" stroke-miterlimit="10" stroke-linecap="round" stroke-linejoin="round"/>
<path d="M71.8776 42.9591C71.8776 42.9591 71.8776 45.8781 75.0033 45.8781C78.129 45.8781 78.129 42.9591 78.129 42.9591" stroke="#35374A" stroke-width="1.28333" stroke-miterlimit="10" stroke-linecap="round" stroke-linejoin="round"/>
<path d="M66.1688 72.6403L67.8221 94.6493L68.8037 118.208L70.4569 116.865L75.5201 72.6403L79.5499 118.208L81.229 116.865L82.1848 94.6493L83.8639 72.6403H66.1688Z" fill="white" stroke="#35374A" stroke-width="1.28333" stroke-miterlimit="10" stroke-linecap="round" stroke-linejoin="round"/>
<path d="M63.9213 72.6403H66.1687L66.4787 76.8251L64.6705 76.8509L63.9213 72.6403Z" fill="white" stroke="#35374A" stroke-width="1.28333" stroke-miterlimit="10" stroke-linecap="round" stroke-linejoin="round"/>
<path d="M83.8638 44.5348L88.1003 57.8126L86.1112 72.6403H83.8638" stroke="#35374A" stroke-width="1.28333" stroke-miterlimit="10" stroke-linecap="round" stroke-linejoin="round"/>
<path d="M86.1112 72.6404H83.8638L83.5538 76.8252L85.3621 76.851L86.1112 72.6404Z" fill="white" stroke="#35374A" stroke-width="1.28333" stroke-miterlimit="10" stroke-linecap="round" stroke-linejoin="round"/>
<path d="M66.1688 44.5348L75.0034 42.1066L83.8639 44.5348" stroke="#35374A" stroke-width="1.28333" stroke-miterlimit="10" stroke-linecap="round" stroke-linejoin="round"/>
<path d="M75.0034 43.3207C77.9709 43.3207 80.3765 40.9151 80.3765 37.9476C80.3765 34.9801 77.9709 32.5745 75.0034 32.5745C72.0359 32.5745 69.6303 34.9801 69.6303 37.9476C69.6303 40.9151 72.0359 43.3207 75.0034 43.3207Z" fill="white" stroke="#35374A" stroke-width="1.28333" stroke-miterlimit="10" stroke-linecap="round" stroke-linejoin="round"/>
<path d="M106.364 25.6256H103.806V33.9436H106.364V25.6256Z" fill="white"/>
<path d="M105.098 23.0682C105.811 23.0682 106.39 22.4899 106.39 21.7766C106.39 21.0633 105.811 20.485 105.098 20.485C104.385 20.485 103.806 21.0633 103.806 21.7766C103.806 22.4899 104.385 23.0682 105.098 23.0682Z" fill="white"/>
<path d="M69.3462 37.6376C68.3129 34.8477 69.7336 31.7737 72.5235 30.7404C75.3134 29.7071 78.3875 31.1279 79.4207 33.9178L69.3462 37.6376Z" fill="#0168B3" stroke="#35374A" stroke-width="1.28333" stroke-miterlimit="10" stroke-linecap="round" stroke-linejoin="round"/>
<path d="M75.9333 35.1835L84.2772 32.1611" stroke="#35374A" stroke-width="1.28333" stroke-miterlimit="10" stroke-linecap="round" stroke-linejoin="round"/>
<path d="M78.0258 57.8126H72.8852V64.0382H78.0258V57.8126Z" fill="white"/>
<path d="M69.6562 43.579L75.4426 57.8126L80.3766 43.579" stroke="#35374A" stroke-width="0.641667" stroke-miterlimit="10" stroke-linecap="round" stroke-linejoin="round"/>
</svg>
