<svg width="20" height="20" viewBox="0 0 20 20" fill="none" xmlns="http://www.w3.org/2000/svg">
<path d="M12 0L13.7536 6.24638L20 8L13.7536 9.75362L12 16L10.2464 9.75362L4 8L10.2464 6.24638L12 0Z" fill="black"/>
<path d="M5 11.4666L5.87681 14.5897L9 15.4666L5.87681 16.3434L5 19.4666L4.12319 16.3434L1 15.4666L4.12319 14.5897L5 11.4666Z" fill="black"/>
<path d="M3 1L3.49498 2.50503L5 3L3.49498 3.49497L3 5L2.50503 3.49497L1 3L2.50503 2.50503L3 1Z" fill="black"/>
<path d="M17 15L17.495 16.505L19 17L17.495 17.495L17 19L16.505 17.495L15 17L16.505 16.505L17 15Z" fill="black"/>
</svg>
