<?xml version="1.0" encoding="UTF-8"?>
<svg width="20px" height="20px" viewBox="0 0 20 20" version="1.1" xmlns="http://www.w3.org/2000/svg" xmlns:xlink="http://www.w3.org/1999/xlink">
    <!-- Generator: Sketch 47.1 (45422) - http://www.bohemiancoding.com/sketch -->
    <title>archived-white</title>
    <desc>Created with Sketch.</desc>
    <defs>
        <path d="M12.3072727,2.63636364 C11.9636364,1.68727273 11.0636364,1 10,1 C8.93636364,1 8.03636364,1.68727273 7.69272727,2.63636364 L4.63337291,2.63636364 C3.73337291,2.63636364 2.99700928,3.37272727 2.99700928,4.27272727 L2.99700928,17.3636364 C2.99700928,18.2636364 3.73337291,19 4.63337291,19 L15.363026,19 C16.263026,19 16.9993896,18.2636364 16.9993896,17.3636364 L16.9993896,4.27272727 C16.9993896,3.37272727 16.263026,2.63636364 15.363026,2.63636364 L12.3072727,2.63636364 Z M10.8181818,3.45454545 C10.8181818,3.90454545 10.45,4.27272727 10,4.27272727 C9.55,4.27272727 9.18181818,3.90454545 9.18181818,3.45454545 C9.18181818,3.00454545 9.55,2.63636364 10,2.63636364 C10.45,2.63636364 10.8181818,3.00454545 10.8181818,3.45454545 Z" id="path-1"></path>
    </defs>
    <g id="Symbols" stroke="none" stroke-width="1" fill="none" fill-rule="evenodd">
        <g id="archived-white">
            <mask id="mask-2" fill="white">
                <use xlink:href="#path-1"></use>
            </mask>
            <use id="Icons/Surveys/survey-archived" fill="#000000" xlink:href="#path-1"></use>
            <polygon id="Path" fill="#FFFFFF" points="10 14.9090909 5.90909091 10.8181818 8.36363636 10.8181818 8.36363636 7.54545455 11.6363636 7.54545455 11.6363636 10.8181818 14.0909091 10.8181818"></polygon>
        </g>
    </g>
</svg>