<svg xmlns="http://www.w3.org/2000/svg" width="20" height="20" viewBox="0 0 20 20" fill="none">
  <path d="M9 4C9.14444 4 9.26389 3.95278 9.35833 3.85833C9.45278 3.76389 9.5 3.64444 9.5 3.5C9.5 3.35556 9.45278 3.23611 9.35833 3.14167C9.26389 3.04722 9.14444 3 9 3C8.85556 3 8.73611 3.04722 8.64167 3.14167C8.54722 3.23611 8.5 3.35556 8.5 3.5C8.5 3.64444 8.54722 3.76389 8.64167 3.85833C8.73611 3.95278 8.85556 4 9 4ZM13.9952 19C12.8873 19 11.9444 18.6095 11.1667 17.8285C10.3889 17.0477 10 16.1033 10 14.9952C10 13.8873 10.3905 12.9444 11.1715 12.1667C11.9523 11.3889 12.8967 11 14.0048 11C15.1127 11 16.0556 11.3905 16.8333 12.1715C17.6111 12.9523 18 13.8967 18 15.0048C18 16.1127 17.6095 17.0556 16.8285 17.8333C16.0477 18.6111 15.1033 19 13.9952 19ZM13.5 17H14.5V15.5H16V14.5H14.5V13H13.5V14.5H12V15.5H13.5V17ZM5 7.5H13V6H5V7.5ZM8.85417 17H3.5C3.0875 17 2.73437 16.8531 2.44062 16.5594C2.14687 16.2656 2 15.9125 2 15.5V4.5C2 4.0875 2.14687 3.73438 2.44062 3.44063C2.73437 3.14688 3.0875 3 3.5 3H7.0625C7.17361 2.56944 7.40625 2.21181 7.76042 1.92708C8.11458 1.64236 8.52778 1.5 9 1.5C9.47222 1.5 9.88542 1.64236 10.2396 1.92708C10.5938 2.21181 10.8264 2.56944 10.9375 3H14.5C14.9125 3 15.2656 3.14688 15.5594 3.44063C15.8531 3.73438 16 4.0875 16 4.5V9.875C15.6704 9.76389 15.3381 9.68056 15.0029 9.625C14.6676 9.56944 14.3333 9.54167 14 9.54167C13.8333 9.54167 13.6667 9.54861 13.5 9.5625C13.3333 9.57639 13.1667 9.59722 13 9.625V9.25H5V10.75H10.5417C10.2361 10.9861 9.95833 11.25 9.70833 11.5417C9.45833 11.8333 9.24306 12.1528 9.0625 12.5H5V14H8.54167C8.51389 14.1667 8.49306 14.3333 8.47917 14.5C8.46528 14.6667 8.46528 14.8333 8.47917 15C8.49306 15.3194 8.53125 15.6562 8.59375 16.0104C8.65625 16.3646 8.74306 16.6944 8.85417 17Z" fill="#2F2438"/>
</svg>
