<svg width="20" height="20" viewBox="0 0 20 20" fill="none" xmlns="http://www.w3.org/2000/svg">
<path d="M6 16V4H10.7855C11.7949 4 12.6764 4.28216 13.4301 4.84649C14.1838 5.41082 14.5606 6.1716 14.5606 7.12882C14.5606 7.81452 14.3963 8.36102 14.0675 8.76832C13.7381 9.17494 13.3539 9.48556 12.9149 9.70018V9.87195C13.5583 10.0859 14.0668 10.4215 14.4405 10.8789C14.8135 11.3362 15 11.929 15 12.6572C15 13.7283 14.5975 14.5532 13.7926 15.1319C12.9876 15.7106 12.0292 16 10.9172 16H6ZM8.41489 8.8434H10.5885C11.0563 8.8434 11.4476 8.71107 11.7622 8.44639C12.0769 8.18239 12.2343 7.85738 12.2343 7.47133C12.2343 7.10037 12.0769 6.77912 11.7622 6.50759C11.4476 6.23605 11.0563 6.10028 10.5885 6.10028H8.41489V8.8434ZM8.41489 13.8575H10.7634C11.3345 13.8575 11.7808 13.718 12.1026 13.4389C12.4243 13.1605 12.5851 12.7999 12.5851 12.3569C12.5851 11.9139 12.4243 11.5533 12.1026 11.2749C11.7808 10.9965 11.3345 10.8573 10.7634 10.8573H8.41489V13.8575Z" fill="black"/>
</svg>
