<?xml version="1.0" encoding="UTF-8"?>
<svg width="20px" height="20px" viewBox="0 0 20 20" version="1.1" xmlns="http://www.w3.org/2000/svg" xmlns:xlink="http://www.w3.org/1999/xlink">
    <!-- Generator: Sketch 46.2 (44496) - http://www.bohemiancoding.com/sketch -->
    <title>date-end</title>
    <desc>Created with Sketch.</desc>
    <defs>
        <path d="M13.5570004,1.11111111 L15.3350005,1.11111111 L15.3350005,2.88911118 L16.2240005,2.88911118 C17.2063456,2.88911118 18.0020006,3.68476621 18.0020006,4.66711125 L18.0020006,17.1131117 C18.0020006,18.0954568 17.2063456,18.8911118 16.2240005,18.8911118 L3.77800007,18.8911118 C2.79565503,18.8911118 2,18.0954568 2,17.1131117 L2.00889,4.66711125 C2.00889,3.68476621 2.79565503,2.88911118 3.77800007,2.88911118 L4.6670001,2.88911118 L4.6670001,1.11111111 L6.44500017,1.11111111 L6.44500017,2.88911118 L13.5570004,2.88911118 L13.5570004,1.11111111 Z M16.2240005,17.1131117 L16.2240005,7.33411135 L3.77800007,7.33411135 L3.77800007,17.1131117 L16.2240005,17.1131117 Z M14.4460005,10.8901115 L10.0010003,10.8901115 L10.0010003,15.3351117 L14.4460005,15.3351117 L14.4460005,10.8901115 L14.4460005,10.8901115 Z" id="path-1"></path>
    </defs>
    <g id="Symbols" stroke="none" stroke-width="1" fill="none" fill-rule="evenodd">
        <g id="date-end">
            <mask id="mask-2" fill="white">
                <use xlink:href="#path-1"></use>
            </mask>
            <use id="Icons/Actions/date-end" fill="#000000" xlink:href="#path-1"></use>
        </g>
    </g>
</svg>