<?xml version="1.0" encoding="UTF-8"?>
<svg width="20px" height="20px" viewBox="0 0 20 20" version="1.1" xmlns="http://www.w3.org/2000/svg" xmlns:xlink="http://www.w3.org/1999/xlink">
    <!-- Generator: Sketch 47.1 (45422) - http://www.bohemiancoding.com/sketch -->
    <title>date-range-white</title>
    <desc>Created with Sketch.</desc>
    <defs>
        <path d="M16.2240005,2.88911118 L15.3350005,2.88911118 L15.3350005,1.11111111 L13.5570004,1.11111111 L13.5570004,2.88911118 L6.44500017,2.88911118 L6.44500017,1.11111111 L4.6670001,1.11111111 L4.6670001,2.88911118 L3.77800007,2.88911118 C2.79121003,2.88911118 2.00889,3.68921121 2.00889,4.66711125 L2,17.1131117 C2,18.0910118 2.79121003,18.8911118 3.77800007,18.8911118 L16.2240005,18.8911118 C17.2019006,18.8911118 18.0020006,18.0910118 18.0020006,17.1131117 L18.0020006,4.66711125 C18.0020006,3.68921121 17.2019006,2.88911118 16.2240005,2.88911118 Z" id="path-1"></path>
    </defs>
    <g id="Symbols" stroke="none" stroke-width="1" fill="none" fill-rule="evenodd">
        <g id="date-range-white">
            <mask id="mask-2" fill="white">
                <use xlink:href="#path-1"></use>
            </mask>
            <use id="Icons/Actions/date-range" fill="#000000" xlink:href="#path-1"></use>
            <polygon id="Path" fill="#FFFFFF" points="16.2240005 17.1131117 3.77800007 17.1131117 3.77800007 7.33411135 16.2240005 7.33411135"></polygon>
            <polygon id="Path" fill="#000000" points="7.33400021 9.11211142 5.55600014 9.11211142 5.55600014 10.8901115 7.33400021 10.8901115"></polygon>
            <polygon id="Path" fill="#000000" points="10.8900003 9.11211142 9.11200027 9.11211142 9.11200027 10.8901115 10.8900003 10.8901115"></polygon>
            <polygon id="Path" fill="#000000" points="14.4460005 9.11211142 12.6680004 9.11211142 12.6680004 10.8901115 14.4460005 10.8901115"></polygon>
        </g>
    </g>
</svg>