<?xml version="1.0" encoding="UTF-8"?>
<svg width="20px" height="20px" viewBox="0 0 20 20" version="1.1" xmlns="http://www.w3.org/2000/svg" xmlns:xlink="http://www.w3.org/1999/xlink">
    <!-- Generator: Sketch 54.1 (76490) - https://sketchapp.com -->
    <title>2. Style/Icons/Zugata/favorite-off</title>
    <desc>Created with Sketch.</desc>
    <defs>
        <path d="M13.6,3 C12.208,3 10.872,3.648 10,4.672 C9.128,3.648 7.792,3 6.4,3 C3.936,3 2,4.936 2,7.4 C2,10.424 4.72,12.888 8.84,16.632 L10,17.68 L11.16,16.624 C15.28,12.888 18,10.424 18,7.4 C18,4.936 16.064,3 13.6,3 Z M10.08,15.44 L10,15.52 L9.92,15.44 C6.112,11.992 3.6,9.712 3.6,7.4 C3.6,5.8 4.8,4.6 6.4,4.6 C7.632,4.6 8.832,5.392 9.256,6.488 L10.752,6.488 C11.168,5.392 12.368,4.6 13.6,4.6 C15.2,4.6 16.4,5.8 16.4,7.4 C16.4,9.712 13.888,11.992 10.08,15.44 Z" id="path-1"></path>
    </defs>
    <g id="2.-Style/Icons/Zugata/favorite-off" stroke="none" stroke-width="1" fill="none" fill-rule="evenodd">
        <mask id="mask-2" fill="white">
            <use xlink:href="#path-1"></use>
        </mask>
        <use id="Icons/Zugate/favorite-off" fill="#000000" fill-rule="nonzero" xlink:href="#path-1"></use>
    </g>
</svg>