<?xml version="1.0" encoding="UTF-8"?>
<svg width="20px" height="20px" viewBox="0 0 20 20" version="1.1" xmlns="http://www.w3.org/2000/svg" xmlns:xlink="http://www.w3.org/1999/xlink">
    <!-- Generator: Sketch 46.2 (44496) - http://www.bohemiancoding.com/sketch -->
    <title>feedback-review</title>
    <desc>Created with Sketch.</desc>
    <defs>
        <path d="M14.7809756,11.6346224 L8.78235623,11.6346224 L10.3910168,10.0219496 L14.7809756,10.0219496 L14.7809756,11.6346224 Z M5.21819856,11.6346224 L5.21819856,9.6724129 L10.6957375,4.18004866 C10.8699815,4.00528032 11.0863414,4.00528032 11.2597596,4.18004866 L12.6512345,5.57488223 C12.8254786,5.74882228 12.8254786,5.96666149 12.6512345,6.14142983 L7.17452143,11.6346224 L5.21819856,11.6346224 Z M16.3896362,2 L3.61036376,2 C2.74079517,2 2.00170316,2.74048765 2.00170316,3.61267278 L2.00170316,18 L5.21819856,14.816897 L16.3896362,14.816897 C17.2592048,14.816897 17.9982968,14.0764094 17.9982968,13.2042243 L17.9982968,3.61267278 C17.9545294,2.74048765 17.2592048,2 16.3896362,2 L16.3896362,2 Z" id="path-1"></path>
    </defs>
    <g id="Symbols" stroke="none" stroke-width="1" fill="none" fill-rule="evenodd">
        <g id="feedback-review">
            <mask id="mask-2" fill="white">
                <use xlink:href="#path-1"></use>
            </mask>
            <use id="Icons/Navigational/Effectiveness/feedback-review" fill="#000000" xlink:href="#path-1"></use>
        </g>
    </g>
</svg>