<?xml version="1.0" encoding="UTF-8"?>
<svg width="20px" height="20px" viewBox="0 0 20 20" version="1.1" xmlns="http://www.w3.org/2000/svg" xmlns:xlink="http://www.w3.org/1999/xlink">
    <!-- Generator: Sketch 46.2 (44496) - http://www.bohemiancoding.com/sketch -->
    <title>feedback-report</title>
    <desc>Created with Sketch.</desc>
    <defs>
        <path d="M16.3864154,1.99958581 C17.2586457,1.99958581 17.9569269,2.6970387 17.9991717,3.56926898 L17.9991717,13.1604887 C17.9991717,14.0757921 17.2586457,14.773245 16.3864154,14.773245 L5.18243943,14.773245 L2,17.9995858 L2,3.61234208 C2,2.6970387 2.69745289,1.99958581 3.56968316,1.99958581 L16.3864154,1.99958581 Z M12.3756471,12.3752329 L14.4249327,12.3752329 L14.4249327,9.19279352 L12.3756471,9.19279352 L12.3756471,12.3752329 Z M9.14930627,12.3752329 L11.1985918,12.3752329 L11.1985918,4.3967695 L9.14930627,4.3967695 L9.14930627,12.3752329 Z M5.53116587,12.3752329 L7.57962311,12.3752329 L7.57962311,6.79478151 L5.53116587,6.79478151 L5.53116587,12.3752329 Z" id="path-1"></path>
    </defs>
    <g id="Symbols" stroke="none" stroke-width="1" fill="none" fill-rule="evenodd">
        <g id="feedback-report">
            <mask id="mask-2" fill="white">
                <use xlink:href="#path-1"></use>
            </mask>
            <use id="Icons/Navigational/Effectiveness/feedback-report" fill="#000000" xlink:href="#path-1"></use>
        </g>
    </g>
</svg>