<?xml version="1.0" encoding="UTF-8"?>
<svg width="20px" height="20px" viewBox="0 0 20 20" version="1.1" xmlns="http://www.w3.org/2000/svg" xmlns:xlink="http://www.w3.org/1999/xlink">
    <!-- Generator: Sketch 46.2 (44496) - http://www.bohemiancoding.com/sketch -->
    <title>hierarchy</title>
    <desc>Created with Sketch.</desc>
    <defs>
        <path d="M8.20219305,6.43391358 L11.8032896,6.43391358 L11.8032896,4.56674503 L8.20219305,4.56674503 L8.20219305,6.43391358 Z M9.10246718,7.26756742 L9.10246718,9.06811568 L1.90027413,9.06811568 L1.90027413,12.6692122 L3.70082239,12.6692122 L3.70082239,10.8686639 L9.10246718,10.8686639 L9.10246718,12.6692122 L10.9030154,12.6692122 L10.9030154,10.8686639 L16.3046602,10.8686639 L16.3046602,12.6692122 L18.1052085,12.6692122 L18.1052085,9.06811568 L10.9030154,9.06811568 L10.9030154,7.26756742 L9.10246718,7.26756742 Z M15.4043861,15.4366549 L19.0054826,15.4366549 L19.0054826,13.5694863 L15.4043861,13.5694863 L15.4043861,15.4366549 Z M8.20219305,15.4366549 L11.8032896,15.4366549 L11.8032896,13.5694863 L8.20219305,13.5694863 L8.20219305,15.4366549 Z M1,15.4366549 L4.60109652,15.4366549 L4.60109652,13.5694863 L1,13.5694863 L1,15.4366549 Z" id="path-1"></path>
    </defs>
    <g id="Symbols" stroke="none" stroke-width="1" fill="none" fill-rule="evenodd">
        <g id="hierarchy">
            <mask id="mask-2" fill="white">
                <use xlink:href="#path-1"></use>
            </mask>
            <use id="Icons/Views/hierarchy" fill="#000000" xlink:href="#path-1"></use>
        </g>
    </g>
</svg>