<?xml version="1.0" encoding="UTF-8"?>
<svg width="20px" height="20px" viewBox="0 0 20 20" version="1.1" xmlns="http://www.w3.org/2000/svg" xmlns:xlink="http://www.w3.org/1999/xlink">
    <!-- Generator: Sketch 54.1 (76490) - https://sketchapp.com -->
    <title>2. Style/Icons/Zugata/leaderboard</title>
    <desc>Created with Sketch.</desc>
    <defs>
        <path d="M16.4,10 C16.4,9.10625 17.12,8.375 18,8.375 L18,5.125 C18,4.23125 17.28,3.5 16.4,3.5 L3.6,3.5 C2.72,3.5 2.008,4.23125 2.008,5.125 L2.008,8.375 C2.888,8.375 3.6,9.10625 3.6,10 C3.6,10.89375 2.888,11.625 2,11.625 L2,14.875 C2,15.76875 2.72,16.5 3.6,16.5 L16.4,16.5 C17.28,16.5 18,15.76875 18,14.875 L18,11.625 C17.12,11.625 16.4,10.89375 16.4,10 Z M12.2886776,14.5 L9.50388937,12.6181818 L6.71910112,14.5 L7.55920484,11.1290909 L5,8.92818182 L8.29818496,8.72363636 L9.50388937,5.5 L10.701815,8.73181818 L14,8.93636364 L11.4407952,11.1372727 L12.2886776,14.5 Z" id="path-1"></path>
    </defs>
    <g id="2.-Style/Icons/Zugata/leaderboard" stroke="none" stroke-width="1" fill="none" fill-rule="evenodd">
        <mask id="mask-2" fill="white">
            <use xlink:href="#path-1"></use>
        </mask>
        <use id="Icons/Zugate/leaderboard" fill="#000000" fill-rule="nonzero" xlink:href="#path-1"></use>
    </g>
</svg>