<?xml version="1.0" encoding="UTF-8"?>
<svg width="20px" height="20px" viewBox="0 0 20 20" version="1.1" xmlns="http://www.w3.org/2000/svg" xmlns:xlink="http://www.w3.org/1999/xlink">
    <!-- Generator: Sketch 48.2 (47327) - http://www.bohemiancoding.com/sketch -->
    <title>2. Atoms/Icons/Informational/lock</title>
    <desc>Created with Sketch.</desc>
    <defs>
        <path d="M14.6666667,7.33333333 L13.9047619,7.33333333 L13.9047619,5.80952381 C13.9047619,3.70666667 12.1980952,2 10.0952381,2 C7.99238095,2 6.28571429,3.70666667 6.28571429,5.80952381 L6.28571429,7.33333333 L5.52380952,7.33333333 C4.68571429,7.33333333 4,8.01904762 4,8.85714286 L4,16.4761905 C4,17.3142857 4.68571429,18 5.52380952,18 L14.6666667,18 C15.5047619,18 16.1904762,17.3142857 16.1904762,16.4761905 L16.1904762,8.85714286 C16.1904762,8.01904762 15.5047619,7.33333333 14.6666667,7.33333333 Z M10.0952381,14.1904762 C9.25714286,14.1904762 8.57142857,13.5047619 8.57142857,12.6666667 C8.57142857,11.8285714 9.25714286,11.1428571 10.0952381,11.1428571 C10.9333333,11.1428571 11.6190476,11.8285714 11.6190476,12.6666667 C11.6190476,13.5047619 10.9333333,14.1904762 10.0952381,14.1904762 Z M12.4571429,7.33333333 L7.73333333,7.33333333 L7.73333333,5.80952381 C7.73333333,4.50666667 8.79238095,3.44761905 10.0952381,3.44761905 C11.3980952,3.44761905 12.4571429,4.50666667 12.4571429,5.80952381 L12.4571429,7.33333333 Z" id="path-1"></path>
    </defs>
    <g id="Symbols" stroke="none" stroke-width="1" fill="none" fill-rule="evenodd">
        <g id="2.-Atoms/Icons/Informational/lock">
            <mask id="mask-2" fill="white">
                <use xlink:href="#path-1"></use>
            </mask>
            <use id="Lock" fill="#000000" fill-rule="nonzero" xlink:href="#path-1"></use>
        </g>
    </g>
</svg>