<?xml version="1.0" encoding="UTF-8"?>
<svg width="20px" height="20px" viewBox="0 0 20 20" version="1.1" xmlns="http://www.w3.org/2000/svg" xmlns:xlink="http://www.w3.org/1999/xlink">
    <!-- Generator: Sketch 46.2 (44496) - http://www.bohemiancoding.com/sketch -->
    <title>print</title>
    <desc>Created with Sketch.</desc>
    <defs>
        <path d="M5.19999992,5.99999992 L14.7999997,5.99999992 L14.7999997,2.8 L5.19999992,2.8 L5.19999992,5.99999992 Z M15.5999996,6.79999989 C16.9279996,6.79999989 17.9999996,7.87199987 17.9999996,9.19999983 L17.9999996,13.9999997 L14.7999997,13.9999997 L14.7999997,17.1999996 L5.19999992,17.1999996 L5.19999992,13.9999997 L2,13.9999997 L2,9.19999983 C2,7.87199987 3.07199997,6.79999989 4.39999994,6.79999989 L15.5999996,6.79999989 Z M15.5999996,9.99999981 C16.0399996,9.99999981 16.3999996,9.63999982 16.3999996,9.19999983 C16.3999996,8.75999984 16.0399996,8.39999985 15.5999996,8.39999985 C15.1599997,8.39999985 14.7999997,8.75999984 14.7999997,9.19999983 C14.7999997,9.63999982 15.1599997,9.99999981 15.5999996,9.99999981 Z M6.79999987,15.5999997 L13.1999997,15.5999997 L13.1999997,11.5999998 L6.79999987,11.5999998 L6.79999987,15.5999997 Z" id="path-1"></path>
    </defs>
    <g id="Symbols" stroke="none" stroke-width="1" fill="none" fill-rule="evenodd">
        <g id="print">
            <mask id="mask-2" fill="white">
                <use xlink:href="#path-1"></use>
            </mask>
            <use id="Icons/Actions/print" fill="#000000" xlink:href="#path-1"></use>
        </g>
    </g>
</svg>