<?xml version="1.0" encoding="UTF-8"?>
<svg width="20px" height="20px" viewBox="0 0 20 20" version="1.1" xmlns="http://www.w3.org/2000/svg" xmlns:xlink="http://www.w3.org/1999/xlink">
    <!-- Generator: Sketch 46.2 (44496) - http://www.bohemiancoding.com/sketch -->
    <title>question</title>
    <desc>Created with Sketch.</desc>
    <defs></defs>
    <g id="Symbols" stroke="none" stroke-width="1" fill="none" fill-rule="evenodd">
        <g id="question" fill="#000000">
            <path d="M10,2 C14.4152,2 18,5.584 18,10 C18,14.416 14.4152,18 10,18 C5.584,18 2,14.416 2,10 C2,5.584 5.584,2 10,2 Z M12.456,9.4 C12.912,8.944 13.2,8.304 13.2,7.6 C13.2,5.832 11.768,4.4 10,4.4 C8.232,4.4 6.8,5.832 6.8,7.6 L8.4,7.6 C8.4,6.72 9.12,6 10,6 C10.8792,6 11.6,6.72 11.6,7.6 C11.6,8.04 11.424,8.44 11.128,8.728 L10.136,9.736 C9.56,10.32 9.2,11.12 9.2,12 L9.2,12.4 L10.8,12.4 C10.8,11.2 11.16,10.72 11.736,10.136 L12.456,9.4 Z M9.2,15.6 L10.8,15.6 L10.8,14 L9.2,14 L9.2,15.6 Z" id="Combined-Shape"></path>
        </g>
    </g>
</svg>