<svg width="20" height="20" viewBox="0 0 20 20" fill="none" xmlns="http://www.w3.org/2000/svg">
<path d="M16.188 13.646L14.854 12.312C15.4233 12.1453 15.854 11.8503 16.146 11.427C16.4373 11.0037 16.583 10.528 16.583 10C16.583 9.30534 16.354 8.72901 15.896 8.27101C15.4373 7.81234 14.861 7.58301 14.167 7.58301H10.771V5.83301H14.167C15.3197 5.83301 16.3023 6.23934 17.115 7.05201C17.927 7.86467 18.333 8.84734 18.333 10C18.333 10.8053 18.1353 11.524 17.74 12.156C17.344 12.788 16.8267 13.2847 16.188 13.646ZM13.333 10.792L11.667 9.12501H13.333V10.792ZM16.438 18.833L1.16699 3.56201L2.39599 2.33301L17.667 17.604L16.438 18.833ZM9.12499 14.167H5.83299C4.68033 14.167 3.69766 13.7607 2.88499 12.948C2.07299 12.1353 1.66699 11.1527 1.66699 10C1.66699 9.02801 1.96533 8.17034 2.56199 7.42701C3.15933 6.68367 3.90933 6.19401 4.81199 5.95801L5.35399 6.00001L6.43799 7.58301H5.83299C5.13899 7.58301 4.56266 7.81234 4.10399 8.27101C3.64599 8.72901 3.41699 9.30534 3.41699 10C3.41699 10.6947 3.64599 11.271 4.10399 11.729C4.56266 12.1877 5.13899 12.417 5.83299 12.417H9.12499V14.167ZM6.66699 10.875V9.12501H7.97899L9.72899 10.875H6.66699Z" fill="black"/>
</svg>
