<?xml version="1.0" encoding="UTF-8"?>
<svg width="20px" height="20px" viewBox="0 0 20 20" version="1.1" xmlns="http://www.w3.org/2000/svg" xmlns:xlink="http://www.w3.org/1999/xlink">
    <!-- Generator: Sketch 59 (86127) - https://sketch.com -->
    <title>restore</title>
    <desc>Created with Sketch.</desc>
    <g id="restore" stroke="none" stroke-width="1" fill="none" fill-rule="evenodd">
        <g id="Restore" transform="translate(1.000000, 2.000000)" fill="#000000" fill-rule="nonzero">
            <path d="M10.28574,0 C6.025716,0 2.571426,3.425499 2.571426,7.65 L0,7.65 L3.334284,10.95651 L3.394287,11.07549 L6.857145,7.65 L4.28571,7.65 C4.28571,4.3605 6.968574,1.700001 10.28574,1.700001 C13.60287,1.700001 16.28568,4.3605 16.28568,7.65 C16.28568,10.9395 13.60287,13.59999 10.28574,13.59999 C8.631432,13.59999 7.131429,12.9285 6.051429,11.84904 L4.834287,13.05603 C6.231429,14.44149 8.151426,15.3 10.28574,15.3 C14.54571,15.3 18,11.87451 18,7.65 C18,3.425499 14.54571,0 10.28574,0 Z M9.42858,4.249998 L9.42858,8.49996 L13.09716,10.65897 L13.71429,9.63054 L10.71432,7.86249 L10.71432,4.249998 L9.42858,4.249998 L9.42858,4.249998 Z" id="Shape"></path>
        </g>
    </g>
</svg>