<?xml version="1.0" encoding="UTF-8"?>
<svg width="20px" height="20px" viewBox="0 0 20 20" version="1.1" xmlns="http://www.w3.org/2000/svg" xmlns:xlink="http://www.w3.org/1999/xlink">
    <!-- Generator: Sketch 47.1 (45422) - http://www.bohemiancoding.com/sketch -->
    <title>settings-white</title>
    <desc>Created with Sketch.</desc>
    <defs>
        <path d="M16.1122446,10.784 C16.1451415,10.528 16.1698142,10.272 16.1698142,10 C16.1698142,9.728 16.1451415,9.472 16.1122446,9.216 L17.847559,7.896 C18.0038196,7.776 18.0457632,7.56 17.9462499,7.384 L16.3014021,4.616 C16.2027112,4.44 15.9806568,4.376 15.7997235,4.44 L13.751888,5.24 C13.3242275,4.92 12.8636701,4.656 12.3619915,4.456 L12.0502929,2.336 C12.0247977,2.144 11.8520887,2 11.6464827,2 L8.35678711,2 C8.15118114,2 7.97847211,2.144 7.9537994,2.336 L7.64127831,4.456 C7.13959973,4.656 6.67904234,4.928 6.25138191,5.24 L4.2043688,4.44 C4.01438887,4.368 3.80055866,4.44 3.70186779,4.616 L2.05701997,7.384 C1.95010486,7.56 1.9994503,7.776 2.15571084,7.896 L3.89184771,9.216 C3.85895075,9.472 3.83345561,9.736 3.83345561,10 C3.83345561,10.264 3.85895075,10.528 3.89184771,10.784 L2.15571084,12.104 C1.9994503,12.224 1.9583291,12.44 2.05701997,12.616 L3.70186779,15.384 C3.80055866,15.56 4.02261311,15.624 4.2043688,15.56 L6.25138191,14.76 C6.67904234,15.08 7.13959973,15.344 7.64127831,15.544 L7.9537994,17.664 C7.97847211,17.856 8.15118114,18 8.35678711,18 L11.6464827,18 C11.8520887,18 12.0247977,17.856 12.0502929,17.664 L12.3619915,15.544 C12.8636701,15.344 13.3242275,15.072 13.751888,14.76 L15.7997235,15.56 C15.9897034,15.632 16.2027112,15.56 16.3014021,15.384 L17.9462499,12.616 C18.0457632,12.44 18.0038196,12.224 17.847559,12.104 L16.1122446,10.784 Z" id="path-1"></path>
    </defs>
    <g id="Symbols" stroke="none" stroke-width="1" fill="none" fill-rule="evenodd">
        <g id="settings-white">
            <mask id="mask-2" fill="white">
                <use xlink:href="#path-1"></use>
            </mask>
            <use id="Icons/Navigational/Global/settings" fill="#000000" xlink:href="#path-1"></use>
            <path d="M10.0016349,12.8 C8.41517921,12.8 7.12315125,11.544 7.12315125,10 C7.12315125,8.456 8.41517921,7.2 10.0016349,7.2 C11.5889131,7.2 12.8801186,8.456 12.8801186,10 C12.8801186,11.544 11.5889131,12.8 10.0016349,12.8 L10.0016349,12.8 Z" id="Path" fill="#FFFFFF"></path>
        </g>
    </g>
</svg>