<?xml version="1.0" encoding="UTF-8"?>
<svg width="20px" height="20px" viewBox="0 0 20 20" version="1.1" xmlns="http://www.w3.org/2000/svg" xmlns:xlink="http://www.w3.org/1999/xlink">
    <!-- Generator: Sketch 48.2 (47327) - http://www.bohemiancoding.com/sketch -->
    <title>2. Atoms/Icons/Navigational/Global/support</title>
    <desc>Created with Sketch.</desc>
    <defs>
        <path d="M10,14.5 C9.0802,14.5 8.2243,14.2237 7.5115,13.7503 L4.2985,16.9633 C5.851,18.2359 7.8364,19 10,19 C12.1564,19 14.1364,18.2413 15.6853,16.9768 L12.4705,13.762 C11.7613,14.2282 10.9126,14.5 10,14.5 M16.9633,4.2985 L13.7503,7.5115 C14.2237,8.2243 14.5,9.0802 14.5,10 C14.5,10.9126 14.2282,11.7622 13.762,12.4714 L16.9768,15.6862 C18.2413,14.1355 19,12.1564 19,10 C19,7.8364 18.2359,5.8501 16.9633,4.2985 M5.5,10 C5.5,9.0874 5.7718,8.2378 6.238,7.5286 L3.0232,4.3138 C1.7587,5.8636 1,7.8436 1,10 C1,12.1636 1.7641,14.1499 3.0367,15.7015 L6.2497,12.4885 C5.7763,11.7757 5.5,10.9198 5.5,10 M10,5.5 C10.9198,5.5 11.7757,5.7763 12.4885,6.2497 L15.7024,3.0367 C14.149,1.7641 12.1636,1 10,1 C7.8436,1 5.8636,1.7587 4.3147,3.0232 L7.5295,6.238 C8.2387,5.7718 9.0874,5.5 10,5.5" id="path-1"></path>
    </defs>
    <g id="Symbols" stroke="none" stroke-width="1" fill="none" fill-rule="evenodd">
        <g id="2.-Atoms/Icons/Navigational/Global/support">
            <mask id="mask-2" fill="white">
                <use xlink:href="#path-1"></use>
            </mask>
            <use id="Icons/Navigational/Global/support" fill="#000000" xlink:href="#path-1"></use>
        </g>
    </g>
</svg>