<?xml version="1.0" encoding="UTF-8"?>
<svg width="20px" height="20px" viewBox="0 0 20 20" version="1.1" xmlns="http://www.w3.org/2000/svg" xmlns:xlink="http://www.w3.org/1999/xlink">
    <!-- Generator: Sketch 48.2 (47327) - http://www.bohemiancoding.com/sketch -->
    <title>tasks</title>
    <desc>Created with Sketch.</desc>
    <defs>
        <path d="M15.4444444,3 L4.54777778,3 C3.68444444,3 3.00777778,3.69222222 3.00777778,4.55555556 L3,15.4444444 C3,16.3 3.68444444,17 4.54777778,17 L15.4444444,17 C16.3,17 17,16.3 17,15.4444444 L17,4.55555556 C17,3.69222222 16.3,3 15.4444444,3 Z M15.4444444,12.3333333 L12.3333333,12.3333333 C12.3333333,13.6244444 11.2833333,14.6666667 10,14.6666667 C8.71666667,14.6666667 7.66666667,13.6244444 7.66666667,12.3333333 L4.54777778,12.3333333 L4.54777778,4.55555556 L15.4444444,4.55555556 L15.4444444,12.3333333 Z" id="path-1"></path>
    </defs>
    <g id="Symbols" stroke="none" stroke-width="1" fill="none" fill-rule="evenodd">
        <g id="tasks">
            <mask id="mask-2" fill="white">
                <use xlink:href="#path-1"></use>
            </mask>
            <use id="Atoms/Icons/Navigational/Effectiveness/tasks" fill="#000000" fill-rule="nonzero" xlink:href="#path-1"></use>
        </g>
    </g>
</svg>