<svg width="20" height="20" viewBox="0 0 20 20" fill="none" xmlns="http://www.w3.org/2000/svg">

<path d="M5.22433 3.25317H13.9903V13.2531L8.4615 18.7499L7.7564 18.0448C7.66987 17.9583 7.59802 17.8437 7.54085 17.701C7.4837 17.5584 7.45513 17.4241 7.45513 17.298V17.0865L8.33973 13.2531H2.7564C2.36002 13.2531 2.00986 13.1012 1.70592 12.7972C1.40197 12.4933 1.25 12.1431 1.25 11.7467V10.4006C1.25 10.314 1.26122 10.2206 1.28365 10.1202C1.30608 10.0197 1.33118 9.92624 1.35896 9.83969L3.74677 4.20511C3.86644 3.93801 4.06676 3.71258 4.34773 3.52882C4.62872 3.34506 4.92092 3.25317 5.22433 3.25317ZM12.7404 4.50315H5.22433C5.16557 4.50315 5.10547 4.51918 5.04404 4.55124C4.9826 4.58329 4.93585 4.63672 4.90379 4.71151L2.49996 10.3365V11.7467C2.49996 11.8215 2.524 11.8829 2.57208 11.931C2.62017 11.9791 2.6816 12.0032 2.7564 12.0032H9.91983L8.87496 16.5705L12.7404 12.7211V4.50315ZM13.9903 13.2531V12.0032H16.6666V4.50315H13.9903V3.25317H17.9166V13.2531H13.9903Z" fill="black"/>
</svg>
