<svg width="20" height="20" viewBox="0 0 20 20" fill="none" xmlns="http://www.w3.org/2000/svg">
<path d="M14.7756 17.0834H6.52244V7.08344L12.0513 1.58667L12.7564 2.29177C12.8429 2.37832 12.9148 2.4929 12.9719 2.63552C13.0291 2.77815 13.0576 2.9125 13.0576 3.03857V3.25011L12.173 7.08344H17.2436C17.64 7.08344 17.9901 7.23542 18.2941 7.53938C18.598 7.84332 18.75 8.19348 18.75 8.58986V9.93598C18.75 10.0225 18.7409 10.116 18.7228 10.2164C18.7046 10.3169 18.6773 10.4103 18.641 10.4969L16.2532 16.1315C16.1335 16.3986 15.9332 16.624 15.6523 16.8078C15.3713 16.9915 15.0791 17.0834 14.7756 17.0834ZM5.27248 7.08344V17.0834H2.08337V7.08344H5.27248Z" fill="black"/>
</svg>
