<svg width="20" height="20" viewBox="0 0 20 20" fill="none" xmlns="http://www.w3.org/2000/svg">
<path d="M5.22433 3.25317H13.4775V13.2531L7.94871 18.7499L7.2436 18.0448C7.15706 17.9583 7.08522 17.8437 7.02806 17.701C6.97091 17.5584 6.94233 17.4241 6.94233 17.298V17.0865L7.82694 13.2531H2.7564C2.36002 13.2531 2.00986 13.1012 1.70592 12.7972C1.40197 12.4933 1.25 12.1431 1.25 11.7467V10.4006C1.25 10.314 1.25908 10.2206 1.27723 10.1202C1.2954 10.0197 1.32264 9.92624 1.35896 9.83969L3.74677 4.20511C3.86644 3.93801 4.06676 3.71258 4.34773 3.52882C4.62872 3.34506 4.92092 3.25317 5.22433 3.25317ZM14.7275 13.2531V3.25317H17.9166V13.2531H14.7275Z" fill="black"/>
</svg>
