<svg width="20" height="20" viewBox="0 0 20 20" fill="none" xmlns="http://www.w3.org/2000/svg">

<path d="M14.7756 17.0834H6.00965V7.08344L11.5385 1.58667L12.2436 2.29177C12.3301 2.37832 12.402 2.4929 12.4591 2.63552C12.5163 2.77815 12.5449 2.9125 12.5449 3.03857V3.25011L11.6602 7.08344H17.2436C17.64 7.08344 17.9901 7.23542 18.2941 7.53938C18.598 7.84332 18.75 8.19348 18.75 8.58986V9.93598C18.75 10.0225 18.7388 10.116 18.7163 10.2164C18.6939 10.3169 18.6688 10.4103 18.641 10.4969L16.2532 16.1315C16.1335 16.3986 15.9332 16.624 15.6523 16.8078C15.3713 16.9915 15.0791 17.0834 14.7756 17.0834ZM7.25962 15.8334H14.7756C14.8344 15.8334 14.8945 15.8174 14.9559 15.7853C15.0174 15.7533 15.0641 15.6999 15.0962 15.6251L17.5 10.0001V8.58986C17.5 8.51507 17.476 8.45363 17.4279 8.40554C17.3798 8.35746 17.3184 8.33342 17.2436 8.33342H10.0801L11.125 3.76611L7.25962 7.61548V15.8334ZM6.00965 7.08344V8.33342H3.33335V15.8334H6.00965V17.0834H2.08337V7.08344H6.00965Z" fill="black"/>
</svg>
