<?xml version="1.0" encoding="UTF-8"?>
<svg width="20px" height="20px" viewBox="0 0 20 20" version="1.1" xmlns="http://www.w3.org/2000/svg" xmlns:xlink="http://www.w3.org/1999/xlink">
    <!-- Generator: Sketch 47.1 (45422) - http://www.bohemiancoding.com/sketch -->
    <title>unattributed-white</title>
    <desc>Created with Sketch.</desc>
    <defs>
        <path d="M17.4974032,3.14499998 L2.50259678,3.14499998 C1.67754952,3.14499998 1.00275624,3.83058996 1.00275624,4.66823335 L1.00275624,15.3317667 C1.00275624,16.1703098 1.67754952,16.855 2.50259678,16.855 L17.4974032,16.855 C18.3224505,16.855 18.9891462,16.1703098 18.9891462,15.3317667 L18.9972438,4.66823335 C18.9972438,3.83058996 18.3224505,3.14499998 17.4974032,3.14499998 L17.4974032,3.14499998 Z" id="path-1"></path>
    </defs>
    <g id="Symbols" stroke="none" stroke-width="1" fill="none" fill-rule="evenodd">
        <g id="unattributed-white">
            <mask id="mask-2" fill="white">
                <use xlink:href="#path-1"></use>
            </mask>
            <use id="Icons/Surveys/survey-unattributed" fill="#000000" xlink:href="#path-1"></use>
            <path d="M7.00121866,5.4302999 C8.24553747,5.4302999 9.25052959,6.45058734 9.25052959,7.71559981 C9.25052959,8.97971256 8.24553747,10 7.00121866,10 C5.75600012,10 4.75190772,8.97971256 4.75190772,7.71559981 C4.75190772,6.45058734 5.75600012,5.4302999 7.00121866,5.4302999 L7.00121866,5.4302999 Z" id="Path" fill="#FFFFFF"></path>
            <path d="M11.4998405,14.5705998 L2.50259678,14.5705998 L2.50259678,13.8085333 C2.50259678,12.2852999 5.50137812,11.4476565 7.00121866,11.4476565 C8.50015947,11.4476565 11.4998405,12.2852999 11.4998405,13.8085333 L11.4998405,14.5705998 Z" id="Path" fill="#FFFFFF"></path>
            <polygon id="Path" fill="#FFFFFF" points="14.0352638 12.4634453 15.1599193 12.4634453 15.1599193 11.3918736 14.0352638 11.3918736"></polygon>
            <path d="M16.3241626,8.31211707 L15.8185175,8.80516603 C15.4136416,9.19564641 15.1599193,9.51774773 15.1599193,10.3212016 L14.0352638,10.3212016 L14.0352638,10.0530837 C14.0352638,9.46376427 14.2889861,8.92842827 14.6938621,8.53704816 L15.3902487,7.86225488 C15.5989848,7.66881414 15.722247,7.401596 15.722247,7.10648641 C15.722247,6.51806667 15.2166019,6.0358144 14.5975916,6.0358144 C13.9794809,6.0358144 13.4729361,6.51806667 13.4729361,7.10648641 L12.3482806,7.10648641 C12.3482806,5.92334885 13.3550722,4.96424267 14.5975916,4.96424267 C15.8401109,4.96424267 16.8469025,5.92334885 16.8469025,7.10648641 C16.8469025,7.57794198 16.6444645,8.00621078 16.3241626,8.31211707 L16.3241626,8.31211707 Z" id="Path" fill="#FFFFFF"></path>
        </g>
    </g>
</svg>