<svg width="20" height="20" viewBox="0 0 20 20" fill="none" xmlns="http://www.w3.org/2000/svg">
<path d="M10 13.667C8.57158 13.667 7.35711 13.1807 6.35659 12.208C5.35676 11.236 4.85685 10.0487 4.85685 8.646V3H7.08589V8.646C7.08589 9.43733 7.36808 10.111 7.93245 10.667C8.49614 11.2223 9.18532 11.5 10 11.5C10.8147 11.5 11.5039 11.2223 12.0675 10.667C12.6319 10.111 12.9141 9.43733 12.9141 8.646V3H15.1432V8.646C15.1432 10.0487 14.6432 11.236 13.6434 12.208C12.6429 13.1807 11.4284 13.667 10 13.667ZM4 17V15H16V17H4Z" fill="black"/>
</svg>
