<?xml version="1.0" encoding="UTF-8"?>
<svg width="20px" height="20px" viewBox="0 0 20 20" version="1.1" xmlns="http://www.w3.org/2000/svg" xmlns:xlink="http://www.w3.org/1999/xlink">
    <!-- Generator: Sketch 46.2 (44496) - http://www.bohemiancoding.com/sketch -->
    <title>user-updated</title>
    <desc>Created with Sketch.</desc>
    <defs>
        <path d="M17.51875,10.9556667 L19.3620833,9.03483333 L18.1695833,9.03483333 C18.12375,7.51233333 16.8254167,6.24066667 15.29375,6.24066667 C13.7079167,6.24066667 12.4170833,7.5315 12.4170833,9.11816667 C12.4170833,9.804 12.66375,10.469 13.11625,10.9956667 L13.4254167,11.3006667 C13.9470833,11.749 14.6104167,11.9956667 15.29375,11.9956667 C15.8054167,11.9956667 16.31125,11.8581667 16.7545833,11.5973333 L16.8470833,11.5423333 L16.0945833,10.7906667 L16.0429167,10.8131667 C15.8004167,10.9165 15.54875,10.969 15.29375,10.969 C14.2729167,10.969 13.4420833,10.139 13.4420833,9.11816667 C13.4420833,8.09733333 14.2729167,7.26733333 15.29375,7.26733333 C16.28625,7.26733333 17.0995833,8.05316667 17.1429167,9.03483333 L15.5220833,9.03483333 L17.51875,10.9556667 Z M7.50041667,11.6665 C5.27541667,11.6665 0.83375,12.7831667 0.83375,14.9998333 L0.83375,16.6665 L14.1670833,16.6665 L14.1670833,14.9998333 C14.1670833,12.7831667 9.72458333,11.6665 7.50041667,11.6665 L7.50041667,11.6665 Z M7.50041667,9.99983333 C9.34125,9.99983333 10.83375,8.50816667 10.83375,6.6665 C10.83375,4.82483333 9.34125,3.33316667 7.50041667,3.33316667 C5.65875,3.33316667 4.16708333,4.82483333 4.16708333,6.6665 C4.16708333,8.50816667 5.65875,9.99983333 7.50041667,9.99983333 L7.50041667,9.99983333 Z" id="path-1"></path>
    </defs>
    <g id="Symbols" stroke="none" stroke-width="1" fill="none" fill-rule="evenodd">
        <g id="user-updated">
            <mask id="mask-2" fill="white">
                <use xlink:href="#path-1"></use>
            </mask>
            <use fill="#000000" xlink:href="#path-1"></use>
        </g>
    </g>
</svg>