<svg xmlns="http://www.w3.org/2000/svg" width="24" height="24" fill="none" viewBox="0 0 24 24"><path fill="currentColor" d="M10 11.5a4 4 0 1 0 0-8 4 4 0 0 0 0 8" opacity=".12"/><path stroke="currentColor" stroke-linecap="round" stroke-linejoin="round" stroke-width="1.5" d="M9 15.5H7.5c-1.396 0-2.093 0-2.661.172a4 4 0 0 0-2.667 2.667C2 18.907 2 19.604 2 21m15.524-4.024h.01M14.5 7.5a4.5 4.5 0 1 1-9 0 4.5 4.5 0 0 1 9 0m1.69 13.186.294.657A1.11 1.11 0 0 0 17.5 22a1.12 1.12 0 0 0 1.016-.657l.294-.657a1.215 1.215 0 0 1 1.24-.712l.719.076a1.12 1.12 0 0 0 1.08-.547 1.1 1.1 0 0 0-.064-1.204l-.425-.582a1.2 1.2 0 0 1-.232-.717c0-.257.082-.507.234-.714l.425-.582a1.103 1.103 0 0 0-.394-1.637 1.1 1.1 0 0 0-.622-.114l-.718.076a1.215 1.215 0 0 1-1.24-.715l-.297-.657A1.11 1.11 0 0 0 17.5 12a1.12 1.12 0 0 0-1.016.657l-.294.657a1.215 1.215 0 0 1-1.24.715l-.721-.076a1.12 1.12 0 0 0-1.08.547 1.1 1.1 0 0 0 .064 1.204l.425.582a1.21 1.21 0 0 1 0 1.428l-.425.582a1.103 1.103 0 0 0 .395 1.637c.191.097.407.137.62.114l.72-.076a1.23 1.23 0 0 1 1.242.715m1.857-3.71c0 .263-.234.476-.523.476S17 17.239 17 16.976s.234-.476.524-.476c.289 0 .523.213.523.476"/></svg>
