<?xml version="1.0" encoding="UTF-8"?>
<svg width="20px" height="20px" viewBox="0 0 20 20" version="1.1" xmlns="http://www.w3.org/2000/svg" xmlns:xlink="http://www.w3.org/1999/xlink">
    <!-- Generator: Sketch 44.1 (41455) - http://www.bohemiancoding.com/sketch -->
    <title>Icons/Views/visible</title>
    <desc>Created with Sketch.</desc>
    <defs>
        <path d="M9.83133367,3.75 C5.74133352,3.75 2.24847339,6.29398009 0.833333333,9.88500023 C2.24847339,13.4760204 5.74133352,16.0200005 9.83133367,16.0200005 C13.9213338,16.0200005 17.414194,13.4760204 18.829334,9.88500023 C17.414194,6.29398009 13.9213338,3.75 9.83133367,3.75 L9.83133367,3.75 Z M9.83133367,13.9750004 C7.57365358,13.9750004 5.74133352,12.1426803 5.74133352,9.88500023 C5.74133352,7.62732014 7.57365358,5.79500008 9.83133367,5.79500008 C12.0890138,5.79500008 13.9213338,7.62732014 13.9213338,9.88500023 C13.9213338,12.1426803 12.0890138,13.9750004 9.83133367,13.9750004 L9.83133367,13.9750004 Z M9.83133367,7.43100014 C8.47345362,7.43100014 7.37733358,8.52712018 7.37733358,9.88500023 C7.37733358,11.2428803 8.47345362,12.3390003 9.83133367,12.3390003 C11.1892137,12.3390003 12.2853338,11.2428803 12.2853338,9.88500023 C12.2853338,8.52712018 11.1892137,7.43100014 9.83133367,7.43100014 L9.83133367,7.43100014 Z" id="path-1"></path>
    </defs>
    <g id="Symbols" stroke="none" stroke-width="1" fill="none" fill-rule="evenodd">
        <g id="Icons/Views/visible">
            <mask id="mask-2" fill="white">
                <use xlink:href="#path-1"></use>
            </mask>
            <use fill="#000000" xlink:href="#path-1"></use>
        </g>
    </g>
</svg>