<svg xmlns="http://www.w3.org/2000/svg" xmlns:xlink="http://www.w3.org/1999/xlink" width="20" height="20"><defs><path id="a" d="M9.992 2A7.991 7.991 0 0 0 2 10c0 4.424 3.576 8 7.992 8S18 14.424 18 10a8 8 0 0 0-8.008-8Z"/></defs><g fill="none" fill-rule="evenodd"><use xlink:href="#a" fill="#000"/><path fill="#FFF" d="M10 16.4A6.398 6.398 0 0 1 3.6 10c0-3.536 2.864-6.4 6.4-6.4 3.536 0 6.4 2.864 6.4 6.4 0 3.536-2.864 6.4-6.4 6.4Z"/><path fill="#000" d="m13.344 6.608-.848.848-.848-.848-.848.848.848.848-.848.848.848.848.848-.848.848.848.848-.848-.848-.848.848-.848zM6.656 10l.848-.848.848.848.848-.848-.848-.848.848-.848-.848-.848-.848.848-.848-.848-.848.848.848.848-.848.848zM10 11.6a4.397 4.397 0 0 0-4.088 2.8h8.176A4.397 4.397 0 0 0 10 11.6Z"/></g></svg>