<svg xmlns="http://www.w3.org/2000/svg" xmlns:xlink="http://www.w3.org/1999/xlink" width="20" height="20"><defs><path id="a" d="M10 2c-4.416 0-8 3.584-8 8s3.584 8 8 8c4.415 0 8-3.584 8-8s-3.585-8-8-8Z"/></defs><g fill="none" fill-rule="evenodd"><use xlink:href="#a" fill="#000"/><path fill="#FFF" d="m12.456 9.4-.72.736c-.576.584-.936 1.064-.936 2.264H9.2V12c0-.88.36-1.68.936-2.264l.992-1.008c.296-.288.472-.688.472-1.128 0-.88-.72-1.6-1.6-1.6-.88 0-1.6.72-1.6 1.6H6.8a3.2 3.2 0 1 1 6.4 0c0 .704-.288 1.344-.744 1.8ZM9.2 15.6h1.6V14H9.2z"/></g></svg>