<svg width="154" height="154" viewBox="0 0 154 154" fill="none" xmlns="http://www.w3.org/2000/svg">
<path fill-rule="evenodd" clip-rule="evenodd" d="M141.182 81.3626C140.203 116.798 110.682 144.729 75.2469 143.749C39.8117 142.769 11.8805 113.249 12.8604 77.8137C13.8404 42.3785 43.3606 14.4473 78.7961 15.4272C114.231 16.4072 142.162 45.9274 141.182 81.3626Z" fill="#F6F6F6"/>
<path fill-rule="evenodd" clip-rule="evenodd" d="M114.442 119.522C114.442 121.578 97.6883 123.244 77.0215 123.244C56.3545 123.244 39.6006 121.578 39.6006 119.522C39.6006 117.466 56.3545 115.799 77.0215 115.799C97.6883 115.799 114.442 117.466 114.442 119.522Z" fill="#ECECEF"/>
<path fill-rule="evenodd" clip-rule="evenodd" d="M99.5092 58.6756C99.3323 56.4318 100.865 54.3184 100.701 52.0739C100.543 49.9017 98.8272 48.1507 96.9664 47.0188C95.1058 45.8872 93.005 45.1606 91.2476 43.8744C87.8422 41.3812 86.0812 37.0556 82.543 34.7545C80.3128 33.3041 77.4207 32.8167 74.9097 33.6955C72.8428 34.4191 71.1154 36.1154 70.406 38.1674C69.8208 39.6027 69.7397 41.2497 70.2787 42.7063C71.4098 45.764 74.6811 47.4467 76.5391 50.1258C77.52 51.54 78.0798 53.1945 78.7061 54.7976C79.5564 56.9742 80.5492 59.0948 81.6762 61.1419C83.9521 65.2761 87.172 69.3827 91.7661 70.4623C93.1831 70.7954 94.6551 70.8165 96.1094 70.7502C97.3771 70.6925 98.6671 70.5631 99.8311 70.0572C100.995 69.5516 102.029 68.613 102.372 67.3907C103.215 64.3803 99.7548 61.7923 99.5092 58.6756Z" fill="#3D4442"/>
<path d="M101.32 53.0138C101.113 54.9396 100.042 56.7129 100.151 58.6756C100.23 59.4828 100.543 60.2448 100.909 60.9609C101.623 62.3582 102.601 63.679 102.986 65.2219C103.386 66.8242 102.944 68.4443 101.726 69.5788C100.266 70.9384 98.2549 71.2777 96.3332 71.3808C94.2737 71.4917 92.1667 71.4073 90.2227 70.6553C86.865 69.3565 84.3571 66.611 82.4303 63.6549C81.329 61.965 80.388 60.1673 79.5336 58.3422C78.6232 56.3977 77.9471 54.3605 77.0658 52.4065C76.2827 50.6707 75.1477 49.3327 73.7743 48.0375C72.5333 46.8674 71.2238 45.7208 70.3239 44.2522C68.3606 41.0487 69.3958 36.7971 72.2551 34.4783C75.2316 32.0646 79.4892 32.1111 82.6893 34.0879C85.7644 35.9873 87.4839 39.277 89.9204 41.8329C91.2956 43.2753 92.9206 44.2265 94.6959 45.1002L94.6973 45.1009C96.4088 45.9431 98.1431 46.7964 99.4792 48.1941C100.724 49.4969 101.517 51.184 101.32 53.0138Z" fill="#35374A"/>
<path fill-rule="evenodd" clip-rule="evenodd" d="M56.2487 47.8957C56.6152 49.1169 57.9024 49.8096 59.1236 49.4431C60.3448 49.0766 61.0376 47.7892 60.671 46.5682C60.3045 45.347 59.5022 45.5135 58.281 45.8801C57.0597 46.2466 55.8821 46.6745 56.2487 47.8957Z" fill="white"/>
<path fill-rule="evenodd" clip-rule="evenodd" d="M56.2487 47.8957C56.6152 49.1169 57.9024 49.8096 59.1236 49.4431C60.3448 49.0766 61.0376 47.7892 60.671 46.5682C60.3045 45.347 59.5022 45.5135 58.281 45.8801C57.0597 46.2466 55.8821 46.6745 56.2487 47.8957Z" stroke="#35374A" stroke-width="1.28383" stroke-linecap="round" stroke-linejoin="round"/>
<path fill-rule="evenodd" clip-rule="evenodd" d="M62.6847 106.362L62.2227 111.368L62.678 111.844L63.9072 107.87L62.6847 106.362Z" fill="#3D4442"/>
<path fill-rule="evenodd" clip-rule="evenodd" d="M62.6847 106.362L62.2227 111.368L62.678 111.844L63.9072 107.87L62.6847 106.362Z" stroke="#35374A" stroke-width="1.28383" stroke-linecap="round" stroke-linejoin="round"/>
<path fill-rule="evenodd" clip-rule="evenodd" d="M56.1671 82.9109L51.5389 86.054L51.7964 86.6592L57.2695 84.649L56.1671 82.9109Z" fill="#3D4442"/>
<path fill-rule="evenodd" clip-rule="evenodd" d="M56.1671 82.9109L51.5389 86.054L51.7964 86.6592L57.2695 84.649L56.1671 82.9109Z" stroke="#35374A" stroke-width="1.28383" stroke-linecap="round" stroke-linejoin="round"/>
<path fill-rule="evenodd" clip-rule="evenodd" d="M86.5633 70.2648L82.6687 97.2825L63.9071 107.87L62.6846 106.362L78.5263 94.6522L79.2009 73.0001L77.4288 72.4418L62.3648 95.1099L60.8022 95.1214L54.4905 84.0496L56.1671 82.911L61.1436 90.757L72.2775 65.7297L86.5633 70.2648Z" fill="white"/>
<path fill-rule="evenodd" clip-rule="evenodd" d="M86.5633 70.2648L82.6687 97.2825L63.9071 107.87L62.6846 106.362L78.5263 94.6522L79.2009 73.0001L77.4288 72.4418L62.3648 95.1099L60.8022 95.1214L54.4905 84.0496L56.1671 82.911L61.1436 90.757L72.2775 65.7297L86.5633 70.2648Z" stroke="#35374A" stroke-width="1.28383" stroke-linecap="round" stroke-linejoin="round"/>
<path fill-rule="evenodd" clip-rule="evenodd" d="M87.8028 44.1809L86.4422 23.7726L77.3718 13.3419L75.558 15.0049L83.8724 24.5285L84.0234 41.712L70.8338 46.1508L63.4641 58.8255L60.1385 49.094L58.022 49.7742L61.9526 63.3041H63.3129L72.5011 51.327L75.6414 57.3138L72.2775 65.7296L86.5633 70.2647L87.2735 57.7486L90.7883 50.9911L87.8028 44.1809Z" fill="#90D1C5"/>
<path fill-rule="evenodd" clip-rule="evenodd" d="M79.6406 46.9164C81.4955 46.2912 82.4955 44.2876 81.8869 42.4312L75.1364 44.7029C75.7744 46.5512 77.7846 47.5419 79.6406 46.9164Z" fill="white"/>
<path fill-rule="evenodd" clip-rule="evenodd" d="M73.2025 14.1429C74.1042 15.0446 75.5659 15.0446 76.4676 14.1429C77.369 13.2415 77.369 11.7795 76.4676 10.8781C75.5659 9.97645 74.9384 10.5034 74.0367 11.4051C73.1353 12.3065 72.3009 13.2415 73.2025 14.1429Z" fill="white"/>
<path fill-rule="evenodd" clip-rule="evenodd" d="M73.2025 14.1429C74.1042 15.0446 75.5659 15.0446 76.4676 14.1429C77.369 13.2415 77.369 11.7795 76.4676 10.8781C75.5659 9.97645 74.9384 10.5034 74.0367 11.4051C73.1353 12.3065 72.3009 13.2415 73.2025 14.1429Z" stroke="#35374A" stroke-width="1.28383" stroke-linecap="round" stroke-linejoin="round"/>
<path fill-rule="evenodd" clip-rule="evenodd" d="M79.3653 35.151C78.0907 38.0708 74.9837 40.116 71.7903 40.0808C72.2587 42.2637 74.1976 43.9013 76.5207 43.9013C79.1941 43.9013 81.3611 41.7342 81.3611 39.0611C81.3611 37.4523 80.5729 36.0311 79.3653 35.151Z" fill="white"/>
<path fill-rule="evenodd" clip-rule="evenodd" d="M79.3653 35.151C78.0907 38.0708 74.9837 40.116 71.7903 40.0808C72.2587 42.2637 74.1976 43.9013 76.5207 43.9013C79.1941 43.9013 81.3611 41.7342 81.3611 39.0611C81.3611 37.4523 80.5729 36.0311 79.3653 35.151Z" stroke="#3D4442" stroke-width="1.28383" stroke-linecap="round" stroke-linejoin="round"/>
<path d="M73.3832 50.1771L63.3132 63.304H61.9526L58.022 49.7741L60.1384 49.0939L63.4641 58.8254L70.8337 46.1507L84.0236 41.7122L83.8724 24.5284L75.558 15.0047L77.3721 13.3418L86.4422 23.7727L87.8028 44.1808L90.7886 50.991L87.2738 57.7485L86.5633 70.2646L72.2775 65.7295L75.6414 57.3139L72.5011 51.3269" stroke="#35374A" stroke-width="1.28383" stroke-linecap="round" stroke-linejoin="round"/>
</svg>
