<svg width="154" height="154" viewBox="0 0 154 154" fill="none" xmlns="http://www.w3.org/2000/svg">
<g clip-path="url(#clip0)">
<path d="M77 141.084C112.393 141.084 141.084 112.393 141.084 77C141.084 41.6075 112.393 12.9161 77 12.9161C41.6075 12.9161 12.9161 41.6075 12.9161 77C12.9161 112.393 41.6075 141.084 77 141.084Z" fill="#F6F6F6"/>
<path d="M69.3382 34.2311C69.3382 38.0018 66.3488 39.0418 65.0014 41.2627C63.654 43.4837 63.4516 45.971 63.8974 48.5275C64.0946 49.6495 64.6018 50.7228 64.6172 51.8627C64.6556 54.8675 61.3818 56.9731 60.9003 59.9369C60.5365 62.1757 61.9992 64.4863 64.069 65.4136C66.1388 66.3384 68.644 65.9925 70.5857 64.8193C72.5274 63.6461 73.9414 61.7326 74.8482 59.6526C75.2094 58.82 75.5015 57.9517 75.6193 57.05C75.8934 54.9981 75.276 52.9488 74.943 50.9047C74.838 50.254 74.7612 49.588 74.879 48.9399C75.235 46.9675 77.1844 45.7712 78.4499 44.2188C79.8075 42.5538 80.4146 40.2996 80.0765 38.1786C79.7384 36.0575 78.4601 34.103 76.6516 32.9452L69.3382 34.2311Z" fill="#35374A"/>
<path d="M68.4801 34.2313C68.4775 34.4234 68.4724 34.6181 68.4544 34.8102C68.4544 34.8076 68.4186 35.1074 68.4416 34.9434C68.4288 35.0305 68.4135 35.1176 68.3981 35.2021C68.3648 35.3661 68.3264 35.53 68.2777 35.6914C68.2546 35.7683 68.229 35.8477 68.2034 35.9219C68.1932 35.9527 68.0753 36.2524 68.1471 36.0859C68.0395 36.3421 67.9063 36.588 67.7577 36.8236C67.6783 36.9492 67.5963 37.0721 67.5092 37.1899C67.4938 37.2104 67.3453 37.4026 67.4657 37.2489C67.4042 37.3257 67.3427 37.4 67.2812 37.4743C66.5307 38.3606 65.6059 39.0804 64.8708 39.9795C62.532 42.8434 62.4603 46.7832 63.4337 50.1927C63.5464 50.5872 63.6719 51.0098 63.7257 51.4069C63.7539 51.6118 63.7616 51.8219 63.7539 52.0294C63.7513 52.0857 63.7488 52.1421 63.7462 52.1984C63.7411 52.2548 63.7385 52.3111 63.7308 52.3649C63.7436 52.2753 63.7436 52.2804 63.7257 52.3829C63.5797 53.1385 63.4055 53.5433 63.0315 54.1939C62.3348 55.4107 61.4126 56.484 60.7696 57.7315C60.0267 59.1711 59.7398 60.7722 60.2599 62.3399C60.7773 63.8973 61.9146 65.2755 63.3825 66.0286C66.669 67.7141 70.6293 66.4461 73.0756 63.9024C74.277 62.6524 75.1607 61.1487 75.8114 59.5503C76.2008 58.5948 76.4544 57.5958 76.5235 56.566C76.5927 55.5618 76.4672 54.5551 76.3032 53.5638C76.1444 52.598 75.9241 51.6426 75.7678 50.6768C75.6961 50.226 75.6449 49.7623 75.6859 49.3064C75.7012 49.1373 75.7371 48.9759 75.7858 48.812C75.8549 48.5686 75.878 48.5174 75.9625 48.3535C76.2981 47.6849 76.6798 47.2725 77.2203 46.7243C77.7505 46.1838 78.3115 45.674 78.8136 45.1079C81.2062 42.4054 81.7108 38.4426 79.9561 35.2687C79.5616 34.554 79.0544 33.8855 78.4729 33.3117C78.1655 33.0094 77.8325 32.7353 77.4841 32.4791C77.1434 32.2281 76.8591 32.0462 76.4108 32.118C75.8729 32.205 75.3375 32.3075 74.7996 32.4023C73.0269 32.7148 71.2569 33.0248 69.4842 33.3373C69.3587 33.3603 69.2306 33.3808 69.1051 33.4039C68.6491 33.4833 68.3904 34.0417 68.5057 34.4593C68.6389 34.9409 69.1025 35.1381 69.5611 35.0587C71.6949 34.6847 73.8287 34.3081 75.96 33.9341C76.2648 33.8803 76.5696 33.8266 76.877 33.7728C76.6567 33.7446 76.4364 33.7138 76.2161 33.6857C78.2142 34.987 79.4181 37.3103 79.3003 39.7311C79.2388 40.953 78.8213 42.1902 78.1117 43.243C77.4688 44.1985 76.4877 44.9824 75.6859 45.8508C74.7637 46.8472 74.0567 47.982 73.9722 49.3679C73.9209 50.1978 74.0926 51.0431 74.2463 51.8552C74.3897 52.6185 74.5511 53.3768 74.674 54.1427C74.9071 55.6028 74.8841 57.022 74.4076 58.4308C73.9978 59.6425 73.3369 60.8746 72.594 61.8506C71.0289 63.905 68.6747 65.2755 66.0747 65.0629C64.9707 64.9732 63.8435 64.466 63.0674 63.7001C62.655 63.2928 62.386 62.9213 62.1119 62.368C61.9915 62.1247 61.9377 61.9812 61.8506 61.6687C61.8122 61.5355 61.7814 61.4023 61.7558 61.2665C61.7174 61.0693 61.7251 61.1308 61.7123 60.9028C61.7046 60.7645 61.702 60.6261 61.7046 60.4904C61.7072 60.4135 61.7123 60.3367 61.7174 60.2598C61.72 60.2291 61.7456 60.037 61.7251 60.165C61.7686 59.8858 61.8429 59.6092 61.9326 59.3402C62.0735 58.9227 62.3015 58.4795 62.5909 57.9979C63.1724 57.0322 63.8768 56.1484 64.4481 55.175C65.0398 54.1709 65.4855 53.0438 65.4702 51.8603C65.4497 50.4104 64.7811 49.0476 64.6197 47.626C64.4609 46.2222 64.5121 44.8517 64.9194 43.512C65.1141 42.869 65.3856 42.2696 65.7366 41.6933C65.7904 41.6062 65.8467 41.5191 65.9056 41.4345C65.9389 41.3859 66.1131 41.1528 65.9953 41.3039C66.1388 41.122 66.2899 40.9478 66.4461 40.7788C67.0686 40.1076 67.7679 39.5133 68.3725 38.8268C69.082 38.0199 69.661 37.1131 69.9504 36.068C70.1169 35.4737 70.1861 34.8461 70.1887 34.2287C70.204 33.1272 68.4877 33.1272 68.4801 34.2313Z" fill="#35374A"/>
<path d="M77 121.882C97.6396 121.882 114.371 120.218 114.371 118.165C114.371 116.112 97.6396 114.448 77 114.448C56.3604 114.448 39.6286 116.112 39.6286 118.165C39.6286 120.218 56.3604 121.882 77 121.882Z" fill="#ECECEF"/>
<path d="M70.8957 42.7153L65.2166 44.2702V72.1534H82.7611V51.3992L91.7421 56.4123L101.681 48.461L99.8906 46.2068L92.257 51.3095L82.7636 44.2702L77.0845 42.7153C77.0845 42.7153 77.0845 45.6125 73.9927 45.6125C70.9008 45.6125 70.8957 42.7153 70.8957 42.7153Z" fill="#BBD6DC"/>
<path d="M69.6021 43.069L73.9901 53.7278L78.3756 43.069L82.7611 44.2704V72.1535H65.2166V44.2704L69.6021 43.069Z" fill="#F04C5D"/>
<path d="M82.7611 56.4122H65.2166V59.3965H82.7611V56.4122Z" fill="white"/>
<path d="M82.7611 62.3811H65.2166V65.3654H82.7611V62.3811Z" fill="white"/>
<path d="M103.828 37.7511V116.92" stroke="#35374A" stroke-width="1.48133" stroke-miterlimit="10" stroke-linecap="round" stroke-linejoin="round"/>
<path d="M78.496 117.338L83.9958 117.845L84.5158 117.343L80.1508 115.993L78.496 117.338Z" fill="#3E4543" stroke="#35374A" stroke-width="1.28081" stroke-miterlimit="10" stroke-linecap="round" stroke-linejoin="round"/>
<path d="M69.456 117.338L63.9563 117.845L63.4337 117.343L67.7987 115.993L69.456 117.338Z" fill="#3E4543" stroke="#35374A" stroke-width="1.28081" stroke-miterlimit="10" stroke-linecap="round" stroke-linejoin="round"/>
<path d="M82.7611 49.1577V72.1533H65.2166V56.7811" stroke="#35374A" stroke-width="1.28081" stroke-miterlimit="10" stroke-linecap="round" stroke-linejoin="round"/>
<path d="M65.2166 72.1533L66.8586 93.9527L67.7987 115.993L69.456 117.338L74.5024 72.1533L78.496 117.338L80.1508 115.993L81.1191 93.9527L82.7611 72.1533H65.2166Z" fill="#35374A" stroke="#35374A" stroke-width="1.28081" stroke-miterlimit="10" stroke-linecap="round" stroke-linejoin="round"/>
<path d="M65.2166 44.2702L73.9901 41.8674L82.7611 44.2702L92.2544 51.3095L99.888 46.2068L101.679 48.461L91.7421 56.4123L82.7611 51.3992" stroke="#35374A" stroke-width="1.28081" stroke-miterlimit="10" stroke-linecap="round" stroke-linejoin="round"/>
<path d="M99.888 46.207L102.634 44.2704H105.262V47.2905L101.679 48.4612L99.888 46.207Z" fill="white" stroke="#35374A" stroke-width="1.28081" stroke-miterlimit="10" stroke-linecap="round" stroke-linejoin="round"/>
<path d="M69.6021 43.069L73.9901 53.7278L78.3756 43.069L82.7611 44.2704V72.1535H65.2166V44.2704L69.6021 43.069Z" stroke="#35374A" stroke-width="1.28081" stroke-miterlimit="10" stroke-linecap="round" stroke-linejoin="round"/>
<path d="M55.0316 34.6566L54.3297 51.156L65.2166 49.7292V44.2704L58.1875 45.9841L57.6291 34.6566H55.0316Z" fill="#BBD6DC" stroke="#35374A" stroke-width="1.28081" stroke-miterlimit="10" stroke-linecap="round" stroke-linejoin="round"/>
<path d="M55.0316 34.6565L54.696 28.3396H57.291L58.5897 31.2086L57.6291 34.6565H55.0316Z" fill="white" stroke="#35374A" stroke-width="1.28081" stroke-miterlimit="10" stroke-linecap="round" stroke-linejoin="round"/>
<path d="M100.083 38.3915C99.2015 38.3915 98.0667 37.9227 97.4442 37.2976L92.1468 32.0002C91.5243 31.3778 91.053 30.243 91.053 29.3618V21.8665C91.053 20.9853 91.5218 19.8505 92.1468 19.228L97.4442 13.9306C98.0667 13.3081 99.2015 12.8368 100.083 12.8368H107.575C108.457 12.8368 109.591 13.3056 110.214 13.9306L115.511 19.228C116.134 19.8505 116.605 20.9853 116.605 21.8665V29.3592C116.605 30.2404 116.136 31.3752 115.511 31.9977L110.214 37.2951C109.591 37.9176 108.457 38.3889 107.575 38.3889H100.083V38.3915Z" fill="#F3707D"/>
<path d="M107.575 13.4771C108.28 13.4771 109.264 13.8844 109.763 14.3839L115.06 19.6813C115.557 20.1783 115.967 21.1645 115.967 21.8689V29.3617C115.967 30.0661 115.56 31.0498 115.06 31.5493L109.763 36.8467C109.266 37.3436 108.28 37.7535 107.575 37.7535H100.083C99.3783 37.7535 98.3946 37.3462 97.8951 36.8467L92.5977 31.5493C92.1007 31.0523 91.6909 30.0661 91.6909 29.3617V21.8664C91.6909 21.1619 92.0982 20.1783 92.5977 19.6788L97.8951 14.3813C98.392 13.8844 99.3783 13.4745 100.083 13.4745H107.575V13.4771ZM107.575 12.1963H100.083C99.0324 12.1963 97.7337 12.7342 96.9908 13.4771L91.6934 18.7745C90.9506 19.5174 90.4126 20.8161 90.4126 21.8664V29.3591C90.4126 30.4094 90.9506 31.7081 91.6934 32.451L96.9908 37.7484C97.7337 38.4912 99.0324 39.0292 100.083 39.0292H107.575C108.626 39.0292 109.924 38.4912 110.667 37.7484L115.965 32.451C116.708 31.7081 117.246 30.4094 117.246 29.3591V21.8664C117.246 20.8161 116.708 19.5174 115.965 18.7745L110.667 13.4771C109.924 12.7342 108.626 12.1963 107.575 12.1963Z" fill="#35374A"/>
<path d="M102.556 27.1938H105.1V18.9455H102.556V27.1938Z" fill="white"/>
<path d="M103.828 32.2793C104.529 32.2793 105.098 31.7104 105.098 31.0087C105.098 30.307 104.529 29.7382 103.828 29.7382C103.126 29.7382 102.557 30.307 102.557 31.0087C102.557 31.7104 103.126 32.2793 103.828 32.2793Z" fill="white"/>
<path d="M77.082 42.7154C77.082 42.7154 77.082 45.6126 73.9901 45.6126C70.8982 45.6126 70.8982 42.7154 70.8982 42.7154V41.2629H77.082V42.7154Z" fill="white" stroke="#35374A" stroke-width="1.28081" stroke-miterlimit="10" stroke-linecap="round" stroke-linejoin="round"/>
<path d="M73.9901 43.0689C76.9271 43.0689 79.308 40.688 79.308 37.751C79.308 34.814 76.9271 32.4331 73.9901 32.4331C71.0531 32.4331 68.6722 34.814 68.6722 37.751C68.6722 40.688 71.0531 43.0689 73.9901 43.0689Z" fill="white" stroke="#35374A" stroke-width="1.28081" stroke-miterlimit="10" stroke-linecap="round" stroke-linejoin="round"/>
<path d="M67.7987 35.6326C67.7987 32.2128 70.5704 29.4437 73.9876 29.4437C77.4047 29.4437 80.1764 32.2154 80.1764 35.6326H67.7987Z" fill="#F04C5D" stroke="#35374A" stroke-width="1.28081" stroke-miterlimit="10" stroke-linecap="round" stroke-linejoin="round"/>
<path d="M66.6434 35.6326H81.3342" stroke="#35374A" stroke-width="1.49073" stroke-miterlimit="10" stroke-linecap="round" stroke-linejoin="round"/>
<path d="M73.0039 28.3396V35.6325" stroke="#35374A" stroke-width="0.640403" stroke-miterlimit="10" stroke-linecap="round" stroke-linejoin="round"/>
<path d="M74.9738 28.3396V35.6325" stroke="#35374A" stroke-width="0.640403" stroke-miterlimit="10" stroke-linecap="round" stroke-linejoin="round"/>
</g>
<defs>
<clipPath id="clip0">
<rect width="154" height="154" fill="white"/>
</clipPath>
</defs>
</svg>
