<svg width="123" height="20" viewBox="0 0 123 20" fill="none" xmlns="http://www.w3.org/2000/svg">
<path fill-rule="evenodd" clip-rule="evenodd" d="M116.423 15.4265C117.076 15.9535 117.89 16.2298 118.722 16.2072C120.871 16.2072 123 14.284 123 11.2887C123 8.88634 121.581 7 119.301 7C118.164 7.03438 117.097 7.5623 116.367 8.45077L116.271 7.19098C115.849 7.23269 115.425 7.2517 115 7.24794C115.097 8.33169 115.141 9.41975 115.131 10.508V17.0448C115.131 17.9059 115.095 19.4472 115.039 20C115.07 20 115.486 19.9614 115.867 19.9262C116.186 19.8966 116.48 19.8693 116.498 19.8693C116.441 19.2602 116.416 18.6484 116.423 18.0366V15.4265ZM116 9.45412C116.618 8.65335 117.515 8.00335 118.559 8.00335V8C120.113 8 121.29 9.08892 121.29 11.2802C121.29 13.2268 120.074 14.9021 118.28 14.9021C117.423 14.9457 116.589 14.6041 116 13.9673V9.45412Z" fill="white"/>
<path d="M111.608 16.0338C111.682 15.2042 111.723 13.868 111.723 12.746V10.4068C111.723 8.9754 111.179 8.1798 109.999 8.1798C108.568 8.1798 107.235 9.5738 107.235 10.638V14.038C107.235 14.718 107.256 15.5272 107.293 16.0304H105.804C105.862 15.2008 105.899 13.8646 105.899 12.7426V10.4068C105.899 8.9754 105.396 8.1798 104.216 8.1798C102.785 8.1798 101.452 9.5738 101.452 10.638V14.038C101.452 14.718 101.469 15.4694 101.51 16.0304H100.02C100.078 15.2008 100.116 13.8646 100.116 12.7426V10.5394C100.116 9.4174 100.078 8.0846 100 7.2516C100.44 7.24824 100.879 7.22214 101.316 7.1734L101.411 8.9142C102.108 7.9486 103.271 7 104.566 7C105.926 7 106.868 7.7174 107.12 8.9754C107.66 8.0472 108.84 7 110.35 7C112.05 7 113.07 8.0472 113.07 10.0974V14.0414C113.07 14.7214 113.09 15.5306 113.127 16.0338H111.608Z" fill="white"/>
<path fill-rule="evenodd" clip-rule="evenodd" d="M74.3316 11.7672L80.1156 11.6164L81 11.1049C81 8.80982 79.8649 7 77.3778 7C74.7349 7 73 9.08851 73 11.7377C73 14.0786 74.4841 15.9999 77.2626 15.9999C78.449 16.0052 79.6053 15.6395 80.5595 14.9573L80.6171 13.6131C79.7453 14.3971 78.6051 14.8419 77.4151 14.8622C75.5277 14.8622 74.3892 13.7803 74.3316 11.7672ZM76.9106 8C78.4354 8 79.2046 8.91475 79.3808 10.5541L74 10.6852C74.2507 9.19344 75.3113 8 76.9106 8Z" fill="white"/>
<path d="M72.4472 8.547C70.9784 8.394 69.5096 9.516 69.5096 10.9066V14.0414C69.5096 14.7214 69.5266 15.4728 69.5674 16.0338H68.0782C68.153 15.2042 68.1734 13.868 68.1734 12.746V10.2708C68.1827 9.28766 68.1248 8.30503 68 7.3298C68.4492 7.30508 68.8952 7.24022 69.3328 7.136L69.4892 9.1284C70.0753 7.90682 71.2723 7.09411 72.624 7L72.4472 8.547Z" fill="white"/>
<path d="M63.4668 15.8774L63.3036 14.2148C62.6474 15.296 61.2636 16.2072 60.0532 16.2072C58.2376 16.2072 57.0952 15.1872 57.0952 12.8786V10.2878C57.0952 9.2236 57.0578 7.9656 57 7.0782C57.4975 7.08297 57.9949 7.05686 58.4892 7C58.4484 7.5202 58.4314 8.4314 58.4314 9.1284V12.5556C58.4314 14.2386 59.0672 14.9934 60.4034 14.9934C61.641 14.9934 63.2662 13.6334 63.2662 12.576V10.2878C63.2662 9.2236 63.2288 7.9656 63.1506 7.0782C63.6549 7.08397 64.1592 7.05785 64.6602 7C64.6194 7.5202 64.599 8.4314 64.599 9.1284V12.61C64.599 13.732 64.6398 14.99 64.718 15.8774H63.4668Z" fill="white"/>
<path d="M43.4736 15.8774L43.307 14.2148C42.6474 15.296 41.267 16.2072 40.0566 16.2072C38.2376 16.2072 37.0952 15.1872 37.0952 12.8786V10.2878C37.0952 9.2236 37.0578 7.9656 37 7.0782C37.4975 7.08297 37.9949 7.05686 38.4892 7C38.4518 7.5202 38.4314 8.4314 38.4314 9.1284V12.5556C38.4314 14.2386 39.0706 14.9934 40.4034 14.9934C41.641 14.9934 43.2662 13.6334 43.2662 12.576V10.2878C43.2662 9.2236 43.2288 7.9656 43.1506 7.0782C43.6549 7.08407 44.1592 7.05795 44.6602 7C44.6194 7.5202 44.6024 8.4314 44.6024 9.1284V12.61C44.6024 13.732 44.6398 14.99 44.718 15.8774H43.4736Z" fill="white"/>
<path d="M55.372 15.8732C54.8853 16.1977 54.3113 16.3661 53.7264 16.356C52.2168 16.356 51.5402 15.4856 51.5402 13.976V8.4068H50L50.3672 7.244H51.5674L51.7034 5.3094L52.8832 5V7.244H55.3176C55.2745 7.63005 55.2552 8.01838 55.2598 8.4068H52.8798V13.8468C52.8798 14.8158 53.2844 15.1422 54.0188 15.1422C54.5221 15.1286 55.0117 14.9756 55.4332 14.7002L55.372 15.8732Z" fill="white"/>
<path fill-rule="evenodd" clip-rule="evenodd" d="M92.1887 2.11503C91.7816 3.174 91.2753 4.29048 90.4371 6.11745L86 15.8613H87.5976C87.6619 15.7028 87.7393 15.5107 87.8266 15.2942C88.1625 14.4613 88.6438 13.2677 89.0755 12.2446L89.3868 11.5307H95.4216L97.4434 16L99 15.8647C98.6134 15.0967 97.8711 13.5607 97.2689 12.2073L92.5787 2L92.1887 2.11503ZM94.9845 10.6399H90L92.4939 5L94.9845 10.6399Z" fill="white"/>
<path d="M47 15.9264C47.0748 15.0968 47.0952 13.8558 47.0952 12.7168V5.4442C47.0952 4.1284 47.0748 3.0846 47 2.1938C47.4999 2.15974 47.9972 2.09502 48.4892 2C48.4484 2.34 48.4314 3.4518 48.4314 4.2236V14.0122C48.4314 14.6922 48.4484 15.4232 48.4892 15.9264H47Z" fill="white"/>
<path d="M36.084 14.7875C34.8367 15.7638 33.2955 16.2888 31.7116 16.2767C27.7064 16.2767 25 13.0841 25 9.42913C25 5.28793 27.941 2.00013 32.0788 2.00013C33.4827 1.99167 34.8572 2.40248 36.0262 3.17993L35.6012 4.47533C34.555 3.70049 33.2854 3.28644 31.9836 3.29553C28.7332 3.29553 26.4518 5.86933 26.4518 9.11633C26.4518 12.6591 28.6754 14.9983 31.8068 14.9983C33.4493 15.0033 35.0249 14.3478 36.1792 13.1793L36.084 14.7875Z" fill="white"/>
<path d="M18.1292 8.72532C18.068 8.22552 17.9422 8.00451 17.8436 8.00451H17.8028C17.694 8.05211 17.5988 8.41251 17.6226 8.71171C17.7773 9.98553 17.5859 11.2775 17.0684 12.4517C16.6517 13.3642 16.0563 14.1838 15.3174 14.8623C14.2974 15.8415 13.444 16.0625 13.223 16.0625C13.1482 16.0625 13.104 16.0353 13.087 15.9877C13.0733 15.9428 13.0932 15.8944 13.1346 15.8721L13.3148 15.7395C13.6712 15.4961 14.0119 15.2303 14.3348 14.9439C15.1377 14.1654 15.8022 13.2559 16.3 12.2545C16.542 11.5474 16.6504 10.8015 16.6196 10.0547C16.5754 9.62632 16.487 9.49372 16.4666 9.48011C16.3952 9.48011 16.232 9.71472 16.1266 10.0853C16.0212 10.4559 15.926 10.8027 15.8138 11.1733C15.6473 11.8371 15.3244 12.4515 14.872 12.9651C14.8108 13.0433 14.7462 13.1181 14.685 13.1997C14.3374 13.7001 13.8451 14.0821 13.274 14.2945C13.2298 14.2965 13.1891 14.2707 13.172 14.2299C13.1482 14.1619 13.2026 14.0973 13.291 14.0225C13.9247 13.461 14.3837 12.7294 14.6136 11.9145C14.6625 11.7706 14.6489 11.6128 14.5762 11.4793C14.5762 11.4793 14.5048 11.4793 14.3926 11.7717C14.239 12.1985 14.0199 12.5989 13.7432 12.9583C13.2909 13.5871 12.7118 14.1141 12.0432 14.5053C11.4171 14.8104 10.7303 14.9708 10.0338 14.9745C9.58944 14.9716 9.14685 14.918 8.71462 14.8147C7.69462 14.5767 6.51142 13.5805 6.43322 13.4989C6.10227 13.1609 5.81031 12.7868 5.56282 12.3837C5.03775 11.53 4.78954 10.5348 4.85222 9.53451C4.87946 8.66245 5.19784 7.8246 5.75662 7.15451C6.31008 6.43261 7.06308 5.88884 7.92242 5.59051C8.4806 5.40644 9.06531 5.31569 9.65302 5.32191C10.4013 5.27933 11.1468 5.44279 11.8086 5.79451C12.5169 6.25051 13.1647 6.79429 13.7364 7.41291C14.122 7.77406 14.6327 7.97152 15.161 7.96371C15.5745 7.95864 15.9788 7.84111 16.3306 7.62371C16.9877 7.29407 17.4512 6.67434 17.5818 5.95091C17.7858 4.49231 16.4462 3.06091 16.4326 3.04731C16.1404 2.73856 15.8329 2.44465 15.5112 2.16671C15.4687 1.90758 15.3211 1.67751 15.1032 1.53091C13.6071 0.438994 11.7772 -0.0972389 9.92842 0.0145147C8.94658 0.041806 7.97114 0.182131 7.02142 0.432715C4.69606 0.946168 2.67811 2.3802 1.42842 4.40731C0.476421 5.52931 0.122821 7.24971 0.0140207 8.65051C-0.0981793 10.1669 0.490021 12.4415 0.816421 12.7305C0.978186 12.9019 1.18795 13.0204 1.41822 13.0705C1.55672 13.383 1.71105 13.6883 1.88062 13.9851L2.06422 14.2537C2.43083 14.8339 2.86826 15.3661 3.36642 15.8381C4.17658 16.5279 5.09578 17.0783 6.08642 17.4667C6.98521 17.8872 7.96075 18.1186 8.95262 18.1467C9.31302 18.1467 9.56122 18.1467 9.78222 18.1467C10.5394 18.1546 11.2935 18.0492 12.0194 17.8339C12.928 17.5735 13.7964 17.189 14.6 16.6915C15.2087 16.2315 15.7774 15.7208 16.3 15.1649C16.8806 14.4614 17.3402 13.6663 17.66 12.8121C18.3876 10.6871 18.2346 9.51412 18.1292 8.72532Z" fill="white"/>
</svg>
