<?xml version="1.0" encoding="UTF-8"?>
<svg width="35px" height="80px" viewBox="0 0 35 80" version="1.1" xmlns="http://www.w3.org/2000/svg" xmlns:xlink="http://www.w3.org/1999/xlink">
    <!-- Generator: Sketch 48.2 (47327) - http://www.bohemiancoding.com/sketch -->
    <title>minimum-size</title>
    <desc>Created with Sketch.</desc>
    <defs>
        <path d="M17.6727554,9.0413132 C17.5397375,9.08988985 17.4562915,9.40934307 17.4761203,9.66951631 C17.5397375,10.5249593 17.6116168,11.4940223 16.991142,12.9727285 C16.6961893,13.6766782 16.1632916,14.4110913 15.4527612,15.095281 C14.5579887,15.9564874 13.8069747,16.1499707 13.6144706,16.1499707 C13.5475485,16.1499707 13.5070648,16.128564 13.4938456,16.0857507 C13.4888885,16.071754 13.4789741,16.0240007 13.5351555,15.9836574 L13.6937856,15.8683908 C14.0730105,15.5958675 14.175459,15.5225909 14.5836009,15.1660877 C15.2329926,14.6004579 16.1599868,13.2378417 16.3087024,12.7981819 C16.4896398,12.264662 16.6466174,11.4594423 16.5887836,10.8633492 C16.5532571,10.4862627 16.473942,10.3677027 16.4574181,10.3578227 C16.3921484,10.3677027 16.2516948,10.5628327 16.1665964,10.8896959 C16.0914123,11.1778624 15.98979,11.520369 15.8906462,11.8472322 C15.6138699,12.7636019 15.3354411,13.1003451 15.0661005,13.4255616 C15.0107453,13.4930749 14.95539,13.5597649 14.9000347,13.6313949 C14.4208399,14.2530113 13.8053223,14.5881079 13.6590853,14.5881079 C13.595468,14.5881079 13.5748131,14.5452946 13.5698559,14.5321212 C13.5475485,14.4711946 13.595468,14.4143846 13.6731306,14.3476946 C13.8697658,14.180558 14.534029,13.5531783 14.8314603,12.4927253 C14.8818584,12.3124154 14.8322865,12.1255188 14.8000648,12.1098754 C14.8000648,12.1098754 14.7364475,12.1246954 14.63813,12.3675787 C14.429928,12.8813385 14.3960539,12.9315618 14.0672271,13.4132116 C13.66239,14.0068348 12.9262476,14.6053979 12.5767658,14.7733578 C12.0306489,15.0360011 11.4366125,15.1685577 10.8128329,15.1685577 C10.4410438,15.1685577 10.0502521,15.1208044 9.65202468,15.0277677 C8.76551416,14.8194645 7.71706883,13.9409681 7.65097298,13.8701615 C7.36262986,13.5581183 7.07015575,13.2230217 6.88343499,12.8903952 C6.39349954,12.0160155 6.18364523,11.1704524 6.26048165,10.3767594 C6.33897047,9.55671968 6.49925289,8.91863658 7.05445798,8.26820347 C7.60305349,7.62518037 8.09051035,7.19375386 8.95636591,6.88912063 C9.3876413,6.73680402 9.92880103,6.65282405 10.4790489,6.65282405 C11.2482393,6.65282405 11.9372885,6.81666733 12.3710425,7.10071722 C13.1253613,7.59636371 13.3947019,7.85324362 14.0639223,8.52343672 C14.367137,8.82806994 14.8355913,9.01002654 15.3156124,9.01002654 C15.6733561,9.01002654 16.0178807,8.91287324 16.3417503,8.72103665 C16.9878372,8.33818678 17.357974,7.84254029 17.4405938,7.24809384 C17.6198787,5.9661643 16.4433727,4.70564141 16.4318059,4.69329142 C16.1508986,4.39689152 15.8823842,4.14248161 15.6221318,3.91853503 C15.6196532,3.60319847 15.2652143,3.35784523 15.2652143,3.35784523 C13.3046463,1.9515924 11.468008,1.97546905 10.7186464,2.01004904 C9.82883106,2.05121569 8.99437102,2.14672233 8.16652057,2.37890224 C6.08615386,2.85643541 4.43788874,4.03050832 3.25229452,5.87642099 C2.41618209,6.86359731 2.10553162,8.37688344 2.01299744,9.61188299 C1.91137507,10.9473292 2.43022746,12.9480285 2.71443959,13.2156117 C2.98047536,13.4650816 3.21428941,13.5004849 3.24485874,13.5037783 C3.40679356,13.8487548 3.57946895,14.207728 3.65134818,14.3106447 C3.70505106,14.388038 3.75875393,14.4670779 3.813283,14.5461179 C4.14789322,15.0351777 4.4940702,15.5407042 4.95674112,15.9424907 C5.72014812,16.6052738 6.40506631,16.9708337 7.32958194,17.3767369 C8.24666178,17.7801701 8.95306112,17.9497767 9.84700742,17.98271 C10.1626151,17.99506 10.3807314,18 10.5765403,18 C11.2903754,18 11.8042706,17.9275467 12.5404131,17.7217134 C13.3071249,17.5092935 14.1548041,17.1330303 14.8083268,16.7164238 C15.0966699,16.5319972 15.985659,15.7292475 16.2946571,15.3727443 C16.6127433,15.0063611 17.1935605,14.1525647 17.4901656,13.300415 C18.1494717,11.4059257 18.0139752,10.3701727 17.9230934,9.6769263 C17.866912,9.23808979 17.7570276,9.0413132 17.6727554,9.0413132 Z" id="path-1"></path>
    </defs>
    <g id="Page-1" stroke="none" stroke-width="1" fill="none" fill-rule="evenodd">
        <g id="minimum-size">
            <g id="Group" transform="translate(0.000000, 11.000000)">
                <rect id="Rectangle" stroke="#F04C5D" x="7.5" y="0.5" width="19" height="19"></rect>
                <g id="Icons/Actions/draft" transform="translate(7.000000, 0.000000)">
                    <mask id="mask-2" fill="white">
                        <use xlink:href="#path-1"></use>
                    </mask>
                    <use id="Icons/Navigational/Global/ca-monogram" fill="#000000" xlink:href="#path-1"></use>
                    <g id="Color/Ink/100%" mask="url(#mask-2)" fill="#3E4543">
                        <rect id="Rectangle-1-Copy-28" x="0" y="0" width="20" height="20"></rect>
                    </g>
                </g>
                <g id="#width-bottom-84C6F4AB-E63C-45D6-98AA-15D647505CBA" transform="translate(0.000000, 38.000000)">
                    <rect id="line" fill="#F04C5D" x="7" y="2" width="20" height="1"></rect>
                    <rect id="start" fill="#F04C5D" x="7" y="0" width="1" height="5"></rect>
                    <rect id="end" fill="#F04C5D" x="26" y="0" width="1" height="5"></rect>
                    <rect id="box" fill="#F04C5D" x="0" y="9" width="35" height="22" rx="3"></rect>
                    <polygon id="arrow" fill="#F04C5D" points="14 9 18 5 22 9 18 13"></polygon>
                    <path d="M4.69,18.504 C4.66599988,18.0719978 4.70999944,17.6720018 4.822,17.304 C4.93400056,16.9359982 5.10799882,16.6180013 5.344,16.35 C5.58000118,16.0819987 5.87399824,15.8720008 6.226,15.72 C6.57800176,15.5679992 6.97799776,15.492 7.426,15.492 C7.79400184,15.492 8.13999838,15.5459995 8.464,15.654 C8.78800162,15.7620005 9.0699988,15.917999 9.31,16.122 C9.5500012,16.326001 9.7399993,16.5799985 9.88,16.884 C10.0200007,17.1880015 10.09,17.539998 10.09,17.94 C10.09,18.3160019 10.0320006,18.6479986 9.916,18.936 C9.79999942,19.2240014 9.64600096,19.4819989 9.454,19.71 C9.26199904,19.9380011 9.04200124,20.1439991 8.794,20.328 C8.54599876,20.5120009 8.29000132,20.6879992 8.026,20.856 C7.76199868,21.0160008 7.49800132,21.1739992 7.234,21.33 C6.96999868,21.4860008 6.7280011,21.6519991 6.508,21.828 C6.2879989,22.0040009 6.10000078,22.193999 5.944,22.398 C5.78799922,22.602001 5.68600024,22.8359987 5.638,23.1 L10.006,23.1 L10.006,24 L4.45,24 C4.4900002,23.4959975 4.5799993,23.0660018 4.72,22.71 C4.8600007,22.3539982 5.03799892,22.0440013 5.254,21.78 C5.47000108,21.5159987 5.71399864,21.284001 5.986,21.084 C6.25800136,20.883999 6.54199852,20.6960009 6.838,20.52 C7.1980018,20.2959989 7.51399864,20.0900009 7.786,19.902 C8.05800136,19.7139991 8.2839991,19.524001 8.464,19.332 C8.6440009,19.139999 8.77999954,18.9320011 8.872,18.708 C8.96400046,18.4839989 9.01,18.2240015 9.01,17.928 C9.01,17.6959988 8.96600044,17.4860009 8.878,17.298 C8.78999956,17.1099991 8.67200074,16.9480007 8.524,16.812 C8.37599926,16.6759993 8.202001,16.5720004 8.002,16.5 C7.801999,16.4279996 7.59000112,16.392 7.366,16.392 C7.06999852,16.392 6.81600106,16.4539994 6.604,16.578 C6.39199894,16.7020006 6.21800068,16.863999 6.082,17.064 C5.94599932,17.264001 5.8480003,17.4899987 5.788,17.742 C5.7279997,17.9940013 5.70199996,18.2479987 5.71,18.504 L4.69,18.504 Z M12.418,19.812 C12.418,20.1320016 12.4279999,20.489998 12.448,20.886 C12.4680001,21.282002 12.5319995,21.6539983 12.64,22.002 C12.7480005,22.3500017 12.9219988,22.6439988 13.162,22.884 C13.4020012,23.1240012 13.7379978,23.244 14.17,23.244 C14.6020022,23.244 14.9379988,23.1240012 15.178,22.884 C15.4180012,22.6439988 15.5919995,22.3500017 15.7,22.002 C15.8080005,21.6539983 15.8719999,21.282002 15.892,20.886 C15.9120001,20.489998 15.922,20.1320016 15.922,19.812 C15.922,19.603999 15.92,19.3740013 15.916,19.122 C15.912,18.8699987 15.8920002,18.6180013 15.856,18.366 C15.8199998,18.1139987 15.7680003,17.8680012 15.7,17.628 C15.6319997,17.3879988 15.5320007,17.1780009 15.4,16.998 C15.2679993,16.8179991 15.102001,16.6720006 14.902,16.56 C14.701999,16.4479994 14.4580014,16.392 14.17,16.392 C13.8819986,16.392 13.638001,16.4479994 13.438,16.56 C13.237999,16.6720006 13.0720007,16.8179991 12.94,16.998 C12.8079993,17.1780009 12.7080003,17.3879988 12.64,17.628 C12.5719997,17.8680012 12.5200002,18.1139987 12.484,18.366 C12.4479998,18.6180013 12.428,18.8699987 12.424,19.122 C12.42,19.3740013 12.418,19.603999 12.418,19.812 Z M11.338,19.824 C11.338,19.5119984 11.3459999,19.1880017 11.362,18.852 C11.3780001,18.5159983 11.4179997,18.1880016 11.482,17.868 C11.5460003,17.5479984 11.6379994,17.2440014 11.758,16.956 C11.8780006,16.6679986 12.041999,16.4160011 12.25,16.2 C12.458001,15.9839989 12.7199984,15.8120006 13.036,15.684 C13.3520016,15.5559994 13.7299978,15.492 14.17,15.492 C14.6100022,15.492 14.9879984,15.5559994 15.304,15.684 C15.6200016,15.8120006 15.881999,15.9839989 16.09,16.2 C16.298001,16.4160011 16.4619994,16.6679986 16.582,16.956 C16.7020006,17.2440014 16.7939997,17.5479984 16.858,17.868 C16.9220003,18.1880016 16.9619999,18.5159983 16.978,18.852 C16.9940001,19.1880017 17.002,19.5119984 17.002,19.824 C17.002,20.1360016 16.9940001,20.4599983 16.978,20.796 C16.9619999,21.1320017 16.9220003,21.4599984 16.858,21.78 C16.7939997,22.1000016 16.7020006,22.4019986 16.582,22.686 C16.4619994,22.9700014 16.298001,23.2199989 16.09,23.436 C15.881999,23.6520011 15.6220016,23.8219994 15.31,23.946 C14.9979984,24.0700006 14.6180022,24.132 14.17,24.132 C13.7299978,24.132 13.3520016,24.0700006 13.036,23.946 C12.7199984,23.8219994 12.458001,23.6520011 12.25,23.436 C12.041999,23.2199989 11.8780006,22.9700014 11.758,22.686 C11.6379994,22.4019986 11.5460003,22.1000016 11.482,21.78 C11.4179997,21.4599984 11.3780001,21.1320017 11.362,20.796 C11.3459999,20.4599983 11.338,20.1360016 11.338,19.824 Z M18.31,17.796 L19.33,17.796 L19.33,18.636 L19.354,18.636 C19.5220008,18.2919983 19.7859982,18.0420008 20.146,17.886 C20.5060018,17.7299992 20.9019978,17.652 21.334,17.652 C21.8140024,17.652 22.2319982,17.7399991 22.588,17.916 C22.9440018,18.0920009 23.2399988,18.3299985 23.476,18.63 C23.7120012,18.9300015 23.8899994,19.275998 24.01,19.668 C24.1300006,20.060002 24.19,20.4759978 24.19,20.916 C24.19,21.3560022 24.1320006,21.771998 24.016,22.164 C23.8999994,22.556002 23.7240012,22.8979985 23.488,23.19 C23.2519988,23.4820015 22.9560018,23.7119992 22.6,23.88 C22.2439982,24.0480008 21.8300024,24.132 21.358,24.132 C21.2059992,24.132 21.0360009,24.1160002 20.848,24.084 C20.6599991,24.0519998 20.4740009,24.0000004 20.29,23.928 C20.1059991,23.8559996 19.9320008,23.7580006 19.768,23.634 C19.6039992,23.5099994 19.4660006,23.3560009 19.354,23.172 L19.33,23.172 L19.33,26.364 L18.31,26.364 L18.31,17.796 Z M23.11,20.844 C23.11,20.5559986 23.0720004,20.2740014 22.996,19.998 C22.9199996,19.7219986 22.8040008,19.4760011 22.648,19.26 C22.4919992,19.0439989 22.2920012,18.8720006 22.048,18.744 C21.8039988,18.6159994 21.5180016,18.552 21.19,18.552 C20.8459983,18.552 20.5540012,18.6199993 20.314,18.756 C20.0739988,18.8920007 19.8780008,19.0699989 19.726,19.29 C19.5739992,19.5100011 19.4640003,19.7599986 19.396,20.04 C19.3279997,20.3200014 19.294,20.6039986 19.294,20.892 C19.294,21.1960015 19.3299996,21.4899986 19.402,21.774 C19.4740004,22.0580014 19.5879992,22.3079989 19.744,22.524 C19.9000008,22.7400011 20.1019988,22.9139993 20.35,23.046 C20.5980012,23.1780007 20.8979982,23.244 21.25,23.244 C21.6020018,23.244 21.8959988,23.1760007 22.132,23.04 C22.3680012,22.9039993 22.5579993,22.7240011 22.702,22.5 C22.8460007,22.2759989 22.9499997,22.0200014 23.014,21.732 C23.0780003,21.4439986 23.11,21.1480015 23.11,20.844 Z M27.058,20.736 L24.898,17.796 L26.206,17.796 L27.694,19.968 L29.242,17.796 L30.466,17.796 L28.33,20.652 L30.73,24 L29.422,24 L27.694,21.432 L25.966,24 L24.73,24 L27.058,20.736 Z" id="Text" fill="#FFFFFF"></path>
                </g>
            </g>
        </g>
    </g>
</svg>