<?xml version="1.0" encoding="UTF-8"?>
<svg width="95px" height="80px" viewBox="0 0 95 80" version="1.1" xmlns="http://www.w3.org/2000/svg" xmlns:xlink="http://www.w3.org/1999/xlink">
    <!-- Generator: Sketch 48.2 (47327) - http://www.bohemiancoding.com/sketch -->
    <title>neighbouring-icons</title>
    <desc>Created with Sketch.</desc>
    <defs>
        <rect id="path-1" x="0" y="0" width="48" height="48"></rect>
        <rect id="path-2" x="0" y="0" width="48" height="48"></rect>
        <path d="M0,12 L16,12 L16,10 L0,10 L0,12 Z M0,7 L16,7 L16,5 L0,5 L0,7 Z M0,0 L0,2 L16,2 L16,0 L0,0 Z" id="path-3"></path>
        <path d="M17.6727554,9.0413132 C17.5397375,9.08988985 17.4562915,9.40934307 17.4761203,9.66951631 C17.5397375,10.5249593 17.6116168,11.4940223 16.991142,12.9727285 C16.6961893,13.6766782 16.1632916,14.4110913 15.4527612,15.095281 C14.5579887,15.9564874 13.8069747,16.1499707 13.6144706,16.1499707 C13.5475485,16.1499707 13.5070648,16.128564 13.4938456,16.0857507 C13.4888885,16.071754 13.4789741,16.0240007 13.5351555,15.9836574 L13.6937856,15.8683908 C14.0730105,15.5958675 14.175459,15.5225909 14.5836009,15.1660877 C15.2329926,14.6004579 16.1599868,13.2378417 16.3087024,12.7981819 C16.4896398,12.264662 16.6466174,11.4594423 16.5887836,10.8633492 C16.5532571,10.4862627 16.473942,10.3677027 16.4574181,10.3578227 C16.3921484,10.3677027 16.2516948,10.5628327 16.1665964,10.8896959 C16.0914123,11.1778624 15.98979,11.520369 15.8906462,11.8472322 C15.6138699,12.7636019 15.3354411,13.1003451 15.0661005,13.4255616 C15.0107453,13.4930749 14.95539,13.5597649 14.9000347,13.6313949 C14.4208399,14.2530113 13.8053223,14.5881079 13.6590853,14.5881079 C13.595468,14.5881079 13.5748131,14.5452946 13.5698559,14.5321212 C13.5475485,14.4711946 13.595468,14.4143846 13.6731306,14.3476946 C13.8697658,14.180558 14.534029,13.5531783 14.8314603,12.4927253 C14.8818584,12.3124154 14.8322865,12.1255188 14.8000648,12.1098754 C14.8000648,12.1098754 14.7364475,12.1246954 14.63813,12.3675787 C14.429928,12.8813385 14.3960539,12.9315618 14.0672271,13.4132116 C13.66239,14.0068348 12.9262476,14.6053979 12.5767658,14.7733578 C12.0306489,15.0360011 11.4366125,15.1685577 10.8128329,15.1685577 C10.4410438,15.1685577 10.0502521,15.1208044 9.65202468,15.0277677 C8.76551416,14.8194645 7.71706883,13.9409681 7.65097298,13.8701615 C7.36262986,13.5581183 7.07015575,13.2230217 6.88343499,12.8903952 C6.39349954,12.0160155 6.18364523,11.1704524 6.26048165,10.3767594 C6.33897047,9.55671968 6.49925289,8.91863658 7.05445798,8.26820347 C7.60305349,7.62518037 8.09051035,7.19375386 8.95636591,6.88912063 C9.3876413,6.73680402 9.92880103,6.65282405 10.4790489,6.65282405 C11.2482393,6.65282405 11.9372885,6.81666733 12.3710425,7.10071722 C13.1253613,7.59636371 13.3947019,7.85324362 14.0639223,8.52343672 C14.367137,8.82806994 14.8355913,9.01002654 15.3156124,9.01002654 C15.6733561,9.01002654 16.0178807,8.91287324 16.3417503,8.72103665 C16.9878372,8.33818678 17.357974,7.84254029 17.4405938,7.24809384 C17.6198787,5.9661643 16.4433727,4.70564141 16.4318059,4.69329142 C16.1508986,4.39689152 15.8823842,4.14248161 15.6221318,3.91853503 C15.6196532,3.60319847 15.2652143,3.35784523 15.2652143,3.35784523 C13.3046463,1.9515924 11.468008,1.97546905 10.7186464,2.01004904 C9.82883106,2.05121569 8.99437102,2.14672233 8.16652057,2.37890224 C6.08615386,2.85643541 4.43788874,4.03050832 3.25229452,5.87642099 C2.41618209,6.86359731 2.10553162,8.37688344 2.01299744,9.61188299 C1.91137507,10.9473292 2.43022746,12.9480285 2.71443959,13.2156117 C2.98047536,13.4650816 3.21428941,13.5004849 3.24485874,13.5037783 C3.40679356,13.8487548 3.57946895,14.207728 3.65134818,14.3106447 C3.70505106,14.388038 3.75875393,14.4670779 3.813283,14.5461179 C4.14789322,15.0351777 4.4940702,15.5407042 4.95674112,15.9424907 C5.72014812,16.6052738 6.40506631,16.9708337 7.32958194,17.3767369 C8.24666178,17.7801701 8.95306112,17.9497767 9.84700742,17.98271 C10.1626151,17.99506 10.3807314,18 10.5765403,18 C11.2903754,18 11.8042706,17.9275467 12.5404131,17.7217134 C13.3071249,17.5092935 14.1548041,17.1330303 14.8083268,16.7164238 C15.0966699,16.5319972 15.985659,15.7292475 16.2946571,15.3727443 C16.6127433,15.0063611 17.1935605,14.1525647 17.4901656,13.300415 C18.1494717,11.4059257 18.0139752,10.3701727 17.9230934,9.6769263 C17.866912,9.23808979 17.7570276,9.0413132 17.6727554,9.0413132 Z" id="path-5"></path>
    </defs>
    <g id="Page-1" stroke="none" stroke-width="1" fill="none" fill-rule="evenodd">
        <g id="neighbouring-icons">
            <g id="#width-bottom-A712936A-C117-467D-9841-57988E34916A" transform="translate(0.000000, 49.000000)">
                <rect id="line" fill="#F04C5D" x="0" y="2" width="48" height="1"></rect>
                <rect id="start" fill="#F04C5D" x="0" y="0" width="1" height="5"></rect>
                <rect id="end" fill="#F04C5D" x="47" y="0" width="1" height="5"></rect>
                <rect id="box" fill="#F04C5D" x="7" y="9" width="35" height="22" rx="2"></rect>
                <polygon id="arrow" fill="#F04C5D" points="21 9 25 5 29 9 25 13"></polygon>
                <path d="M15.23,21.108 L15.23,16.944 L15.206,16.944 L12.374,21.108 L15.23,21.108 Z M16.19,21.108 L17.342,21.108 L17.342,22.008 L16.19,22.008 L16.19,24 L15.23,24 L15.23,22.008 L11.498,22.008 L11.498,21.024 L15.374,15.492 L16.19,15.492 L16.19,21.108 Z M19.694,17.7 C19.694,17.9320012 19.7339996,18.1339991 19.814,18.306 C19.8940004,18.4780009 20.0019993,18.6199994 20.138,18.732 C20.2740007,18.8440006 20.4339991,18.9279997 20.618,18.984 C20.8020009,19.0400003 20.997999,19.068 21.206,19.068 C21.614002,19.068 21.9499987,18.9480012 22.214,18.708 C22.4780013,18.4679988 22.61,18.1320022 22.61,17.7 C22.61,17.2679978 22.4760013,16.9420011 22.208,16.722 C21.9399987,16.5019989 21.5980021,16.392 21.182,16.392 C20.981999,16.392 20.7900009,16.4199997 20.606,16.476 C20.4219991,16.5320003 20.2640007,16.6159994 20.132,16.728 C19.9999993,16.8400006 19.8940004,16.9759992 19.814,17.136 C19.7339996,17.2960008 19.694,17.4839989 19.694,17.7 Z M18.614,17.664 C18.614,17.3119982 18.6819993,17.0020013 18.818,16.734 C18.9540007,16.4659987 19.1379988,16.2400009 19.37,16.056 C19.6020012,15.8719991 19.8679985,15.7320005 20.168,15.636 C20.4680015,15.5399995 20.7819984,15.492 21.11,15.492 C21.5740023,15.492 21.9699984,15.5539994 22.298,15.678 C22.6260016,15.8020006 22.891999,15.965999 23.096,16.17 C23.300001,16.374001 23.4499995,16.6059987 23.546,16.866 C23.6420005,17.1260013 23.69,17.3919986 23.69,17.664 C23.69,18.0480019 23.5840011,18.3979984 23.372,18.714 C23.1599989,19.0300016 22.8740018,19.2679992 22.514,19.428 C23.0260026,19.5880008 23.4059988,19.8499982 23.654,20.214 C23.9020012,20.5780018 24.026,21.0239974 24.026,21.552 C24.026,21.9680021 23.9520007,22.3359984 23.804,22.656 C23.6559993,22.9760016 23.4560013,23.2459989 23.204,23.466 C22.9519987,23.6860011 22.6540017,23.8519994 22.31,23.964 C21.9659983,24.0760006 21.598002,24.132 21.206,24.132 C20.797998,24.132 20.4180018,24.0800005 20.066,23.976 C19.7139982,23.8719995 19.4080013,23.7120011 19.148,23.496 C18.8879987,23.2799989 18.6840007,23.0100016 18.536,22.686 C18.3879993,22.3619984 18.314,21.9840022 18.314,21.552 C18.314,21.0479975 18.4419987,20.6100019 18.698,20.238 C18.9540013,19.8659981 19.3219976,19.5960008 19.802,19.428 C19.4419982,19.2839993 19.1540011,19.0500016 18.938,18.726 C18.7219989,18.4019984 18.614,18.0480019 18.614,17.664 Z M19.394,21.6 C19.394,22.1120026 19.5639983,22.5139985 19.904,22.806 C20.2440017,23.0980015 20.6779974,23.244 21.206,23.244 C21.4620013,23.244 21.6959989,23.2020004 21.908,23.118 C22.1200011,23.0339996 22.3039992,22.9180007 22.46,22.77 C22.6160008,22.6219993 22.7359996,22.448001 22.82,22.248 C22.9040004,22.047999 22.946,21.8280012 22.946,21.588 C22.946,21.3559988 22.9000005,21.142001 22.808,20.946 C22.7159995,20.749999 22.5900008,20.5800007 22.43,20.436 C22.2699992,20.2919993 22.0840011,20.1780004 21.872,20.094 C21.6599989,20.0099996 21.4340012,19.968 21.194,19.968 C20.9459988,19.968 20.7120011,20.0059996 20.492,20.082 C20.2719989,20.1580004 20.0800008,20.2679993 19.916,20.412 C19.7519992,20.5560007 19.6240005,20.727999 19.532,20.928 C19.4399995,21.128001 19.394,21.3519988 19.394,21.6 Z M25.31,17.796 L26.33,17.796 L26.33,18.636 L26.354,18.636 C26.5220008,18.2919983 26.7859982,18.0420008 27.146,17.886 C27.5060018,17.7299992 27.9019978,17.652 28.334,17.652 C28.8140024,17.652 29.2319982,17.7399991 29.588,17.916 C29.9440018,18.0920009 30.2399988,18.3299985 30.476,18.63 C30.7120012,18.9300015 30.8899994,19.275998 31.01,19.668 C31.1300006,20.060002 31.19,20.4759978 31.19,20.916 C31.19,21.3560022 31.1320006,21.771998 31.016,22.164 C30.8999994,22.556002 30.7240012,22.8979985 30.488,23.19 C30.2519988,23.4820015 29.9560018,23.7119992 29.6,23.88 C29.2439982,24.0480008 28.8300024,24.132 28.358,24.132 C28.2059992,24.132 28.0360009,24.1160002 27.848,24.084 C27.6599991,24.0519998 27.4740009,24.0000004 27.29,23.928 C27.1059991,23.8559996 26.9320008,23.7580006 26.768,23.634 C26.6039992,23.5099994 26.4660006,23.3560009 26.354,23.172 L26.33,23.172 L26.33,26.364 L25.31,26.364 L25.31,17.796 Z M30.11,20.844 C30.11,20.5559986 30.0720004,20.2740014 29.996,19.998 C29.9199996,19.7219986 29.8040008,19.4760011 29.648,19.26 C29.4919992,19.0439989 29.2920012,18.8720006 29.048,18.744 C28.8039988,18.6159994 28.5180016,18.552 28.19,18.552 C27.8459983,18.552 27.5540012,18.6199993 27.314,18.756 C27.0739988,18.8920007 26.8780008,19.0699989 26.726,19.29 C26.5739992,19.5100011 26.4640003,19.7599986 26.396,20.04 C26.3279997,20.3200014 26.294,20.6039986 26.294,20.892 C26.294,21.1960015 26.3299996,21.4899986 26.402,21.774 C26.4740004,22.0580014 26.5879992,22.3079989 26.744,22.524 C26.9000008,22.7400011 27.1019988,22.9139993 27.35,23.046 C27.5980012,23.1780007 27.8979982,23.244 28.25,23.244 C28.6020018,23.244 28.8959988,23.1760007 29.132,23.04 C29.3680012,22.9039993 29.5579993,22.7240011 29.702,22.5 C29.8460007,22.2759989 29.9499997,22.0200014 30.014,21.732 C30.0780003,21.4439986 30.11,21.1480015 30.11,20.844 Z M34.058,20.736 L31.898,17.796 L33.206,17.796 L34.694,19.968 L36.242,17.796 L37.466,17.796 L35.33,20.652 L37.73,24 L36.422,24 L34.694,21.432 L32.966,24 L31.73,24 L34.058,20.736 Z" id="Text" fill="#FFFFFF"></path>
            </g>
            <g id="#width-bottom-A712936A-C117-467D-9841-57988E34916A" transform="translate(47.000000, 49.000000)">
                <rect id="line" fill="#F04C5D" x="0" y="2" width="48" height="1"></rect>
                <rect id="start" fill="#F04C5D" x="0" y="0" width="1" height="5"></rect>
                <rect id="end" fill="#F04C5D" x="47" y="0" width="1" height="5"></rect>
                <rect id="box" fill="#F04C5D" x="7" y="9" width="35" height="22" rx="2"></rect>
                <polygon id="arrow" fill="#F04C5D" points="21 9 25 5 29 9 25 13"></polygon>
                <path d="M15.23,21.108 L15.23,16.944 L15.206,16.944 L12.374,21.108 L15.23,21.108 Z M16.19,21.108 L17.342,21.108 L17.342,22.008 L16.19,22.008 L16.19,24 L15.23,24 L15.23,22.008 L11.498,22.008 L11.498,21.024 L15.374,15.492 L16.19,15.492 L16.19,21.108 Z M19.694,17.7 C19.694,17.9320012 19.7339996,18.1339991 19.814,18.306 C19.8940004,18.4780009 20.0019993,18.6199994 20.138,18.732 C20.2740007,18.8440006 20.4339991,18.9279997 20.618,18.984 C20.8020009,19.0400003 20.997999,19.068 21.206,19.068 C21.614002,19.068 21.9499987,18.9480012 22.214,18.708 C22.4780013,18.4679988 22.61,18.1320022 22.61,17.7 C22.61,17.2679978 22.4760013,16.9420011 22.208,16.722 C21.9399987,16.5019989 21.5980021,16.392 21.182,16.392 C20.981999,16.392 20.7900009,16.4199997 20.606,16.476 C20.4219991,16.5320003 20.2640007,16.6159994 20.132,16.728 C19.9999993,16.8400006 19.8940004,16.9759992 19.814,17.136 C19.7339996,17.2960008 19.694,17.4839989 19.694,17.7 Z M18.614,17.664 C18.614,17.3119982 18.6819993,17.0020013 18.818,16.734 C18.9540007,16.4659987 19.1379988,16.2400009 19.37,16.056 C19.6020012,15.8719991 19.8679985,15.7320005 20.168,15.636 C20.4680015,15.5399995 20.7819984,15.492 21.11,15.492 C21.5740023,15.492 21.9699984,15.5539994 22.298,15.678 C22.6260016,15.8020006 22.891999,15.965999 23.096,16.17 C23.300001,16.374001 23.4499995,16.6059987 23.546,16.866 C23.6420005,17.1260013 23.69,17.3919986 23.69,17.664 C23.69,18.0480019 23.5840011,18.3979984 23.372,18.714 C23.1599989,19.0300016 22.8740018,19.2679992 22.514,19.428 C23.0260026,19.5880008 23.4059988,19.8499982 23.654,20.214 C23.9020012,20.5780018 24.026,21.0239974 24.026,21.552 C24.026,21.9680021 23.9520007,22.3359984 23.804,22.656 C23.6559993,22.9760016 23.4560013,23.2459989 23.204,23.466 C22.9519987,23.6860011 22.6540017,23.8519994 22.31,23.964 C21.9659983,24.0760006 21.598002,24.132 21.206,24.132 C20.797998,24.132 20.4180018,24.0800005 20.066,23.976 C19.7139982,23.8719995 19.4080013,23.7120011 19.148,23.496 C18.8879987,23.2799989 18.6840007,23.0100016 18.536,22.686 C18.3879993,22.3619984 18.314,21.9840022 18.314,21.552 C18.314,21.0479975 18.4419987,20.6100019 18.698,20.238 C18.9540013,19.8659981 19.3219976,19.5960008 19.802,19.428 C19.4419982,19.2839993 19.1540011,19.0500016 18.938,18.726 C18.7219989,18.4019984 18.614,18.0480019 18.614,17.664 Z M19.394,21.6 C19.394,22.1120026 19.5639983,22.5139985 19.904,22.806 C20.2440017,23.0980015 20.6779974,23.244 21.206,23.244 C21.4620013,23.244 21.6959989,23.2020004 21.908,23.118 C22.1200011,23.0339996 22.3039992,22.9180007 22.46,22.77 C22.6160008,22.6219993 22.7359996,22.448001 22.82,22.248 C22.9040004,22.047999 22.946,21.8280012 22.946,21.588 C22.946,21.3559988 22.9000005,21.142001 22.808,20.946 C22.7159995,20.749999 22.5900008,20.5800007 22.43,20.436 C22.2699992,20.2919993 22.0840011,20.1780004 21.872,20.094 C21.6599989,20.0099996 21.4340012,19.968 21.194,19.968 C20.9459988,19.968 20.7120011,20.0059996 20.492,20.082 C20.2719989,20.1580004 20.0800008,20.2679993 19.916,20.412 C19.7519992,20.5560007 19.6240005,20.727999 19.532,20.928 C19.4399995,21.128001 19.394,21.3519988 19.394,21.6 Z M25.31,17.796 L26.33,17.796 L26.33,18.636 L26.354,18.636 C26.5220008,18.2919983 26.7859982,18.0420008 27.146,17.886 C27.5060018,17.7299992 27.9019978,17.652 28.334,17.652 C28.8140024,17.652 29.2319982,17.7399991 29.588,17.916 C29.9440018,18.0920009 30.2399988,18.3299985 30.476,18.63 C30.7120012,18.9300015 30.8899994,19.275998 31.01,19.668 C31.1300006,20.060002 31.19,20.4759978 31.19,20.916 C31.19,21.3560022 31.1320006,21.771998 31.016,22.164 C30.8999994,22.556002 30.7240012,22.8979985 30.488,23.19 C30.2519988,23.4820015 29.9560018,23.7119992 29.6,23.88 C29.2439982,24.0480008 28.8300024,24.132 28.358,24.132 C28.2059992,24.132 28.0360009,24.1160002 27.848,24.084 C27.6599991,24.0519998 27.4740009,24.0000004 27.29,23.928 C27.1059991,23.8559996 26.9320008,23.7580006 26.768,23.634 C26.6039992,23.5099994 26.4660006,23.3560009 26.354,23.172 L26.33,23.172 L26.33,26.364 L25.31,26.364 L25.31,17.796 Z M30.11,20.844 C30.11,20.5559986 30.0720004,20.2740014 29.996,19.998 C29.9199996,19.7219986 29.8040008,19.4760011 29.648,19.26 C29.4919992,19.0439989 29.2920012,18.8720006 29.048,18.744 C28.8039988,18.6159994 28.5180016,18.552 28.19,18.552 C27.8459983,18.552 27.5540012,18.6199993 27.314,18.756 C27.0739988,18.8920007 26.8780008,19.0699989 26.726,19.29 C26.5739992,19.5100011 26.4640003,19.7599986 26.396,20.04 C26.3279997,20.3200014 26.294,20.6039986 26.294,20.892 C26.294,21.1960015 26.3299996,21.4899986 26.402,21.774 C26.4740004,22.0580014 26.5879992,22.3079989 26.744,22.524 C26.9000008,22.7400011 27.1019988,22.9139993 27.35,23.046 C27.5980012,23.1780007 27.8979982,23.244 28.25,23.244 C28.6020018,23.244 28.8959988,23.1760007 29.132,23.04 C29.3680012,22.9039993 29.5579993,22.7240011 29.702,22.5 C29.8460007,22.2759989 29.9499997,22.0200014 30.014,21.732 C30.0780003,21.4439986 30.11,21.1480015 30.11,20.844 Z M34.058,20.736 L31.898,17.796 L33.206,17.796 L34.694,19.968 L36.242,17.796 L37.466,17.796 L35.33,20.652 L37.73,24 L36.422,24 L34.694,21.432 L32.966,24 L31.73,24 L34.058,20.736 Z" id="48px" fill="#FFFFFF"></path>
            </g>
            <g id="Group-2">
                <g id="2.-Atoms/Colors/Primary/Coral/Tint-90%">
                    <g id="Rectangle-1-Copy-42">
                        <use fill="#F04C5D" xlink:href="#path-1"></use>
                        <use fill-opacity="0.9" fill="#FFFFFF" xlink:href="#path-1"></use>
                    </g>
                </g>
                <g id="2.-Atoms/Colors/Primary/Coral/Tint-90%" transform="translate(47.000000, 0.000000)">
                    <g id="Rectangle-1-Copy-42">
                        <use fill="#F04C5D" xlink:href="#path-2"></use>
                        <use fill-opacity="0.9" fill="#FFFFFF" xlink:href="#path-2"></use>
                    </g>
                </g>
                <rect id="Rectangle" stroke="#F04C5D" x="0.5" y="0.5" width="47" height="47"></rect>
                <rect id="Rectangle" stroke="#F04C5D" x="47.5" y="0.5" width="47" height="47"></rect>
                <g id="2.-Atoms/Icons/Navigational/Global/hamburger" transform="translate(61.000000, 14.000000)">
                    <g id="Atoms/Icons/Navigational/Global/hamburger" transform="translate(2.000000, 4.000000)">
                        <mask id="mask-4" fill="white">
                            <use xlink:href="#path-3"></use>
                        </mask>
                        <use fill="#000000" fill-rule="nonzero" xlink:href="#path-3"></use>
                        <g id="Color/Ink/100%" mask="url(#mask-4)" fill="#3E4543">
                            <g transform="translate(-2.000000, -4.000000)" id="Rectangle-1-Copy-28">
                                <rect x="0" y="0" width="20" height="20"></rect>
                            </g>
                        </g>
                    </g>
                </g>
                <g id="2.-Atoms/Icons/Navigational/Global/enso" transform="translate(14.000000, 14.000000)">
                    <mask id="mask-6" fill="white">
                        <use xlink:href="#path-5"></use>
                    </mask>
                    <use id="Icons/Navigational/Global/ca-monogram" fill="#000000" fill-rule="evenodd" xlink:href="#path-5"></use>
                    <g id="Color/Ink/100%" mask="url(#mask-6)" fill="#3E4543" fill-rule="evenodd">
                        <rect id="Rectangle-1-Copy-28" x="0" y="0" width="20" height="20"></rect>
                    </g>
                </g>
            </g>
        </g>
    </g>
</svg>