<?xml version="1.0" encoding="UTF-8"?>
<svg width="66px" height="80px" viewBox="0 0 66 80" version="1.1" xmlns="http://www.w3.org/2000/svg" xmlns:xlink="http://www.w3.org/1999/xlink">
    <!-- Generator: Sketch 49.2 (51160) - http://www.bohemiancoding.com/sketch -->
    <title>spacing 2</title>
    <desc>Created with Sketch.</desc>
    <defs>
        <path d="M15.6727554,7.0413132 C15.5397375,7.08988985 15.4562915,7.40934307 15.4761203,7.66951631 C15.5397375,8.5249593 15.6116168,9.4940223 14.991142,10.9727285 C14.6961893,11.6766782 14.1632916,12.4110913 13.4527612,13.095281 C12.5579887,13.9564874 11.8069747,14.1499707 11.6144706,14.1499707 C11.5475485,14.1499707 11.5070648,14.128564 11.4938456,14.0857507 C11.4888885,14.071754 11.4789741,14.0240007 11.5351555,13.9836574 L11.6937856,13.8683908 C12.0730105,13.5958675 12.175459,13.5225909 12.5836009,13.1660877 C13.2329926,12.6004579 14.1599868,11.2378417 14.3087024,10.7981819 C14.4896398,10.264662 14.6466174,9.4594423 14.5887836,8.8633492 C14.5532571,8.4862627 14.473942,8.3677027 14.4574181,8.3578227 C14.3921484,8.3677027 14.2516948,8.5628327 14.1665964,8.8896959 C14.0914123,9.1778624 13.98979,9.520369 13.8906462,9.8472322 C13.6138699,10.7636019 13.3354411,11.1003451 13.0661005,11.4255616 C13.0107453,11.4930749 12.95539,11.5597649 12.9000347,11.6313949 C12.4208399,12.2530113 11.8053223,12.5881079 11.6590853,12.5881079 C11.595468,12.5881079 11.5748131,12.5452946 11.5698559,12.5321212 C11.5475485,12.4711946 11.595468,12.4143846 11.6731306,12.3476946 C11.8697658,12.180558 12.534029,11.5531783 12.8314603,10.4927253 C12.8818584,10.3124154 12.8322865,10.1255188 12.8000648,10.1098754 C12.8000648,10.1098754 12.7364475,10.1246954 12.63813,10.3675787 C12.429928,10.8813385 12.3960539,10.9315618 12.0672271,11.4132116 C11.66239,12.0068348 10.9262476,12.6053979 10.5767658,12.7733578 C10.0306489,13.0360011 9.43661251,13.1685577 8.81283291,13.1685577 C8.44104381,13.1685577 8.05025211,13.1208044 7.65202469,13.0277677 C6.76551417,12.8194645 5.71706884,11.9409681 5.65097299,11.8701615 C5.36262987,11.5581183 5.07015576,11.2230217 4.883435,10.8903952 C4.39349955,10.0160155 4.18364523,9.1704524 4.26048166,8.3767594 C4.33897048,7.55671968 4.4992529,6.91863658 5.05445799,6.26820347 C5.6030535,5.62518037 6.09051036,5.19375386 6.95636592,4.88912063 C7.38764131,4.73680402 7.92880104,4.65282405 8.47904891,4.65282405 C9.24823931,4.65282405 9.93728851,4.81666733 10.3710425,5.10071722 C11.1253613,5.59636371 11.3947019,5.85324362 12.0639223,6.52343672 C12.367137,6.82806994 12.8355913,7.01002654 13.3156124,7.01002654 C13.6733561,7.01002654 14.0178807,6.91287324 14.3417503,6.72103665 C14.9878372,6.33818678 15.357974,5.84254029 15.4405938,5.24809384 C15.6198787,3.9661643 14.4433727,2.70564141 14.4318059,2.69329142 C14.1508986,2.39689152 13.8823842,2.14248161 13.6221318,1.91853503 C13.6196532,1.60319847 13.2652143,1.35784523 13.2652143,1.35784523 C11.3046463,-0.0484076 9.46800801,-0.02453095 8.71864641,0.01004904 C7.82883107,0.05121569 6.99437103,0.14672233 6.16652058,0.37890224 C4.08615386,0.85643541 2.43788874,2.03050832 1.25229452,3.87642099 C0.41618209,4.86359731 0.10553162,6.37688344 0.01299744,7.61188299 C-0.0886249301,8.9473292 0.430227461,10.9480285 0.714439591,11.2156117 C0.980475361,11.4650816 1.21428941,11.5004849 1.24485874,11.5037783 C1.40679356,11.8487548 1.57946895,12.207728 1.65134818,12.3106447 C1.70505106,12.388038 1.75875393,12.4670779 1.813283,12.5461179 C2.14789322,13.0351777 2.4940702,13.5407042 2.95674112,13.9424907 C3.72014812,14.6052738 4.40506632,14.9708337 5.32958195,15.3767369 C6.24666179,15.7801701 6.95306113,15.9497767 7.84700743,15.98271 C8.16261511,15.99506 8.38073141,16 8.57654031,16 C9.29037541,16 9.80427061,15.9275467 10.5404131,15.7217134 C11.3071249,15.5092935 12.1548041,15.1330303 12.8083268,14.7164238 C13.0966699,14.5319972 13.985659,13.7292475 14.2946571,13.3727443 C14.6127433,13.0063611 15.1935605,12.1525647 15.4901656,11.300415 C16.1494717,9.4059257 16.0139752,8.3701727 15.9230934,7.6769263 C15.866912,7.23808979 15.7570276,7.0413132 15.6727554,7.0413132 Z" id="path-1"></path>
    </defs>
    <g id="Page-1" stroke="none" stroke-width="1" fill="none" fill-rule="evenodd">
        <g id="spacing">
            <g id="Group-3" transform="translate(0.000000, 16.000000)">
                <g id="2.-Atoms/Icons/Navigational/Global/enso">
                    <g id="Icons/Navigational/Global/ca-monogram" fill="#000000">
                        <path d="M15.6727554,7.0413132 C15.5397375,7.08988985 15.4562915,7.40934307 15.4761203,7.66951631 C15.5397375,8.5249593 15.6116168,9.4940223 14.991142,10.9727285 C14.6961893,11.6766782 14.1632916,12.4110913 13.4527612,13.095281 C12.5579887,13.9564874 11.8069747,14.1499707 11.6144706,14.1499707 C11.5475485,14.1499707 11.5070648,14.128564 11.4938456,14.0857507 C11.4888885,14.071754 11.4789741,14.0240007 11.5351555,13.9836574 L11.6937856,13.8683908 C12.0730105,13.5958675 12.175459,13.5225909 12.5836009,13.1660877 C13.2329926,12.6004579 14.1599868,11.2378417 14.3087024,10.7981819 C14.4896398,10.264662 14.6466174,9.4594423 14.5887836,8.8633492 C14.5532571,8.4862627 14.473942,8.3677027 14.4574181,8.3578227 C14.3921484,8.3677027 14.2516948,8.5628327 14.1665964,8.8896959 C14.0914123,9.1778624 13.98979,9.520369 13.8906462,9.8472322 C13.6138699,10.7636019 13.3354411,11.1003451 13.0661005,11.4255616 C13.0107453,11.4930749 12.95539,11.5597649 12.9000347,11.6313949 C12.4208399,12.2530113 11.8053223,12.5881079 11.6590853,12.5881079 C11.595468,12.5881079 11.5748131,12.5452946 11.5698559,12.5321212 C11.5475485,12.4711946 11.595468,12.4143846 11.6731306,12.3476946 C11.8697658,12.180558 12.534029,11.5531783 12.8314603,10.4927253 C12.8818584,10.3124154 12.8322865,10.1255188 12.8000648,10.1098754 C12.8000648,10.1098754 12.7364475,10.1246954 12.63813,10.3675787 C12.429928,10.8813385 12.3960539,10.9315618 12.0672271,11.4132116 C11.66239,12.0068348 10.9262476,12.6053979 10.5767658,12.7733578 C10.0306489,13.0360011 9.43661251,13.1685577 8.81283291,13.1685577 C8.44104381,13.1685577 8.05025211,13.1208044 7.65202469,13.0277677 C6.76551417,12.8194645 5.71706884,11.9409681 5.65097299,11.8701615 C5.36262987,11.5581183 5.07015576,11.2230217 4.883435,10.8903952 C4.39349955,10.0160155 4.18364523,9.1704524 4.26048166,8.3767594 C4.33897048,7.55671968 4.4992529,6.91863658 5.05445799,6.26820347 C5.6030535,5.62518037 6.09051036,5.19375386 6.95636592,4.88912063 C7.38764131,4.73680402 7.92880104,4.65282405 8.47904891,4.65282405 C9.24823931,4.65282405 9.93728851,4.81666733 10.3710425,5.10071722 C11.1253613,5.59636371 11.3947019,5.85324362 12.0639223,6.52343672 C12.367137,6.82806994 12.8355913,7.01002654 13.3156124,7.01002654 C13.6733561,7.01002654 14.0178807,6.91287324 14.3417503,6.72103665 C14.9878372,6.33818678 15.357974,5.84254029 15.4405938,5.24809384 C15.6198787,3.9661643 14.4433727,2.70564141 14.4318059,2.69329142 C14.1508986,2.39689152 13.8823842,2.14248161 13.6221318,1.91853503 C13.6196532,1.60319847 13.2652143,1.35784523 13.2652143,1.35784523 C11.3046463,-0.0484076 9.46800801,-0.02453095 8.71864641,0.01004904 C7.82883107,0.05121569 6.99437103,0.14672233 6.16652058,0.37890224 C4.08615386,0.85643541 2.43788874,2.03050832 1.25229452,3.87642099 C0.41618209,4.86359731 0.10553162,6.37688344 0.01299744,7.61188299 C-0.0886249301,8.9473292 0.430227461,10.9480285 0.714439591,11.2156117 C0.980475361,11.4650816 1.21428941,11.5004849 1.24485874,11.5037783 C1.40679356,11.8487548 1.57946895,12.207728 1.65134818,12.3106447 C1.70505106,12.388038 1.75875393,12.4670779 1.813283,12.5461179 C2.14789322,13.0351777 2.4940702,13.5407042 2.95674112,13.9424907 C3.72014812,14.6052738 4.40506632,14.9708337 5.32958195,15.3767369 C6.24666179,15.7801701 6.95306113,15.9497767 7.84700743,15.98271 C8.16261511,15.99506 8.38073141,16 8.57654031,16 C9.29037541,16 9.80427061,15.9275467 10.5404131,15.7217134 C11.3071249,15.5092935 12.1548041,15.1330303 12.8083268,14.7164238 C13.0966699,14.5319972 13.985659,13.7292475 14.2946571,13.3727443 C14.6127433,13.0063611 15.1935605,12.1525647 15.4901656,11.300415 C16.1494717,9.4059257 16.0139752,8.3701727 15.9230934,7.6769263 C15.866912,7.23808979 15.7570276,7.0413132 15.6727554,7.0413132 Z" id="path-1"></path>
                    </g>
                    <g id="Color/Ink/100%-Clipped">
                        <mask id="mask-2" fill="white">
                            <use xlink:href="#path-1"></use>
                        </mask>
                        <g id="path-1"></g>
                        <g id="Color/Ink/100%" mask="url(#mask-2)" fill="#3E4543">
                            <g transform="translate(-2.000000, -2.000000)" id="Rectangle-1-Copy-28">
                                <rect x="0" y="0" width="20" height="20"></rect>
                            </g>
                        </g>
                    </g>
                </g>
                <path d="M38.1760003,12.96 C38.1120003,13.296 38.0960003,13.664 38.0800003,14.048 C37.1200003,14 35.9840003,13.984 34.8640003,13.984 C33.7760003,13.984 32.6080003,14 31.6800003,14.048 C31.7440003,13.28 31.7760003,11.184 31.7760003,10.144 L31.7760003,6.608 C31.7760003,5.584 31.7440003,3.52 31.6800003,2.752 C32.1280003,2.752 32.5920003,2.736 32.9760003,2.688 C32.9600003,3.152 32.9440003,4.416 32.9440003,5.04 L32.9440003,11.68 C32.9440003,12.048 32.9440003,12.608 32.9760003,12.976 C33.4240003,12.976 34.3200003,12.992 34.8000003,12.992 C36.0320003,12.992 37.1360003,12.976 38.1760003,12.96 Z M41.3760003,14.192 C39.9520003,14.192 39.1200003,13.328 39.1200003,12.112 C39.1200003,10.752 40.2720003,9.712 42.8640003,9.712 C43.1680003,9.712 43.4560003,9.728 43.7280003,9.76 L43.7440003,9.456 C43.7920003,8.144 43.2320003,7.504 42.0480003,7.504 C41.2960003,7.504 40.5120003,7.824 39.9680003,8.208 L39.7120003,7.232 C40.4800003,6.784 41.2960003,6.528 42.2080003,6.528 C43.9360003,6.528 44.8800003,7.568 44.8320003,9.344 L44.7360003,12.512 C44.7200003,13.104 44.8800003,13.296 45.2320003,13.296 C45.4400003,13.296 45.6480003,13.232 45.8720003,13.136 L45.7600003,13.936 C45.5360003,14.048 45.2480003,14.16 44.9120003,14.16 C44.3360003,14.16 43.8080003,13.792 43.7920003,12.736 C43.3920003,13.584 42.4640003,14.192 41.3760003,14.192 Z M41.6000003,13.296 C42.7520003,13.296 43.6480003,12.416 43.6960003,11.216 L43.7120003,10.512 C43.4240003,10.48 43.1200003,10.464 42.8320003,10.464 C40.8320003,10.464 40.1920003,11.216 40.1920003,12.048 C40.1920003,12.736 40.6080003,13.296 41.6000003,13.296 Z M54.1600003,10.128 C54.1600003,12.416 52.4800003,14.256 50.2400003,14.256 C49.4400003,14.256 48.7680003,13.984 48.3360003,13.632 L47.5840003,14.224 L47.3280003,14.144 C47.3920003,13.264 47.4240003,12.368 47.4240003,11.488 L47.4240003,5.312 C47.4240003,4.24 47.4080003,3.36 47.3440003,2.624 C47.7600003,2.592 48.2080003,2.528 48.5760003,2.48 C48.5440003,2.752 48.5280003,3.648 48.5280003,4.32 L48.5280003,7.568 C49.1040003,7.056 49.9520003,6.528 51.0240003,6.528 C52.8640003,6.528 54.1600003,7.984 54.1600003,10.128 Z M53.0560003,10.272 C53.0560003,8.592 52.2080003,7.504 50.7520003,7.504 C49.8720003,7.504 49.0720003,8 48.5280003,8.592 L48.5280003,12.704 C48.9920003,13.072 49.5840003,13.28 50.3360003,13.28 C51.9360003,13.28 53.0560003,11.888 53.0560003,10.272 Z M62.2240003,10.048 L61.4880003,10.496 L56.6880003,10.624 C56.7360003,12.352 57.6800003,13.28 59.2480003,13.28 C60.3680003,13.28 61.2000003,12.8 61.9040003,12.208 L61.8560003,13.36 C61.1040003,13.888 60.2560003,14.256 59.1200003,14.256 C56.8160003,14.256 55.5840003,12.608 55.5840003,10.592 C55.5840003,8.32 57.0240003,6.528 59.2160003,6.528 C61.2800003,6.528 62.2240003,8.08 62.2240003,10.048 Z M56.7200003,9.776 L61.1840003,9.664 C61.0400003,8.256 60.4000003,7.472 59.1360003,7.472 C57.8080003,7.472 56.9280003,8.496 56.7200003,9.776 Z M65.2800003,14 L64.0480003,14 C64.1120003,13.312 64.1280003,12.288 64.1280003,11.344 L64.1280003,5.328 C64.1280003,4.24 64.1120003,3.376 64.0480003,2.64 C64.4640003,2.608 64.9120003,2.56 65.2800003,2.48 C65.2480003,2.768 65.2320003,3.68 65.2320003,4.32 L65.2320003,12.416 C65.2320003,12.976 65.2480003,13.584 65.2800003,14 Z" id="Label" fill="#3E4543" fill-rule="nonzero"></path>
            </g>
            <g id="2.-Atoms/Colors/Primary/Coral/Tint-90%" transform="translate(18.000000, 0.000000)" fill-rule="nonzero">
                <g id="Rectangle-1-Copy-42">
                    <g id="path-3-link" fill="#F04C5D">
                        <rect id="path-3" x="0" y="0" width="12" height="48"></rect>
                    </g>
                    <g id="path-3-link" fill="#FFFFFF" fill-opacity="0.9">
                        <rect id="path-3" x="0" y="0" width="12" height="48"></rect>
                    </g>
                </g>
            </g>
            <g id="HORIZONTAL#E464F84E-7269-4D8F-8300-EEBBD182B1F5#8EE9DB5F-999C-4ABC-B8A6-9CFABBFB0C84" transform="translate(6.000000, 49.000000)" fill="#F04C5D" fill-rule="nonzero">
                <rect id="ruler-start" x="12" y="0" width="1" height="5"></rect>
                <rect id="ruler-end" x="23" y="0" width="1" height="5"></rect>
                <rect id="ruler-line" x="12" y="2" width="12" height="1"></rect>
                <polygon id="label-arrow" points="14 9 18 5 22 9 18 13"></polygon>
                <rect id="label-box" x="0" y="9" width="35" height="22" rx="2"></rect>
            </g>
        </g>
        <path d="M13.272,73 L12.252,73 L12.252,66.904 L10.044,66.904 L10.044,66.088 C10.3320014,66.088 10.6119986,66.0660002 10.884,66.022 C11.1560014,65.9779998 11.4019989,65.8960006 11.622,65.776 C11.8420011,65.6559994 12.0279992,65.492001 12.18,65.284 C12.3320008,65.075999 12.4359997,64.8120016 12.492,64.492 L13.272,64.492 L13.272,73 Z M16.2,67.504 C16.1759999,67.0719978 16.2199994,66.6720018 16.332,66.304 C16.4440006,65.9359982 16.6179988,65.6180013 16.854,65.35 C17.0900012,65.0819987 17.3839982,64.8720008 17.736,64.72 C18.0880018,64.5679992 18.4879978,64.492 18.936,64.492 C19.3040018,64.492 19.6499984,64.5459995 19.974,64.654 C20.2980016,64.7620005 20.5799988,64.917999 20.82,65.122 C21.0600012,65.326001 21.2499993,65.5799985 21.39,65.884 C21.5300007,66.1880015 21.6,66.539998 21.6,66.94 C21.6,67.3160019 21.5420006,67.6479986 21.426,67.936 C21.3099994,68.2240014 21.156001,68.4819989 20.964,68.71 C20.771999,68.9380011 20.5520012,69.1439991 20.304,69.328 C20.0559988,69.5120009 19.8000013,69.6879992 19.536,69.856 C19.2719987,70.0160008 19.0080013,70.1739992 18.744,70.33 C18.4799987,70.4860008 18.2380011,70.6519991 18.018,70.828 C17.7979989,71.0040009 17.6100008,71.193999 17.454,71.398 C17.2979992,71.602001 17.1960002,71.8359987 17.148,72.1 L21.516,72.1 L21.516,73 L15.96,73 C16.0000002,72.4959975 16.0899993,72.0660018 16.23,71.71 C16.3700007,71.3539982 16.5479989,71.0440013 16.764,70.78 C16.9800011,70.5159987 17.2239986,70.284001 17.496,70.084 C17.7680014,69.883999 18.0519985,69.6960009 18.348,69.52 C18.7080018,69.2959989 19.0239986,69.0900009 19.296,68.902 C19.5680014,68.7139991 19.7939991,68.524001 19.974,68.332 C20.1540009,68.139999 20.2899995,67.9320011 20.382,67.708 C20.4740005,67.4839989 20.52,67.2240015 20.52,66.928 C20.52,66.6959988 20.4760004,66.4860009 20.388,66.298 C20.2999996,66.1099991 20.1820007,65.9480007 20.034,65.812 C19.8859993,65.6759993 19.712001,65.5720004 19.512,65.5 C19.311999,65.4279996 19.1000011,65.392 18.876,65.392 C18.5799985,65.392 18.3260011,65.4539994 18.114,65.578 C17.9019989,65.7020006 17.7280007,65.863999 17.592,66.064 C17.4559993,66.264001 17.3580003,66.4899987 17.298,66.742 C17.2379997,66.9940013 17.212,67.2479987 17.22,67.504 L16.2,67.504 Z M23.148,66.796 L24.168,66.796 L24.168,67.636 L24.192,67.636 C24.3600008,67.2919983 24.6239982,67.0420008 24.984,66.886 C25.3440018,66.7299992 25.7399978,66.652 26.172,66.652 C26.6520024,66.652 27.0699982,66.7399991 27.426,66.916 C27.7820018,67.0920009 28.0779988,67.3299985 28.314,67.63 C28.5500012,67.9300015 28.7279994,68.275998 28.848,68.668 C28.9680006,69.060002 29.028,69.4759978 29.028,69.916 C29.028,70.3560022 28.9700006,70.771998 28.854,71.164 C28.7379994,71.556002 28.5620012,71.8979985 28.326,72.19 C28.0899988,72.4820015 27.7940018,72.7119992 27.438,72.88 C27.0819982,73.0480008 26.6680024,73.132 26.196,73.132 C26.0439992,73.132 25.8740009,73.1160002 25.686,73.084 C25.4979991,73.0519998 25.3120009,73.0000004 25.128,72.928 C24.9439991,72.8559996 24.7700008,72.7580006 24.606,72.634 C24.4419992,72.5099994 24.3040006,72.3560009 24.192,72.172 L24.168,72.172 L24.168,75.364 L23.148,75.364 L23.148,66.796 Z M27.948,69.844 C27.948,69.5559986 27.9100004,69.2740014 27.834,68.998 C27.7579996,68.7219986 27.6420008,68.4760011 27.486,68.26 C27.3299992,68.0439989 27.1300012,67.8720006 26.886,67.744 C26.6419988,67.6159994 26.3560016,67.552 26.028,67.552 C25.6839983,67.552 25.3920012,67.6199993 25.152,67.756 C24.9119988,67.8920007 24.7160008,68.0699989 24.564,68.29 C24.4119992,68.5100011 24.3020003,68.7599986 24.234,69.04 C24.1659997,69.3200014 24.132,69.6039986 24.132,69.892 C24.132,70.1960015 24.1679996,70.4899986 24.24,70.774 C24.3120004,71.0580014 24.4259992,71.3079989 24.582,71.524 C24.7380008,71.7400011 24.9399988,71.9139993 25.188,72.046 C25.4360012,72.1780007 25.7359982,72.244 26.088,72.244 C26.4400018,72.244 26.7339988,72.1760007 26.97,72.04 C27.2060012,71.9039993 27.3959993,71.7240011 27.54,71.5 C27.6840007,71.2759989 27.7879997,71.0200014 27.852,70.732 C27.9160003,70.4439986 27.948,70.1480015 27.948,69.844 Z M31.896,69.736 L29.736,66.796 L31.044,66.796 L32.532,68.968 L34.08,66.796 L35.304,66.796 L33.168,69.652 L35.568,73 L34.26,73 L32.532,70.432 L30.804,73 L29.568,73 L31.896,69.736 Z" id="12px" fill="#FFFFFF"></path>
    </g>
</svg>