<svg width="32" height="32" viewBox="0 0 32 32" fill="none" xmlns="http://www.w3.org/2000/svg">
<path fill-rule="evenodd" clip-rule="evenodd" d="M29.4991 14.1297L28.1842 12.4827C27.5387 11.6736 26.8983 10.1731 26.7615 9.14922L26.4848 7.06519C26.3489 6.04128 25.3927 5.10627 24.3595 4.98857L22.2574 4.74741C21.2242 4.62806 19.7046 4.01734 18.8793 3.38851L17.199 2.10945C16.3746 1.48144 15.0323 1.49214 14.2186 2.13414L12.5598 3.44036C11.7453 4.08154 10.2357 4.71695 9.20495 4.85276L7.10701 5.12767C6.07543 5.26348 5.13501 6.21331 5.01486 7.23968L4.77209 9.32783C4.65278 10.3534 4.03715 11.8637 3.40495 12.6835L2.11818 14.3519C1.48515 15.1717 1.49592 16.5042 2.14221 17.3133L3.45632 18.9603C4.10261 19.7702 4.74309 21.2699 4.87898 22.2938L5.15572 24.3778C5.29161 25.4017 6.24778 26.3367 7.28183 26.4552L9.38392 26.6972C10.4171 26.8149 11.9367 27.4256 12.762 28.0545L14.4415 29.3335C15.2668 29.9615 16.6082 29.9517 17.4227 29.3088L19.0815 28.0034C19.896 27.3614 21.4057 26.726 22.4372 26.591L24.5352 26.3153C25.5659 26.1803 26.5063 25.2297 26.6257 24.2041L26.8684 22.116C26.9886 21.0896 27.6034 19.5793 28.2364 18.7603L29.5232 17.0919C30.1554 16.2721 30.1446 14.9387 29.4991 14.1297Z" fill="white"/>
<path fill-rule="evenodd" clip-rule="evenodd" d="M9.20395 4.85235C10.2347 4.71737 11.7444 4.08113 12.5597 3.43995L14.2185 2.13373C15.033 1.49255 16.3744 1.48103 17.1997 2.10986L18.8792 3.38892C19.7044 4.01693 21.2249 4.62847 22.2573 4.747L24.3594 4.98816C25.3926 5.10668 26.3488 6.04087 26.4846 7.06478L26.7622 9.14963C26.8981 10.1735 27.5386 11.6732 28.184 12.4831L29.499 14.1292C30.1444 14.9392 30.156 16.2717 29.523 17.0915L28.2362 18.7599C27.6032 19.5797 26.9884 21.09 26.8683 22.1164L26.6255 24.2045C26.5062 25.2301 25.5649 26.1799 24.535 26.3149L22.4371 26.5906C21.4063 26.7256 19.8958 27.3619 19.0814 28.0039L17.4234 29.3093C16.6089 29.9513 15.2658 29.962 14.4414 29.3331L12.7618 28.0541C11.9366 27.4261 10.417 26.8153 9.38375 26.6968L7.28167 26.4548C6.24927 26.3371 5.29227 25.4021 5.15555 24.3782L4.87881 22.2934C4.74209 21.2694 4.10327 19.7698 3.45615 18.9607L2.14287 17.3137C1.49575 16.5038 1.48581 15.1713 2.11718 14.3515L3.40561 12.6839C4.03781 11.8641 4.65344 10.3538 4.77192 9.32742L5.01469 7.23927C5.13484 6.2129 6.07609 5.26306 7.10684 5.12808L9.20395 4.85235Z" fill="#FFCA4D"/>
<path fill-rule="evenodd" clip-rule="evenodd" d="M9.20395 4.85235C10.2347 4.71737 11.7444 4.08113 12.5597 3.43995L14.2185 2.13373C15.033 1.49255 16.3744 1.48103 17.1997 2.10986L18.8792 3.38892C19.7044 4.01693 21.2249 4.62847 22.2573 4.747L24.3594 4.98816C25.3926 5.10668 26.3488 6.04087 26.4846 7.06478L26.7622 9.14963C26.8981 10.1735 27.5386 11.6732 28.184 12.4831L29.499 14.1292C30.1444 14.9392 30.156 16.2717 29.523 17.0915L28.2362 18.7599C27.6032 19.5797 26.9884 21.09 26.8683 22.1164L26.6255 24.2045C26.5062 25.2301 25.5649 26.1799 24.535 26.3149L22.4371 26.5906C21.4063 26.7256 19.8958 27.3619 19.0814 28.0039L17.4234 29.3093C16.6089 29.9513 15.2658 29.962 14.4414 29.3331L12.7618 28.0541C11.9366 27.4261 10.417 26.8153 9.38375 26.6968L7.28167 26.4548C6.24927 26.3371 5.29227 25.4021 5.15555 24.3782L4.87881 22.2934C4.74209 21.2694 4.10327 19.7698 3.45615 18.9607L2.14287 17.3137C1.49575 16.5038 1.48581 15.1713 2.11718 14.3515L3.40561 12.6839C4.03781 11.8641 4.65344 10.3538 4.77192 9.32742L5.01469 7.23927C5.13484 6.2129 6.07609 5.26306 7.10684 5.12808L9.20395 4.85235Z" fill="#FFCA4D"/>
<path fill-rule="evenodd" clip-rule="evenodd" d="M22.4232 22.1562C21.729 22.849 20.3728 22.913 18.7008 22.3317C18.2257 22.1661 17.7408 21.9554 17.2518 21.7037C18.1281 21.0773 18.9871 20.3492 19.801 19.5359C20.6206 18.7168 21.341 17.8666 21.9539 17.0131C23.0582 19.1325 23.4282 21.1519 22.4232 22.1562ZM13.0987 22.3317C11.4266 22.913 10.0696 22.8499 9.37713 22.1563C8.68303 21.4635 8.61904 20.1074 9.20156 18.4365C9.36647 17.9626 9.57815 17.4772 9.8292 16.9894C10.4569 17.8642 11.1854 18.7234 11.9985 19.5359C12.8124 20.3492 13.6722 21.0773 14.5468 21.7037C14.0586 21.9554 13.5738 22.1661 13.0987 22.3317ZM9.20156 12.839C8.61904 11.1681 8.68303 9.81204 9.37713 9.11924C9.75618 8.74045 10.333 8.54942 11.0525 8.54942C11.6473 8.54942 12.3414 8.67978 13.0987 8.9446C13.5738 9.1094 14.0586 9.32011 14.5468 9.57099C13.6722 10.1982 12.8124 10.9271 11.9985 11.7396C11.1854 12.5521 10.4569 13.4113 9.8292 14.2861C9.57815 13.7983 9.36647 13.3138 9.20156 12.839ZM21.1439 15.6382C20.4745 16.6573 19.6679 17.6551 18.7925 18.5291C17.8695 19.4523 16.8883 20.2558 15.8996 20.9084C14.911 20.2558 13.9289 19.4523 13.0059 18.5291C12.082 17.6059 11.2788 16.6261 10.6257 15.6382C11.2788 14.6502 12.082 13.6688 13.0059 12.7456C13.9289 11.8233 14.911 11.0198 15.8996 10.3672C16.8883 11.0198 17.8695 11.8233 18.7925 12.7456C19.6679 13.6205 20.4745 14.6182 21.1439 15.6382ZM18.7008 8.9446C19.4589 8.67978 20.1513 8.54942 20.747 8.54942C21.4665 8.54942 22.0441 8.74045 22.4232 9.11924C23.4282 10.1236 23.0582 12.1421 21.9539 14.2624C21.341 13.4089 20.6206 12.5595 19.801 11.7396C18.9871 10.9271 18.1281 10.1982 17.2518 9.57099C17.7408 9.32011 18.2257 9.1094 18.7008 8.9446ZM23.4306 8.11244C22.3189 7.00232 20.4729 6.82031 18.2322 7.59919C17.4676 7.86566 16.6832 8.23542 15.8997 8.6921C15.1161 8.23542 14.3318 7.86566 13.5671 7.59919C11.3265 6.82031 9.48044 7.00232 8.36873 8.11244C7.25783 9.22256 7.07569 11.0681 7.85594 13.3072C8.12177 14.0714 8.49179 14.8552 8.94879 15.6382C8.49179 16.4211 8.12177 17.205 7.85594 17.9691C7.07569 20.2082 7.25783 22.0529 8.36873 23.1631C9.02673 23.8198 9.94154 24.1527 11.0434 24.1527C11.8031 24.1527 12.6523 23.9936 13.5671 23.6763C14.3318 23.4098 15.1161 23.0409 15.8997 22.5834C16.6832 23.0409 17.4676 23.4098 18.2322 23.6763C19.147 23.9936 19.9962 24.1527 20.7559 24.1527C21.8586 24.1527 22.7734 23.8198 23.4306 23.1631C24.9649 21.6299 24.6359 18.7045 22.8481 15.6382C24.6359 12.5718 24.9649 9.64481 23.4306 8.11244Z" fill="#5F3361"/>
<path fill-rule="evenodd" clip-rule="evenodd" d="M18.2859 15.4004C18.2412 15.4177 18.213 15.5239 18.2196 15.6111C18.2412 15.8976 18.266 16.2219 18.0564 16.7174C17.957 16.9528 17.778 17.1989 17.5386 17.4277C17.2361 17.7157 16.9834 17.7808 16.9188 17.7808C16.8956 17.7808 16.8823 17.7734 16.8782 17.7585C16.8765 17.7536 16.8724 17.7388 16.8914 17.7248L16.9453 17.6861C17.0729 17.5948 17.1077 17.5709 17.2452 17.4507C17.464 17.2622 17.7764 16.8054 17.8261 16.6581C17.8874 16.4803 17.9404 16.2095 17.9214 16.0103C17.9089 15.8844 17.8824 15.8449 17.8766 15.8416C17.8542 15.8449 17.807 15.9099 17.7788 16.0194C17.7532 16.1157 17.7184 16.2309 17.6852 16.3404C17.5924 16.6474 17.4988 16.7593 17.4076 16.868C17.3886 16.891 17.3704 16.9132 17.3513 16.9371C17.1906 17.1454 16.9826 17.2581 16.9337 17.2581C16.9122 17.2581 16.9047 17.2433 16.903 17.2384C16.8956 17.2186 16.9122 17.1997 16.9378 17.1766C17.0041 17.1215 17.2287 16.9108 17.3289 16.556C17.3455 16.4959 17.3289 16.4334 17.3182 16.4276C17.3182 16.4276 17.2966 16.4334 17.2635 16.5149C17.1939 16.6861 17.1814 16.7034 17.0712 16.8639C16.9345 17.063 16.686 17.2639 16.5691 17.3198C16.3844 17.4071 16.1847 17.4515 15.9742 17.4515C15.8491 17.4515 15.7165 17.4359 15.5831 17.4054C15.284 17.3355 14.931 17.0408 14.9087 17.0178C14.8117 16.9132 14.7131 16.8005 14.6493 16.6885C14.4844 16.3964 14.414 16.1132 14.4397 15.8474C14.467 15.5733 14.5201 15.3593 14.7082 15.142C14.8921 14.9263 15.057 14.7823 15.3486 14.6802C15.4936 14.6292 15.6768 14.6004 15.8615 14.6004C16.1209 14.6004 16.3529 14.6564 16.4995 14.751C16.7531 14.9165 16.8442 15.0029 17.0696 15.2276C17.1715 15.3288 17.3306 15.3897 17.4913 15.3897C17.6123 15.3897 17.7283 15.3576 17.8377 15.2934C18.0556 15.165 18.1799 14.9996 18.208 14.8004C18.2685 14.3708 17.8716 13.9485 17.8675 13.9444C17.773 13.8456 17.6827 13.7609 17.5949 13.686C17.5941 13.5798 17.4748 13.4975 17.4748 13.4975C16.8144 13.0267 16.1954 13.0349 15.9427 13.0473C15.6428 13.0604 15.3619 13.0925 15.0827 13.1699C14.3809 13.3296 13.8257 13.723 13.4264 14.3411C13.1446 14.6712 13.0394 15.1782 13.0088 15.5914C12.9748 16.0383 13.1496 16.7083 13.2449 16.798C13.3344 16.882 13.4131 16.8935 13.4239 16.8943C13.4777 17.0104 13.5366 17.1305 13.5606 17.1651C13.5788 17.1906 13.597 17.217 13.6153 17.2433C13.728 17.4071 13.8448 17.5766 14.0006 17.7116C14.2582 17.933 14.4886 18.0557 14.8001 18.1915C15.1092 18.3265 15.347 18.3833 15.6486 18.394C15.7546 18.3989 15.8284 18.4005 15.8947 18.4005C16.135 18.4005 16.3081 18.375 16.5567 18.3067C16.8152 18.2351 17.1002 18.11 17.3206 17.9701C17.4176 17.9083 17.7175 17.64 17.8211 17.5199C17.9288 17.398 18.1252 17.1116 18.2246 16.826C18.4467 16.1922 18.4011 15.8457 18.3704 15.6136C18.3514 15.4663 18.3141 15.4004 18.2859 15.4004Z" fill="#5F3361"/>
</svg>
