<?xml version="1.0" encoding="UTF-8"?>
<svg width="20px" height="20px" viewBox="0 0 20 20" version="1.1" xmlns="http://www.w3.org/2000/svg" xmlns:xlink="http://www.w3.org/1999/xlink">
    <!-- Generator: Sketch 54.1 (76490) - https://sketchapp.com -->
    <title>2. Style/Icons/Informational/communications</title>
    <desc>Created with Sketch.</desc>
    <defs>
        <path d="M17.2,5.2 L15.6,5.2 L15.6,12.4 L5.2,12.4 L5.2,14 C5.2,14.44 5.56,14.8 6,14.8 L14.8,14.8 L18,18 L18,6 C18,5.56 17.64,5.2 17.2,5.2 Z M14,10 L14,2.8 C14,2.36 13.64,2 13.2,2 L2.8,2 C2.36,2 2,2.36 2,2.8 L2,14 L5.2,10.8 L13.2,10.8 C13.64,10.8 14,10.44 14,10 Z" id="path-1"></path>
    </defs>
    <g id="2.-Style/Icons/Informational/communications" stroke="none" stroke-width="1" fill="none" fill-rule="evenodd">
        <mask id="mask-2" fill="white">
            <use xlink:href="#path-1"></use>
        </mask>
        <use id="Communications" fill="#000000" fill-rule="nonzero" xlink:href="#path-1"></use>
    </g>
</svg>