<?xml version="1.0" encoding="UTF-8"?>
<svg width="20px" height="20px" viewBox="0 0 20 20" version="1.1" xmlns="http://www.w3.org/2000/svg" xmlns:xlink="http://www.w3.org/1999/xlink">
    <!-- Generator: Sketch 54.1 (76490) - https://sketchapp.com -->
    <title>2. Style/Icons/Informational/factors</title>
    <desc>Created with Sketch.</desc>
    <defs>
        <path d="M12.8006865,14.4962764 L10,11.5555556 L7.19931353,14.4962764 C7.28627307,14.7595298 7.33333333,15.0409358 7.33333333,15.3333333 C7.33333333,16.8060927 6.139426,18 4.66666667,18 C3.19390733,18 2,16.8060927 2,15.3333333 C2,13.860574 3.19390733,12.6666667 4.66666667,12.6666667 C5.17525775,12.6666667 5.65059454,12.8090452 6.05499293,13.0561182 L9.11111111,10 L9.11111111,7.17333333 C8.08,6.8 7.33333333,5.82222222 7.33333333,4.66666667 C7.33333333,3.19111111 8.52444444,2 10,2 C11.4755556,2 12.6666667,3.19111111 12.6666667,4.66666667 C12.6666667,5.82222222 11.92,6.8 10.8888889,7.17333333 L10.8888889,10 L13.9450071,13.0561182 C14.3494055,12.8090452 14.8247423,12.6666667 15.3333333,12.6666667 C16.8060927,12.6666667 18,13.860574 18,15.3333333 C18,16.8060927 16.8060927,18 15.3333333,18 C13.860574,18 12.6666667,16.8060927 12.6666667,15.3333333 C12.6666667,15.0409358 12.7137269,14.7595298 12.8006865,14.4962764 Z" id="path-1"></path>
    </defs>
    <g id="2.-Style/Icons/Informational/factors" stroke="none" stroke-width="1" fill="none" fill-rule="evenodd">
        <mask id="mask-2" fill="white">
            <use xlink:href="#path-1"></use>
        </mask>
        <use id="Factors" fill="#000000" fill-rule="nonzero" xlink:href="#path-1"></use>
    </g>
</svg>