<?xml version="1.0" encoding="UTF-8"?>
<svg width="20px" height="20px" viewBox="0 0 20 20" version="1.1" xmlns="http://www.w3.org/2000/svg" xmlns:xlink="http://www.w3.org/1999/xlink">
    <!-- Generator: Sketch 46.2 (44496) - http://www.bohemiancoding.com/sketch -->
    <title>heatmap</title>
    <desc>Created with Sketch.</desc>
    <defs>
        <path d="M11.3049378,1 C11.3049378,1 11.9486456,3.23604776 11.9486456,5.05053042 C11.9486456,6.78844873 10.7746627,8.19797058 8.98187188,8.19797058 C7.1807811,8.19797058 5.82419916,6.78844873 5.82419916,5.05053042 L5.85002125,4.73873828 C4.09319691,6.76354225 3.04002453,9.3879465 3.04002453,12.248501 C3.04002453,15.9770922 6.15619746,19 10,19 C13.8438025,19 16.9599755,15.9770922 16.9599755,12.248501 C16.9599755,7.69153897 14.7060759,3.64100856 11.3049378,1 M9.74823462,16.4687644 C8.19983144,16.4687644 6.95483782,15.2787885 6.95483782,13.8185312 C6.95483782,12.4514426 7.85123323,11.4893148 9.39133645,11.1858248 C10.9314397,10.8814124 12.5231871,10.1646595 13.4103603,9.00881464 C13.7497364,10.0963973 13.9148133,11.2439399 13.9148133,12.4173115 C13.9148133,14.6450571 12.0537784,16.4687644 9.74823462,16.4687644" id="path-1"></path>
    </defs>
    <g id="Symbols" stroke="none" stroke-width="1" fill="none" fill-rule="evenodd">
        <g id="heatmap">
            <mask id="mask-2" fill="white">
                <use xlink:href="#path-1"></use>
            </mask>
            <use id="Icons/Navigational/Engagement/heatmap" fill="#000000" xlink:href="#path-1"></use>
        </g>
    </g>
</svg>