<?xml version="1.0" encoding="UTF-8"?>
<svg width="20px" height="20px" viewBox="0 0 20 20" version="1.1" xmlns="http://www.w3.org/2000/svg" xmlns:xlink="http://www.w3.org/1999/xlink">
    <!-- Generator: Sketch 47.1 (45422) - http://www.bohemiancoding.com/sketch -->
    <title>kiosk-white</title>
    <desc>Created with Sketch.</desc>
    <defs>
        <path d="M14.3532715,2 L5.67692057,2 C4.75692057,2 4.01025391,2.74666667 4.01025391,3.66666667 L4.01025391,16.3333333 C4.01025391,17.2533333 4.75692057,18 5.67692057,18 L14.3532715,18 C15.2732715,18 16.0199382,17.2533333 16.0199382,16.3333333 L16.0199382,3.66666667 C16.0199382,2.74666667 15.5866667,2 14.6666667,2 L14.3532715,2 Z" id="path-1"></path>
    </defs>
    <g id="Symbols" stroke="none" stroke-width="1" fill="none" fill-rule="evenodd">
        <g id="kiosk-white">
            <mask id="mask-2" fill="white">
                <use xlink:href="#path-1"></use>
            </mask>
            <use id="Icons/Informational/kiosk" fill="#000000" xlink:href="#path-1"></use>
            <polygon id="Path" fill="#FFFFFF" points="5 14.6666667 15 14.6666667 15 4 5 4"></polygon>
            <path d="M9,16.3333333 C9,15.7795556 9.44622222,15.3333333 10,15.3333333 C10.5537778,15.3333333 11,15.7795556 11,16.3333333 C11,16.8862222 10.5537778,17.3333333 10,17.3333333 C9.44622222,17.3333333 9,16.8862222 9,16.3333333 Z" id="Path" fill="#FFFFFF"></path>
        </g>
    </g>
</svg>