<?xml version="1.0" encoding="UTF-8"?>
<svg width="20px" height="20px" viewBox="0 0 20 20" version="1.1" xmlns="http://www.w3.org/2000/svg" xmlns:xlink="http://www.w3.org/1999/xlink">
    <!-- Generator: Sketch 48.2 (47327) - http://www.bohemiancoding.com/sketch -->
    <title>2. Style/Icons/Informational/notification</title>
    <desc>Created with Sketch.</desc>
    <defs>
        <path d="M7.00392157,3.31764706 L5.88235294,2.19607843 C4,3.63137255 2.76078431,5.84313725 2.65098039,8.35294118 L4.21960784,8.35294118 C4.3372549,6.2745098 5.40392157,4.45490196 7.00392157,3.31764706 Z M16.7215686,8.35294118 L18.2901961,8.35294118 C18.172549,5.84313725 16.9333333,3.63137255 15.0588235,2.19607843 L13.945098,3.31764706 C15.5294118,4.45490196 16.6039216,6.2745098 16.7215686,8.35294118 Z M15.1764706,8.74509804 C15.1764706,6.3372549 13.8901961,4.32156863 11.6470588,3.78823529 L11.6470588,3.25490196 C11.6470588,2.60392157 11.1215686,2.07843137 10.4705882,2.07843137 C9.81960784,2.07843137 9.29411765,2.60392157 9.29411765,3.25490196 L9.29411765,3.78823529 C7.04313725,4.32156863 5.76470588,6.32941176 5.76470588,8.74509804 L5.76470588,12.6666667 L4.19607843,14.2352941 L4.19607843,15.0196078 L16.745098,15.0196078 L16.745098,14.2352941 L15.1764706,12.6666667 L15.1764706,8.74509804 Z M10.4705882,17.372549 C10.5803922,17.372549 10.6823529,17.3647059 10.7843137,17.3411765 C11.2941176,17.2313725 11.7098039,16.8862745 11.9137255,16.4156863 C11.9921569,16.227451 12.0313725,16.0235294 12.0313725,15.8039216 L8.89411765,15.8039216 C8.90196078,16.6666667 9.6,17.372549 10.4705882,17.372549 Z" id="path-1"></path>
    </defs>
    <g id="Symbols" stroke="none" stroke-width="1" fill="none" fill-rule="evenodd">
        <g id="2.-Style/Icons/Informational/notification">
            <mask id="mask-2" fill="white">
                <use xlink:href="#path-1"></use>
            </mask>
            <use id="Notification" fill="#000000" fill-rule="nonzero" xlink:href="#path-1"></use>
        </g>
    </g>
</svg>