<?xml version="1.0" encoding="UTF-8"?>
<svg width="20px" height="20px" viewBox="0 0 20 20" version="1.1" xmlns="http://www.w3.org/2000/svg" xmlns:xlink="http://www.w3.org/1999/xlink">
    <!-- Generator: Sketch 46.2 (44496) - http://www.bohemiancoding.com/sketch -->
    <title>refresh</title>
    <desc>Created with Sketch.</desc>
    <defs>
        <path d="M15.8312514,9.99957876 C15.8312514,11.5561531 15.22498,13.0216603 14.1245848,14.1212123 C13.0225032,15.2224507 11.5595256,15.8304085 10.0012648,15.8295653 C8.44384724,15.8304085 6.98002649,15.2232939 5.87794485,14.1212123 C4.77754964,13.0199739 4.16959183,11.5561531 4.17043505,9.99957876 C4.16959183,8.44216117 4.77670643,6.97834042 5.87794485,5.877102 C6.98002649,4.77586358 8.44384724,4.1695922 10.0004216,4.1695922 C11.4153359,4.1695922 12.7493016,4.67467781 13.8075361,5.590409 L11.8065875,7.59220074 L17.8465346,8.36964471 L17.0690906,2.32969768 L15.3413436,4.05660142 C13.8716204,2.7319111 11.9946244,1.99915751 10.0012648,2.00000073 C7.86455873,2.00084394 5.85602127,2.83225365 4.34413728,4.34329443 C2.83393972,5.8543352 2.00084358,7.86287266 2.00084358,9.99957876 C2.00253001,12.1362849 2.83393972,14.1456655 4.34413728,15.6575495 L4.34498049,15.6567063 C5.85686448,17.1677471 7.86455873,18 10.002108,18 C12.1396573,18 14.1473516,17.1685903 15.6583924,15.6567063 C17.0513831,14.2628724 17.8676149,12.4482743 17.9865082,10.4979187 C17.9898811,10.4422665 17.9924107,10.3866143 17.9940971,10.3318054 C17.9966268,10.2744668 17.9983132,10.2188146 17.9991564,10.1623192 L15.8312514,9.99957876 Z" id="path-1"></path>
    </defs>
    <g id="Symbols" stroke="none" stroke-width="1" fill="none" fill-rule="evenodd">
        <g id="refresh">
            <mask id="mask-2" fill="white">
                <use xlink:href="#path-1"></use>
            </mask>
            <use id="Icons/Actions/refresh" fill="#000000" xlink:href="#path-1"></use>
        </g>
    </g>
</svg>