<?xml version="1.0" encoding="UTF-8"?>
<svg width="20px" height="20px" viewBox="0 0 20 20" version="1.1" xmlns="http://www.w3.org/2000/svg" xmlns:xlink="http://www.w3.org/1999/xlink">
    <!-- Generator: Sketch 46.2 (44496) - http://www.bohemiancoding.com/sketch -->
    <title>dislike</title>
    <desc>Created with Sketch.</desc>
    <defs>
        <path d="M5.90999985,3.18333308 C5.34421649,3.18333308 4.86023314,3.52416643 4.65573313,4.01496644 L2.59709972,8.82071662 C2.53574972,8.97749996 2.50166639,9.14109997 2.50166639,9.31833331 L2.50166639,10.6203167 L2.50166639,10.6816667 C2.50166639,11.4315001 3.11516641,12.0450001 3.86499977,12.0450001 L8.1663166,12.0450001 L7.51873324,15.1602169 L7.49828324,15.3783502 C7.49828324,15.6578335 7.61416658,15.9168669 7.79821658,16.1009169 L8.52078328,16.8166669 L13.0129668,12.3244834 C13.2583668,12.0790834 13.4083335,11.7382501 13.4083335,11.3633334 L13.4083335,4.54666646 C13.4083335,3.7968331 12.7948334,3.18333308 12.0450001,3.18333308 L5.90999985,3.18333308 Z M14.7716668,11.3633334 L17.4983336,11.3633334 L17.4983336,3.18333308 L14.7716668,3.18333308 L14.7716668,11.3633334 Z" id="path-1"></path>
    </defs>
    <g id="Symbols" stroke="none" stroke-width="1" fill="none" fill-rule="evenodd">
        <g id="dislike">
            <mask id="mask-2" fill="white">
                <use xlink:href="#path-1"></use>
            </mask>
            <use fill="#000000" xlink:href="#path-1"></use>
        </g>
    </g>
</svg>