<?xml version="1.0" encoding="UTF-8"?>
<svg width="20px" height="20px" viewBox="0 0 20 20" version="1.1" xmlns="http://www.w3.org/2000/svg" xmlns:xlink="http://www.w3.org/1999/xlink">
    <!-- Generator: Sketch 46.2 (44496) - http://www.bohemiancoding.com/sketch -->
    <title>user-selected</title>
    <desc>Created with Sketch.</desc>
    <defs>
        <path d="M6.87578127,10 C5.03457503,10 3.54328129,8.50870626 3.54328129,6.66750002 C3.54328129,4.82629378 5.03457503,3.33500004 6.87578127,3.33500004 C8.71698751,3.33500004 10.2082812,4.82629378 10.2082812,6.66750002 C10.2082812,8.50870626 8.71698751,10 6.87578127,10 L6.87578127,10 Z M19.7892187,6.93743252 L14.6505037,12.0828125 L11.3354994,8.77530626 L12.4385569,7.67224876 L14.6505037,9.87753063 L18.6869943,5.83437502 L19.7892187,6.93743252 Z M6.87578127,11.66625 C9.10022501,11.66625 13.5407812,12.7826375 13.5407812,14.99875 L13.5407812,16.665 L0.210781306,16.665 L0.210781306,14.99875 C0.210781306,12.7826375 4.65133753,11.66625 6.87578127,11.66625 L6.87578127,11.66625 Z" id="path-1"></path>
    </defs>
    <g id="Symbols" stroke="none" stroke-width="1" fill="none" fill-rule="evenodd">
        <g id="user-selected">
            <mask id="mask-2" fill="white">
                <use xlink:href="#path-1"></use>
            </mask>
            <use fill="#000000" xlink:href="#path-1"></use>
        </g>
    </g>
</svg>