<?xml version="1.0" encoding="UTF-8"?>
<svg width="20px" height="20px" viewBox="0 0 20 20" version="1.1" xmlns="http://www.w3.org/2000/svg" xmlns:xlink="http://www.w3.org/1999/xlink">
    <!-- Generator: Sketch 46.2 (44496) - http://www.bohemiancoding.com/sketch -->
    <title>user-deleted</title>
    <desc>Created with Sketch.</desc>
    <defs>
        <path d="M7.69432658,10 C5.85312034,10 4.36182659,8.50870626 4.36182659,6.66750002 C4.36182659,4.82629378 5.85312034,3.33500004 7.69432658,3.33500004 C9.53553282,3.33500004 11.0268266,4.82629378 11.0268266,6.66750002 C11.0268266,8.50870626 9.53553282,10 7.69432658,10 L7.69432658,10 Z M16.0255765,7.98883626 L17.7926346,6.22177815 L18.9706734,7.39981689 L17.2036153,9.166875 L18.9706734,10.9347662 L17.7926346,12.112805 L16.0255765,10.3457469 L14.2585184,12.112805 L13.0804797,10.9347662 L14.8475378,9.166875 L13.0804797,7.39981689 L14.2585184,6.22177815 L16.0255765,7.98883626 Z M7.69432658,11.66625 C9.91877031,11.66625 14.3593265,12.7826375 14.3593265,14.99875 L14.3593265,16.665 L1.02932661,16.665 L1.02932661,14.99875 C1.02932661,12.7826375 5.46988284,11.66625 7.69432658,11.66625 L7.69432658,11.66625 Z" id="path-1"></path>
    </defs>
    <g id="Symbols" stroke="none" stroke-width="1" fill="none" fill-rule="evenodd">
        <g id="user-deleted">
            <mask id="mask-2" fill="white">
                <use xlink:href="#path-1"></use>
            </mask>
            <use fill="#000000" xlink:href="#path-1"></use>
        </g>
    </g>
</svg>