<?xml version="1.0" encoding="UTF-8"?>
<svg width="20px" height="20px" viewBox="0 0 20 20" version="1.1" xmlns="http://www.w3.org/2000/svg" xmlns:xlink="http://www.w3.org/1999/xlink">
    <!-- Generator: Sketch 46.2 (44496) - http://www.bohemiancoding.com/sketch -->
    <title>user-settings</title>
    <desc>Created with Sketch.</desc>
    <defs>
        <path d="M16.0358393,9.91691667 C15.392506,9.91691667 14.8691727,9.39358333 14.8691727,8.75025 C14.8691727,8.10691667 15.392506,7.58358333 16.0358393,7.58358333 C16.6783393,7.58358333 17.2016727,8.10691667 17.2016727,8.75025 C17.2016727,9.39358333 16.6783393,9.91691667 16.0358393,9.91691667 L16.0358393,9.91691667 Z M18.512506,9.07691667 C18.525006,8.97025 18.5358393,8.86025 18.5358393,8.75025 C18.5358393,8.64025 18.525006,8.53025 18.512506,8.42358333 L19.215006,7.87358333 C19.2791727,7.82358333 19.2983393,7.73358333 19.255006,7.66025 L18.5883393,6.50691667 C18.5491727,6.43358333 18.4616727,6.40358333 18.385006,6.43358333 L17.555006,6.76691667 C17.3816727,6.63691667 17.1958393,6.52358333 16.9916727,6.44025 L16.865006,5.55691667 C16.855006,5.47691667 16.785006,5.41691667 16.7016727,5.41691667 L15.3683393,5.41691667 C15.2858393,5.41691667 15.2158393,5.47691667 15.2058393,5.55691667 L15.0791727,6.44025 C14.875006,6.52358333 14.6883393,6.63358333 14.5158393,6.76691667 L13.6858393,6.43358333 C13.612506,6.40691667 13.5216727,6.43358333 13.482506,6.50691667 L12.815006,7.66025 C12.7758393,7.73358333 12.7916727,7.82358333 12.8558393,7.87358333 L13.5583393,8.42358333 C13.5458393,8.53025 13.5358393,8.63691667 13.5358393,8.75025 C13.5358393,8.86358333 13.5458393,8.97025 13.5583393,9.07691667 L12.8558393,9.62691667 C12.7916727,9.67691667 12.7758393,9.76691667 12.815006,9.84025 L13.482506,10.9935833 C13.5216727,11.0669167 13.6091727,11.0969167 13.6858393,11.0669167 L14.5158393,10.7335833 C14.6883393,10.8635833 14.875006,10.9769167 15.0791727,11.06025 L15.2058393,11.9435833 C15.2158393,12.0235833 15.2858393,12.0835833 15.3683393,12.0835833 L16.7016727,12.0835833 C16.785006,12.0835833 16.855006,12.0235833 16.865006,11.9435833 L16.9916727,11.06025 C17.1958393,10.9769167 17.3816727,10.8669167 17.555006,10.7335833 L18.385006,11.0669167 C18.4583393,11.0935833 18.5491727,11.0669167 18.5883393,10.9935833 L19.255006,9.84025 C19.295006,9.76691667 19.2791727,9.67691667 19.215006,9.62691667 L18.512506,9.07691667 Z M7.38833935,10.00025 C9.23000601,10.00025 10.7216727,8.50858333 10.7216727,6.66691667 C10.7216727,4.82525 9.23000601,3.33358333 7.38833935,3.33358333 C5.54667268,3.33358333 4.05500601,4.82525 4.05500601,6.66691667 C4.05500601,8.50858333 5.54667268,10.00025 7.38833935,10.00025 L7.38833935,10.00025 Z M7.38833935,11.6669167 C5.16333935,11.6669167 0.721672679,12.7835833 0.721672679,15.00025 L0.721672679,16.6669167 L14.055006,16.6669167 L14.055006,15.00025 C14.055006,12.7835833 9.61333935,11.6669167 7.38833935,11.6669167 L7.38833935,11.6669167 Z" id="path-1"></path>
    </defs>
    <g id="Symbols" stroke="none" stroke-width="1" fill="none" fill-rule="evenodd">
        <g id="user-settings">
            <mask id="mask-2" fill="white">
                <use xlink:href="#path-1"></use>
            </mask>
            <use fill="#000000" xlink:href="#path-1"></use>
        </g>
    </g>
</svg>